<?xml version="1.0" encoding="UTF-8"?>
<svg id="Capa_1" data-name="Capa 1" xmlns="http://www.w3.org/2000/svg" xmlns:xlink="http://www.w3.org/1999/xlink" viewBox="0 0 343 249.11">
  <defs>
    <style>
      .cls-1 {
        fill: #725469;
      }

      .cls-1, .cls-2, .cls-3, .cls-4, .cls-5, .cls-6, .cls-7, .cls-8, .cls-9, .cls-10, .cls-11, .cls-12, .cls-13, .cls-14, .cls-15, .cls-16, .cls-17, .cls-18, .cls-19, .cls-20, .cls-21, .cls-22, .cls-23, .cls-24, .cls-25, .cls-26, .cls-27, .cls-28, .cls-29, .cls-30, .cls-31, .cls-32, .cls-33, .cls-34, .cls-35, .cls-36, .cls-37, .cls-38, .cls-39, .cls-40, .cls-41, .cls-42, .cls-43, .cls-44, .cls-45, .cls-46, .cls-47, .cls-48, .cls-49, .cls-50, .cls-51, .cls-52, .cls-53, .cls-54, .cls-55, .cls-56, .cls-57, .cls-58, .cls-59, .cls-60, .cls-61, .cls-62, .cls-63, .cls-64, .cls-65, .cls-66, .cls-67, .cls-68, .cls-69, .cls-70, .cls-71, .cls-72, .cls-73, .cls-74, .cls-75, .cls-76, .cls-77, .cls-78, .cls-79, .cls-80, .cls-81, .cls-82, .cls-83, .cls-84, .cls-85, .cls-86, .cls-87, .cls-88, .cls-89, .cls-90, .cls-91, .cls-92, .cls-93, .cls-94, .cls-95, .cls-96, .cls-97, .cls-98, .cls-99, .cls-100, .cls-101, .cls-102, .cls-103, .cls-104, .cls-105, .cls-106, .cls-107, .cls-108, .cls-109, .cls-110, .cls-111, .cls-112, .cls-113, .cls-114, .cls-115, .cls-116, .cls-117, .cls-118, .cls-119, .cls-120, .cls-121, .cls-122, .cls-123, .cls-124, .cls-125, .cls-126, .cls-127, .cls-128, .cls-129, .cls-130, .cls-131, .cls-132, .cls-133, .cls-134, .cls-135, .cls-136, .cls-137, .cls-138, .cls-139, .cls-140, .cls-141, .cls-142, .cls-143, .cls-144, .cls-145, .cls-146, .cls-147, .cls-148, .cls-149, .cls-150, .cls-151, .cls-152, .cls-153, .cls-154, .cls-155, .cls-156, .cls-157, .cls-158, .cls-159, .cls-160, .cls-161, .cls-162, .cls-163, .cls-164, .cls-165, .cls-166, .cls-167, .cls-168, .cls-169, .cls-170, .cls-171, .cls-172, .cls-173, .cls-174, .cls-175, .cls-176, .cls-177, .cls-178, .cls-179, .cls-180, .cls-181, .cls-182, .cls-183, .cls-184, .cls-185, .cls-186, .cls-187, .cls-188, .cls-189 {
        fill-rule: evenodd;
      }

      .cls-2 {
        fill: #eedaf8;
      }

      .cls-3 {
        fill: #8240bb;
      }

      .cls-4 {
        fill: #5b3926;
      }

      .cls-5 {
        fill: #faf6c7;
      }

      .cls-6 {
        fill: #854f52;
      }

      .cls-7 {
        fill: #5d3192;
      }

      .cls-8 {
        fill: #220f38;
      }

      .cls-9 {
        fill: #b373e0;
      }

      .cls-10 {
        fill: url(#Degradado_sin_nombre_13-2);
      }

      .cls-11 {
        fill: url(#Degradado_sin_nombre_20);
      }

      .cls-12 {
        fill: #b38fd6;
      }

      .cls-13 {
        fill: #9558bc;
      }

      .cls-14 {
        fill: #a06c6e;
      }

      .cls-15 {
        fill: #fffcea;
      }

      .cls-16 {
        fill: #ffdeb5;
      }

      .cls-17 {
        fill: #745d67;
      }

      .cls-18 {
        fill: #fdde94;
      }

      .cls-19 {
        fill: #fcebcc;
      }

      .cls-20 {
        fill: #d6a2a5;
      }

      .cls-21 {
        fill: url(#Degradado_sin_nombre);
      }

      .cls-22 {
        fill: #1e1536;
      }

      .cls-23 {
        fill: #1e0d37;
      }

      .cls-24 {
        fill: #a67087;
      }

      .cls-25 {
        fill: #240826;
      }

      .cls-26 {
        fill: #ecd1bc;
      }

      .cls-27 {
        fill: url(#Degradado_sin_nombre_24);
      }

      .cls-28 {
        fill: #8b736d;
      }

      .cls-29 {
        fill: #bc7a62;
      }

      .cls-30 {
        fill: url(#Degradado_sin_nombre_25-2);
      }

      .cls-31 {
        fill: #833436;
      }

      .cls-32 {
        fill: #ca88eb;
      }

      .cls-33 {
        fill: #9c53d9;
      }

      .cls-34 {
        fill: #a27db1;
      }

      .cls-35 {
        fill: #fde09e;
      }

      .cls-36 {
        fill: #c38473;
      }

      .cls-37 {
        fill: #fcfdd9;
      }

      .cls-38 {
        fill: #b17f76;
      }

      .cls-39 {
        fill: url(#Degradado_sin_nombre_19);
      }

      .cls-40 {
        fill: #6e3b56;
      }

      .cls-41 {
        fill: #d08e6a;
      }

      .cls-42 {
        fill: url(#Degradado_sin_nombre_20-2);
      }

      .cls-43 {
        fill: #8658aa;
      }

      .cls-44 {
        fill: #9c6d7d;
      }

      .cls-45 {
        fill: #c48b7f;
      }

      .cls-46 {
        fill: #fee2a6;
      }

      .cls-47 {
        fill: url(#Degradado_sin_nombre_16-2);
      }

      .cls-48 {
        fill: url(#Degradado_sin_nombre_22);
      }

      .cls-49 {
        fill: #87547c;
      }

      .cls-50 {
        fill: url(#Degradado_sin_nombre_27-3);
      }

      .cls-51 {
        fill: #a767b1;
      }

      .cls-52 {
        fill: #642b8b;
      }

      .cls-53 {
        fill: #0d0613;
      }

      .cls-54 {
        fill: #130a10;
      }

      .cls-55 {
        fill: #9b8f81;
      }

      .cls-56 {
        fill: #c9a4a6;
      }

      .cls-57 {
        fill: #985eb3;
      }

      .cls-58 {
        fill: #9b563f;
      }

      .cls-59 {
        fill: #3a234f;
      }

      .cls-60 {
        fill: #fcfae6;
      }

      .cls-61 {
        fill: #674330;
      }

      .cls-62 {
        fill: #fdf5de;
      }

      .cls-63 {
        fill: #170d28;
      }

      .cls-64 {
        fill: url(#Degradado_sin_nombre_10);
      }

      .cls-65 {
        fill: #c7a694;
      }

      .cls-66 {
        fill: #ad7669;
      }

      .cls-67 {
        fill: #010128;
      }

      .cls-68 {
        fill: #d8a0f2;
      }

      .cls-69 {
        fill: #c886b8;
      }

      .cls-70 {
        fill: #99589f;
      }

      .cls-71 {
        fill: #41255a;
      }

      .cls-72 {
        fill: #6b354b;
      }

      .cls-73 {
        fill: #2d134d;
      }

      .cls-74 {
        fill: url(#Degradado_sin_nombre_4);
      }

      .cls-75 {
        fill: url(#Degradado_sin_nombre_5);
      }

      .cls-76 {
        fill: url(#Degradado_sin_nombre_22-2);
      }

      .cls-77 {
        fill: #7432a9;
      }

      .cls-78 {
        fill: #fdd387;
      }

      .cls-79 {
        fill: #e7c6d5;
      }

      .cls-80 {
        fill: #dfbbb7;
      }

      .cls-81 {
        fill: #53253a;
      }

      .cls-82 {
        fill: #af86b2;
      }

      .cls-83 {
        fill: #b57f6f;
      }

      .cls-84 {
        fill: url(#Degradado_sin_nombre_13);
      }

      .cls-85 {
        fill: #5f3384;
      }

      .cls-86 {
        fill: #793e92;
      }

      .cls-87 {
        fill: #673262;
      }

      .cls-88 {
        fill: #ffdd92;
      }

      .cls-89 {
        fill: #130720;
      }

      .cls-90 {
        fill: #9b65af;
      }

      .cls-91 {
        fill: #9f6fc4;
      }

      .cls-92 {
        fill: url(#Degradado_sin_nombre_27-2);
      }

      .cls-93 {
        fill: #fbefc9;
      }

      .cls-94 {
        fill: #5a2d88;
      }

      .cls-95 {
        fill: #190f1e;
      }

      .cls-96 {
        fill: #8d42b1;
      }

      .cls-97 {
        fill: #c287cb;
      }

      .cls-98 {
        fill: #531c75;
      }

      .cls-99 {
        fill: #c79767;
      }

      .cls-100 {
        fill: #9f6795;
      }

      .cls-101 {
        fill: #bb7d73;
      }

      .cls-102 {
        fill: #fcd67e;
      }

      .cls-103 {
        fill: #30123e;
      }

      .cls-104 {
        fill: #985b98;
      }

      .cls-105 {
        fill: #a575d4;
      }

      .cls-106 {
        fill: #6e452e;
      }

      .cls-107 {
        fill: #ca8a64;
      }

      .cls-108 {
        fill: #eccbc7;
      }

      .cls-109 {
        fill: #9851c7;
      }

      .cls-110 {
        fill: url(#Degradado_sin_nombre_2);
      }

      .cls-111 {
        fill: #fdd783;
      }

      .cls-112 {
        fill: #1b0630;
      }

      .cls-113 {
        fill: url(#Degradado_sin_nombre_6);
      }

      .cls-114 {
        fill: #dcaaac;
      }

      .cls-115 {
        fill: #8843be;
      }

      .cls-116 {
        fill: #37164e;
      }

      .cls-117 {
        fill: #d59583;
      }

      .cls-118 {
        fill: url(#Degradado_sin_nombre_25);
      }

      .cls-119 {
        fill: #130429;
      }

      .cls-120 {
        fill: #e7c485;
      }

      .cls-121 {
        fill: url(#Degradado_sin_nombre_19-2);
      }

      .cls-122 {
        fill: #22064e;
      }

      .cls-123 {
        fill: #4f236a;
      }

      .cls-124 {
        fill: #fceed0;
      }

      .cls-125 {
        fill: #9b5d39;
      }

      .cls-126 {
        fill: #e6bcb5;
      }

      .cls-127 {
        fill: #804387;
      }

      .cls-128 {
        fill: #935acb;
      }

      .cls-129 {
        fill: #f9deaa;
      }

      .cls-130 {
        fill: #c899ea;
      }

      .cls-131 {
        fill: #000002;
      }

      .cls-132 {
        fill: #a2512d;
      }

      .cls-133 {
        fill: #8c5459;
      }

      .cls-134 {
        fill: #552487;
      }

      .cls-135 {
        fill: #b07acd;
      }

      .cls-136 {
        fill: #a66a6f;
      }

      .cls-137 {
        fill: url(#Degradado_sin_nombre_11-2);
      }

      .cls-138 {
        fill: #260a2b;
      }

      .cls-139 {
        fill: url(#Degradado_sin_nombre_2-2);
      }

      .cls-140 {
        fill: #e5b7a4;
      }

      .cls-141 {
        fill: #f0af58;
      }

      .cls-142 {
        fill: url(#Degradado_sin_nombre_23);
      }

      .cls-143 {
        fill: #704868;
      }

      .cls-144 {
        fill: #886e9a;
      }

      .cls-145 {
        fill: #915c42;
      }

      .cls-146 {
        fill: #f0d9f8;
      }

      .cls-147 {
        fill: #e2ae86;
      }

      .cls-148 {
        fill: url(#Degradado_sin_nombre_13-4);
      }

      .cls-149 {
        fill: #8f506b;
      }

      .cls-150 {
        fill: #daad8f;
      }

      .cls-152 {
        fill: #fcf9f4;
      }

      .cls-153 {
        fill: #fadb92;
      }

      .cls-154 {
        fill: url(#Degradado_sin_nombre_18);
      }

      .cls-155 {
        fill: #917a9e;
      }

      .cls-156 {
        fill: #301382;
      }

      .cls-157 {
        fill: #2f113a;
      }

      .cls-158 {
        fill: #fcf3dd;
      }

      .cls-159 {
        fill: url(#Degradado_sin_nombre_7);
      }

      .cls-160 {
        fill: #e4aa74;
      }

      .cls-161 {
        fill: #bf74eb;
      }

      .cls-162 {
        fill: #945861;
      }

      .cls-163 {
        fill: #310f58;
      }

      .cls-164 {
        fill: url(#Degradado_sin_nombre_25-3);
      }

      .cls-165 {
        fill: #fce39e;
      }

      .cls-166 {
        fill: #19062c;
      }

      .cls-167 {
        fill: url(#Degradado_sin_nombre_16);
      }

      .cls-168 {
        fill: #ac68d8;
      }

      .cls-169 {
        fill: #87505e;
      }

      .cls-170 {
        fill: #4e2982;
      }

      .cls-171 {
        fill: #7f43c9;
      }

      .cls-172 {
        fill: #dab8bd;
      }

      .cls-173 {
        fill: url(#Degradado_sin_nombre_13-3);
      }

      .cls-174 {
        fill: #652c90;
      }

      .cls-175 {
        fill: #eec7f2;
      }

      .cls-176 {
        fill: #fef8e7;
      }

      .cls-177 {
        fill: #d59080;
      }

      .cls-178 {
        fill: #935649;
      }

      .cls-179 {
        fill: #fceac9;
      }

      .cls-180 {
        fill: #745d59;
      }

      .cls-181 {
        fill: #e9d3d1;
      }

      .cls-182 {
        fill: #623993;
      }

      .cls-183 {
        fill: #602f36;
      }

      .cls-184 {
        fill: #8b5664;
      }

      .cls-185 {
        fill: url(#Degradado_sin_nombre_27);
      }

      .cls-186 {
        fill: #d088f9;
      }

      .cls-187 {
        fill: url(#Degradado_sin_nombre_11);
      }

      .cls-188 {
        fill: #a967cc;
      }

      .cls-189 {
        fill: #eed3d2;
      }
    </style>
    <linearGradient id="Degradado_sin_nombre" data-name="Degradado sin nombre" x1="164.06" y1="161.81" x2="158.08" y2="209.57" gradientTransform="translate(0 331.79) scale(1 -1)" gradientUnits="userSpaceOnUse">
      <stop offset="0" stop-color="#1f0a3e"/>
      <stop offset=".18" stop-color="#1f0a3e"/>
      <stop offset=".36" stop-color="#280d49"/>
      <stop offset=".55" stop-color="#2f135a"/>
      <stop offset=".64" stop-color="#361660"/>
      <stop offset=".82" stop-color="#461e74"/>
      <stop offset=".91" stop-color="#4c207a"/>
      <stop offset="1" stop-color="#52227e"/>
    </linearGradient>
    <linearGradient id="Degradado_sin_nombre_2" data-name="Degradado sin nombre 2" x1="160.4" y1="211.75" x2="168.89" y2="251.98" gradientTransform="translate(0 331.79) scale(1 -1)" gradientUnits="userSpaceOnUse">
      <stop offset="0" stop-color="#6f3799"/>
      <stop offset=".25" stop-color="#6e349d"/>
      <stop offset=".38" stop-color="#6e37a2"/>
      <stop offset=".5" stop-color="#723aa4"/>
      <stop offset=".62" stop-color="#703ca2"/>
      <stop offset=".75" stop-color="#743ca5"/>
      <stop offset=".88" stop-color="#7840a9"/>
      <stop offset="1" stop-color="#7c44ad"/>
    </linearGradient>
    <linearGradient id="Degradado_sin_nombre_2-2" data-name="Degradado sin nombre 2" x1="155.55" y1="212.78" x2="164.03" y2="253" xlink:href="#Degradado_sin_nombre_2"/>
    <linearGradient id="Degradado_sin_nombre_4" data-name="Degradado sin nombre 4" x1="138.27" y1="153.85" x2="260.72" y2="212.71" gradientTransform="translate(0 331.79) scale(1 -1)" gradientUnits="userSpaceOnUse">
      <stop offset="0" stop-color="#0b0324"/>
      <stop offset=".05" stop-color="#08021d"/>
      <stop offset=".09" stop-color="#0f0324"/>
      <stop offset=".14" stop-color="#0b021e"/>
      <stop offset=".27" stop-color="#060215"/>
      <stop offset=".45" stop-color="#040114"/>
      <stop offset=".55" stop-color="#070116"/>
      <stop offset=".64" stop-color="#0a0215"/>
      <stop offset=".68" stop-color="#150723"/>
      <stop offset=".73" stop-color="#130928"/>
      <stop offset=".77" stop-color="#100323"/>
      <stop offset=".82" stop-color="#11062c"/>
      <stop offset=".86" stop-color="#12072e"/>
      <stop offset=".91" stop-color="#11062c"/>
      <stop offset=".95" stop-color="#160a36"/>
      <stop offset="1" stop-color="#1e0a3c"/>
    </linearGradient>
    <linearGradient id="Degradado_sin_nombre_5" data-name="Degradado sin nombre 5" x1="175.7" y1="182.52" x2="171.13" y2="190.96" gradientTransform="translate(0 331.79) scale(1 -1)" gradientUnits="userSpaceOnUse">
      <stop offset="0" stop-color="#8943cd"/>
      <stop offset=".17" stop-color="#8b47d2"/>
      <stop offset=".33" stop-color="#904bd3"/>
      <stop offset=".5" stop-color="#9451d4"/>
      <stop offset=".83" stop-color="#9858d6"/>
      <stop offset="1" stop-color="#9e5bd1"/>
    </linearGradient>
    <linearGradient id="Degradado_sin_nombre_6" data-name="Degradado sin nombre 6" x1="186.01" y1="153.06" x2="188.81" y2="158.17" gradientTransform="translate(0 331.79) scale(1 -1)" gradientUnits="userSpaceOnUse">
      <stop offset="0" stop-color="#130623"/>
      <stop offset=".25" stop-color="#100426"/>
      <stop offset=".5" stop-color="#120529"/>
      <stop offset="1" stop-color="#150628"/>
    </linearGradient>
    <linearGradient id="Degradado_sin_nombre_7" data-name="Degradado sin nombre 7" x1="197.92" y1="244.05" x2="201.62" y2="246.97" gradientTransform="translate(0 331.79) scale(1 -1)" gradientUnits="userSpaceOnUse">
      <stop offset="0" stop-color="#532375"/>
      <stop offset=".5" stop-color="#4a1e78"/>
      <stop offset="1" stop-color="#461d76"/>
    </linearGradient>
    <linearGradient id="Degradado_sin_nombre_25" data-name="Degradado sin nombre 25" x1="210.07" y1="165.84" x2="205.12" y2="178.71" gradientTransform="translate(0 331.79) scale(1 -1)" gradientUnits="userSpaceOnUse">
      <stop offset="0" stop-color="#0d0326"/>
      <stop offset="1" stop-color="#0f062b"/>
    </linearGradient>
    <linearGradient id="Degradado_sin_nombre_25-2" data-name="Degradado sin nombre 25" x1="202.29" y1="162.85" x2="197.34" y2="175.72" xlink:href="#Degradado_sin_nombre_25"/>
    <radialGradient id="Degradado_sin_nombre_10" data-name="Degradado sin nombre 10" cx="760.31" cy="530.53" fx="760.31" fy="530.53" r="5.17" gradientTransform="translate(1147.56 -234.18) rotate(118.47) scale(1 1.25)" gradientUnits="userSpaceOnUse">
      <stop offset="0" stop-color="#491d85"/>
      <stop offset=".04" stop-color="#491d85"/>
      <stop offset=".28" stop-color="#491c80"/>
      <stop offset=".76" stop-color="#451d79"/>
      <stop offset="1" stop-color="#401a77"/>
    </radialGradient>
    <linearGradient id="Degradado_sin_nombre_11" data-name="Degradado sin nombre 11" x1="216.02" y1="178.45" x2="221.09" y2="181.33" gradientTransform="translate(0 331.79) scale(1 -1)" gradientUnits="userSpaceOnUse">
      <stop offset="0" stop-color="#190a38"/>
      <stop offset=".33" stop-color="#190a3e"/>
      <stop offset=".67" stop-color="#1c0a3f"/>
      <stop offset="1" stop-color="#1e0b3d"/>
    </linearGradient>
    <linearGradient id="Degradado_sin_nombre_11-2" data-name="Degradado sin nombre 11" x1="208.78" y1="191.23" x2="213.85" y2="194.11" xlink:href="#Degradado_sin_nombre_11"/>
    <linearGradient id="Degradado_sin_nombre_13" data-name="Degradado sin nombre 13" x1="283.52" y1="112.4" x2="290.37" y2="121.12" gradientTransform="translate(0 331.79) scale(1 -1)" gradientUnits="userSpaceOnUse">
      <stop offset="0" stop-color="#070116"/>
      <stop offset=".4" stop-color="#0a021f"/>
      <stop offset=".8" stop-color="#090424"/>
      <stop offset="1" stop-color="#080223"/>
    </linearGradient>
    <linearGradient id="Degradado_sin_nombre_13-2" data-name="Degradado sin nombre 13" x1="269.58" y1="123.34" x2="276.43" y2="132.06" xlink:href="#Degradado_sin_nombre_13"/>
    <linearGradient id="Degradado_sin_nombre_13-3" data-name="Degradado sin nombre 13" x1="256.15" y1="133.88" x2="263" y2="142.61" xlink:href="#Degradado_sin_nombre_13"/>
    <linearGradient id="Degradado_sin_nombre_16" data-name="Degradado sin nombre 16" x1="328" y1="89.96" x2="331.8" y2="94.49" gradientTransform="translate(0 331.79) scale(1 -1)" gradientUnits="userSpaceOnUse">
      <stop offset="0" stop-color="#39165c"/>
      <stop offset=".2" stop-color="#3b1660"/>
      <stop offset=".6" stop-color="#401665"/>
      <stop offset=".8" stop-color="#45196a"/>
      <stop offset="1" stop-color="#45196f"/>
    </linearGradient>
    <linearGradient id="Degradado_sin_nombre_16-2" data-name="Degradado sin nombre 16" x1="287.68" y1="123.83" x2="291.47" y2="128.35" xlink:href="#Degradado_sin_nombre_16"/>
    <linearGradient id="Degradado_sin_nombre_18" data-name="Degradado sin nombre 18" x1="199.82" y1="185.62" x2="205.95" y2="182.92" gradientTransform="translate(0 331.79) scale(1 -1)" gradientUnits="userSpaceOnUse">
      <stop offset="0" stop-color="#38147d"/>
      <stop offset=".5" stop-color="#2b0f66"/>
      <stop offset="1" stop-color="#290e5c"/>
    </linearGradient>
    <linearGradient id="Degradado_sin_nombre_19" data-name="Degradado sin nombre 19" x1="167.34" y1="163.26" x2="165.36" y2="177.36" gradientTransform="translate(0 331.79) scale(1 -1)" gradientUnits="userSpaceOnUse">
      <stop offset="0" stop-color="#5c3546"/>
      <stop offset=".12" stop-color="#623947"/>
      <stop offset=".25" stop-color="#6a3d4d"/>
      <stop offset=".5" stop-color="#6f4251"/>
      <stop offset=".62" stop-color="#764650"/>
      <stop offset=".75" stop-color="#804e58"/>
      <stop offset=".88" stop-color="#935d5e"/>
      <stop offset="1" stop-color="#9b6474"/>
    </linearGradient>
    <linearGradient id="Degradado_sin_nombre_20" data-name="Degradado sin nombre 20" x1="183.59" y1="149.29" x2="208.66" y2="194.77" gradientTransform="translate(0 331.79) scale(1 -1)" gradientUnits="userSpaceOnUse">
      <stop offset="0" stop-color="#542b32"/>
      <stop offset=".04" stop-color="#572e3a"/>
      <stop offset=".09" stop-color="#563143"/>
      <stop offset=".13" stop-color="#4f2c3d"/>
      <stop offset=".17" stop-color="#522c41"/>
      <stop offset=".22" stop-color="#48263d"/>
      <stop offset=".26" stop-color="#452438"/>
      <stop offset=".3" stop-color="#492837"/>
      <stop offset=".35" stop-color="#4e2a34"/>
      <stop offset=".39" stop-color="#4a2932"/>
      <stop offset=".43" stop-color="#54313d"/>
      <stop offset=".48" stop-color="#55303f"/>
      <stop offset=".52" stop-color="#542d3c"/>
      <stop offset=".57" stop-color="#542d3b"/>
      <stop offset=".61" stop-color="#4e2933"/>
      <stop offset=".65" stop-color="#542931"/>
      <stop offset=".7" stop-color="#5d3234"/>
      <stop offset=".74" stop-color="#512c33"/>
      <stop offset=".78" stop-color="#63353f"/>
      <stop offset=".83" stop-color="#623542"/>
      <stop offset=".87" stop-color="#663947"/>
      <stop offset=".91" stop-color="#62364c"/>
      <stop offset=".96" stop-color="#623548"/>
      <stop offset="1" stop-color="#5c3142"/>
    </linearGradient>
    <linearGradient id="Degradado_sin_nombre_20-2" data-name="Degradado sin nombre 20" x1="158.96" y1="162.87" x2="184.03" y2="208.35" xlink:href="#Degradado_sin_nombre_20"/>
    <radialGradient id="Degradado_sin_nombre_22" data-name="Degradado sin nombre 22" cx="256.69" cy="214.28" fx="237.16" fy="197.97" r="36.62" gradientTransform="translate(0 331.79) scale(1 -1)" gradientUnits="userSpaceOnUse">
      <stop offset="0" stop-color="#4e203e"/>
      <stop offset=".05" stop-color="#4e203e"/>
      <stop offset=".14" stop-color="#40173d"/>
      <stop offset=".24" stop-color="#39123b"/>
      <stop offset=".33" stop-color="#351039"/>
      <stop offset=".43" stop-color="#351039"/>
      <stop offset=".52" stop-color="#37163a"/>
      <stop offset=".71" stop-color="#482344"/>
      <stop offset=".81" stop-color="#3b173a"/>
      <stop offset=".9" stop-color="#4c2847"/>
      <stop offset="1" stop-color="#7f505b"/>
    </radialGradient>
    <radialGradient id="Degradado_sin_nombre_23" data-name="Degradado sin nombre 23" cx="808.36" cy="491.72" fx="808.36" fy="491.72" r="12.55" gradientTransform="translate(30.43 -2933.98) rotate(163.13) scale(1 -6)" gradientUnits="userSpaceOnUse">
      <stop offset="0" stop-color="#f3be62"/>
      <stop offset=".6" stop-color="#f3be62"/>
      <stop offset=".68" stop-color="#f9d46d"/>
      <stop offset=".76" stop-color="#fcde78"/>
      <stop offset=".84" stop-color="#fbda71"/>
      <stop offset=".92" stop-color="#fbda6f"/>
      <stop offset="1" stop-color="#f9c762"/>
    </radialGradient>
    <radialGradient id="Degradado_sin_nombre_24" data-name="Degradado sin nombre 24" cx="169.45" cy="228.43" fx="160.86" fy="258.96" r="33.63" gradientTransform="translate(0 331.79) scale(1 -1)" gradientUnits="userSpaceOnUse">
      <stop offset="0" stop-color="#9a58d9"/>
      <stop offset="0" stop-color="#9a58d9"/>
      <stop offset="1" stop-color="#9956d5"/>
    </radialGradient>
    <linearGradient id="Degradado_sin_nombre_25-3" data-name="Degradado sin nombre 25" x1="211.72" y1="166.48" x2="206.77" y2="179.35" xlink:href="#Degradado_sin_nombre_25"/>
    <linearGradient id="Degradado_sin_nombre_13-4" data-name="Degradado sin nombre 13" x1="260.52" y1="130.45" x2="267.37" y2="139.18" xlink:href="#Degradado_sin_nombre_13"/>
    <linearGradient id="Degradado_sin_nombre_27" data-name="Degradado sin nombre 27" x1="74.45" y1="275.68" x2="63.27" y2="296.58" gradientTransform="translate(0 331.79) scale(1 -1)" gradientUnits="userSpaceOnUse">
      <stop offset="0" stop-color="#1a0a39"/>
      <stop offset=".25" stop-color="#240d46"/>
      <stop offset=".5" stop-color="#391463"/>
      <stop offset=".75" stop-color="#552189"/>
      <stop offset="1" stop-color="#642aa1"/>
    </linearGradient>
    <linearGradient id="Degradado_sin_nombre_27-2" data-name="Degradado sin nombre 27" x1="90.39" y1="284.2" x2="79.21" y2="305.11" xlink:href="#Degradado_sin_nombre_27"/>
    <linearGradient id="Degradado_sin_nombre_27-3" data-name="Degradado sin nombre 27" x1="87.49" y1="282.65" x2="76.31" y2="303.56" xlink:href="#Degradado_sin_nombre_27"/>
    <linearGradient id="Degradado_sin_nombre_19-2" data-name="Degradado sin nombre 19" x1="173.44" y1="164.11" x2="171.47" y2="178.22" xlink:href="#Degradado_sin_nombre_19"/>
    <radialGradient id="Degradado_sin_nombre_22-2" data-name="Degradado sin nombre 22" cx="256.69" cy="214.28" fx="237.16" fy="197.97" r="36.62" xlink:href="#Degradado_sin_nombre_22"/>
  </defs>
  <path class="cls-21" d="M145.02,173.73h-.75c-.41,0-.75,1.3-.75,2.9,0,2.29.52,3,2.5,3.39,2.13.42,2.03.51-4,.71l-3-3c-.33-.67-.67-1.33-1-2-.33-.33-.67-.67-1-1l-3-6c-.33-.33-.67-.67-1-1v-1c-.33-.33-.67-.67-1-1v-1c-.67-1.67-1.33-3.33-2-5v-2c-.33-.33-.67-.67-1-1v-3c-.33-.33-.67-.67-1-1v-9c.18,1.15.36,2.31.54,3.46.3,1.91,1.06,3.79,1.7,4.18.83.52.68-2.86-2.24-24.65.19-.58.38-1.17.58-1.75.32-.96,1.22-3.21,3.42-8.25.13,2.17.26,4.33.38,6.5.59,9.97,2.62,8.04,2.62-2.5.42-.25.83-.5,1.25-.75.69-.41,2-.75,2.93-.75s2.72-1.54,4-3.41c2.33-3.42,6.65-6.15,23.23-14.68,4.9-2.52,10.52-5.61,12.5-6.87,1.98-1.26,4.84-2.57,9.1-3.54-.42.19-.83.37-1.25.56-.69.31-10.47,5.61-21.74,11.78-18.35,10.05-20.56,11.53-21.13,14.19-.35,1.64-.69,12.3-.76,23.69-.11,19.24.03,21.01,1.98,24.75,1.16,2.22,2.51,4.03,3.9,4.03.46.69.93,1.38,1.39,2.07.76,1.14,1.16,2.96.87,4.05-.51,1.97-.53,1.97-3.26-2.12h-3Z"/>
  <path class="cls-110" d="M188.02,90.73c-4.26.97-7.12,2.28-9.1,3.54-1.98,1.26-7.6,4.35-12.5,6.87-16.57,8.53-20.9,11.26-23.23,14.68-1.28,1.88-3.08,3.41-4,3.41s-2.24.34-2.93.75c-.42.25-.83.5-1.25.75v-2c.18-1.5.37-3,.55-4.49.48-3.86.94-4.59,3.25-5.14,3.89-.93,4.9-2,5.65-5.98.48-2.58,1.46-3.92,6.55-6.39,1.33-.33,2.67-.67,4-1,1.8-.81,3.6-1.63,5.41-2.44,7.87-3.56,8.5-5.55,1.02-3.2-1.98.62-3.95,1.24-5.93,1.86.08-.69.15-1.38.23-2.07.24-2.1,3.9-4.16,16.27-9.15,1.2-.21,2.41-.42,3.61-.63,3.29-.57,3.96-.26,11.39,7.63,1.67-1.33,3.33-2.67,5-4,.25,0,.5-.01.75-.02.41-.01.86.21,1.25,1.02-.3.56-.6,1.13-.9,1.69-.49.93-.67,2.28-.39,3,.29.74-.19,1.31-2.71,1.31h-2Z"/>
  <path class="cls-139" d="M157.02,83.73c4.33-1.67,8.67-3.33,13-5-1.08.67-2.17,1.34-3.25,2.01-1.79,1.11-4.71,2.23-9.75,2.99Z"/>
  <path class="cls-74" d="M142.02,180.73c6.03-.2,6.13-.29,4-.71-1.98-.39-2.5-1.1-2.5-3.39,0-1.59.34-2.9.75-2.9h.75c-.33.67-.67,1.33-1,2l3,3h.75c.41,0,.64-1.12.25-5,2.73,4.09,2.74,4.09,3.26,2.12.29-1.09-.1-2.92-.87-4.05-.46-.69-.93-1.38-1.39-2.07.67-.14,1.33-.27,2-.41,1.11-.23,2-1.21,2-2.22,0-1.74.19-1.74,4.7-.07,2.59.96,5.51,2.4,8.3,4.69,1.67,1.67,3.33,3.33,5,5,1.29.42,2.58.85,3.87,1.27,2.13.7,4.61,1.82,7.13,3.73.74.5,1.48,1,2.22,1.5,3.37,2.28,5.27,1.84,8.64-2,1.69-1.92,3.76-3.5,6.13-3.5,1.58-.8,3.17-1.61,4.75-2.41,2.61-1.33,7.11-3.58,15.25-7.59.58-.18,1.17-.36,1.75-.55.96-.3,1.41-.53.25-.45.42-.28.83-.56,1.25-.84.69-.46,2.04-1.36,4.75-3.16v-1.43c0-.78-.67-1.68-3-2.57,1-.33,2-.67,3-1,.33-12,.67-24,1-36v-1.99c0-1.23-1.52-2.94-8-7.01-.92-.42-1.84-.83-2.77-1.25-1.52-.69-6.47-3.39-19.23-10.75-2.33-1.33-4.67-2.67-7-4,.15-.74.31-1.48.46-2.21.26-1.22.03-2.57-1.46-3.79,2.52,0,3-.57,2.71-1.31-.28-.72-.1-2.07.39-3,.3-.56.6-1.13.9-1.69.19-.48.37-.95.56-1.43,1.29-3.28,3.05-3.64,7.76-1.55,5.38,2.38,6.31,3.51,4.6,5.58-1.07,1.29-.21,2.01,13.08,8.4h2c2,.67,4,1.33,6,2v.69c0,.38,1.24.23,2.75-.34.92-.34,1.83-.69,2.75-1.03-1.83-.77-3.67-1.55-5.5-2.32-2-.33-4-.67-6-1-.67-.33-1.33-.67-2-1-1.75-.92-3.5-1.83-5.25-2.75-5.64-2.96-6.59-4.56-3-5.07,1.24-.17,2.25-.74,2.25-2.18l3-3c2.25.65,4.5,1.29,6.75,1.93,11.51,3.3,14.23,3.9,32.25,7.07v12c-.32-1.92-.64-3.83-.96-5.75-.53-3.16-1.19-5.75-1.48-5.75s-.64,6.41-.79,14.25c-.15,7.84.03,14.25.4,14.25s.93-.68,1.82-3v7c-.52,4.21-1.05,8.42-1.57,12.62-2.84,22.83-8.08,37.42-18.47,51.44-9.3,12.54-27.69,27.75-42.72,35.33-6.18,3.12-4.79,3.59-21.23-7.26-8.41-5.55-13.99-10.22-30-27.13v-1c.33-.67.67-1.33,1-2v-3ZM154.42,186.73c-1.26,0-.03,2.44,2.35,4.66,3.81,3.56,17.45,12.48,18.09,11.83.89-.89-3.31-5.88-6.73-7.99-1.77-1.1-5.49-3.46-8.27-5.25-2.77-1.79-5.22-3.25-5.44-3.25ZM185.59,201.48c-1.86,3.42-1.86,2.87.07,5.83.55.84,1.1,1.68,1.65,2.51.6-.91,1.19-1.82,1.79-2.73,1.61-2.45,1.64-3.01.33-5.55-.8-1.55-1.66-2.83-1.9-2.83s-1.11,1.24-1.93,2.75ZM203.27,198.04c-1.24,1.12-2.25,2.82-2.25,3.77,0,1.34,2,.42,8.75-4.02,8.8-5.79,12.01-8.62,10.97-9.67-.68-.68-14.3,7.06-17.47,9.92ZM228.68,174.9c-1.34-.26-1.74.15-1.49,1.49.42,2.19,3.33,2.5,3.33.36,0-.82-.83-1.65-1.84-1.84ZM235.42,96.77c-2.1.8-2.4,1.55-2.4,5.97,0,5.87,1.15,6.76,6.46,5.01,3.69-1.22,5.02-3.68,4.37-8.09-.4-2.73-4.83-4.25-8.43-2.88ZM240.6,112.48c-.42.41-.49,2.32-.18,4.25s.59,5.07.6,7c.02,2.63.27,3.13,1,2,1.18-1.83,1.33-14,.17-14-.46,0-1.17.34-1.59.75Z"/>
  <path class="cls-75" d="M184.02,153.73h-12c-2.33-.67-4.67-1.33-7-2,.67-1.67,1.33-3.33,2-5,1.67-2,3.33-4,5-6v-1c1.67-.67,3.33-1.33,5-2h1c.49-.15.98-.3,1.47-.46.81-.25,1.71-.03,2.53,1.46-.86,1.16-1.72,2.32-2.57,3.47-1.42,1.91-2.29,3.93-1.94,4.5.35.56,2.41,1.03,8.52,1.03-.67,2-1.33,4-2,6Z"/>
  <path class="cls-113" d="M195.02,172.73c.67-.33,1.33-.67,2-1-1.36,1.67-2.73,3.33-4.09,5-2.25,2.75-4.67,5-5.38,5s-2.47-1.58-6.53-7c.19-.33.39-.67.58-1,.32-.55,1.22-1,3.42-1h10Z"/>
  <path class="cls-159" d="M194.02,84.73c-.39-.81-.84-1.04-1.25-1.02-.25,0-.5.01-.75.02-.67-1-1.33-2-2-3-.33-.33-.67-.67-1-1-.33-3-.67-6-1-9v-.59c0-.33,1.91.55,4.25,1.94s8.19,4.36,21.75,10.66c0,1.44-1.01,2.01-2.25,2.18-3.59.51-2.64,2.12,3,5.07,1.75.92,3.5,1.83,5.25,2.75-.58.01-1.17.02-1.75.03-.58.01-1.17.02-1.75.03,1.17.98,2.33,1.96,3.5,2.94-13.3-6.39-14.15-7.11-13.08-8.4,1.71-2.07.78-3.2-4.6-5.58-4.71-2.09-6.47-1.73-7.76,1.55-.19.48-.37.95-.56,1.43Z"/>
  <path class="cls-118" d="M221.02,166.73c1.16-.07.71.15-.25.45-.58.18-1.17.36-1.75.55-.75-.28-1.5-.56-2.25-.84-1.24-.46-2.14-1.36-2-2,.14-.64-.44-1.16-1.28-1.16-1.99,0-8.47,6.47-8.47,8.45,0,.95-.93,1.53-5,1.55,2.2-2.67,4.39-5.33,6.59-8,7.13-8.65,9.14-9.55,13.41-6,.38.51.76,1.01,1.14,1.52.88,1.18.74,1.96-.65,3.5-1.02,1.13-1.3,1.98.52,1.98ZM215.52,164.73c-.27,0-.5.23-.5.5s.23.5.5.5.5-.23.5-.5-.23-.5-.5-.5Z"/>
  <path class="cls-30" d="M197.02,171.73c-.67.33-1.33.67-2,1-1-.67-2-1.33-3-2v-8c-.51-.58-1.01-1.15-1.52-1.73-.83-.95-1.29-2.3-.48-4.27h9.5c7.02,0,9.5.33,9.5,1.27,0,.7-2.7,4.08-12,13.73Z"/>
  <path class="cls-64" d="M194.02,116.73c-.21-.67-.41-1.33-.62-2-.36-1.17-.15-2,1.62-2h1c2.2.53,4.39,1.05,6.59,1.58,6.37,1.53,6.57,1.67,5.94,4.25-.35,1.47-1.29,3.23-3.53,5.17-.25,0-.5,0-.75,0-.41,0-.86.9-1.25,4.01h-2c-2.33-3.67-4.67-7.33-7-11Z"/>
  <path class="cls-187" d="M227.02,157.73c-1,.33-2,.67-3,1-.19-.33-.39-.67-.58-1-.32-.55-1.22-1-2-1s-1.42-.45-1.42-1-.99-1-2.2-1h-2.2c1.47-4,2.93-8,4.4-12l1-1c.15.08.3.17.45.25.25.14.7-.54,1.55-3.25.15.58.31,1.17.46,1.75.26.96.48,2.76.54,6.25-.19-.33-.39-.67-.58-1-.32-.55-1.24-1-2.05-1-1.14,0-1.31.8-.79,3.58.55,2.91,1.02,3.48,4.42,2.42v2.94c0,1.62.45,3.19,2,4.06Z"/>
  <path class="cls-137" d="M217.02,142.73c-.18.63-.37,1.26-.55,1.88-.31,1.04-1.14,2.69-1.86,3.67-1.19,1.62-1.63,1.27-8.59-9.55v-2c.02-1.25.03-2.5.05-3.75.04-2.95.25-3.38,1.95-.25v1.5c0,1,1,1.5,3,1.5,1.65,0,3-.45,3-2,.83-.2,1.67-.41,2.5-.61,1.88-.46,2.5-.21,2.5,2.61-.67,2.33-1.33,4.67-2,7Z"/>
  <path class="cls-84" d="M246.02,190.73v-.59c0-.33-1.12-1-5-2.41,0-.25-.02-.5-.02-.75-.01-.41,1.55-3.22,3.48-6.24,1.93-3.02,4.48-7.97,5.68-11,1.2-3.03,2.55-5.85,3.86-7.01.17.25.34.5.51.75.28.41,1.63,1.31,5.49,3.25,2.67,2.33,5.33,4.67,8,7-.25-.04-.5-.08-.75-.12-.41-.07-1.31.16-3.25,1.12-1.67-1.33-3.33-2.67-5-4-.51-.42-1.02-.83-1.53-1.25-2.11-1.72-3.97.9-2.66,3.75.5,1.1.71,3.61.45,5.58-.54,4.21-.82,3.89,12.34,14.14,17.72,13.8,21.7,16.73,36.4,26.79,2.36,2.08,4.71,4.17,7.07,6.25,9.7,8.57,22.09,14.92,22.93,11.75v-1h.65c.36,0,1.15,1.61,1.75,3.58.37,1.19.73,2.38,1.1,3.57.21-1.11.41-2.22.62-3.32.21-1.11.41-2.22.62-3.33.04,1.06.09,2.12.13,3.18.17,4.17-2.13,6.32-6.75,6.32-2.99,0-6.38-1.7-30.12-17-1.92-1.32-3.83-2.63-5.75-3.95-3.16-2.17-6.2-3.99-6.75-4.04-.55-.05-2.12-.97-3.5-2.05-2.88-2.25-22.6-15.95-35.17-24.42-2.02-1.36-3.93-2.94-4.83-4.55Z"/>
  <path class="cls-10" d="M280.02,183.73c4,3.33,8,6.67,12,10,0,.25,0,.5-.01.75,0,.41-2.26-.71-9.99-5.75-.92-1.05-1.83-2.1-2.75-3.15-1.94-2.23-2.24-2.96.75-1.85Z"/>
  <path class="cls-173" d="M274.02,182.73c-2.33-2-4.67-4-7-6,.19-.33.38-.65.58-.97,1.26-2.14,5.5,2.46,6.42,6.97Z"/>
  <path class="cls-167" d="M334.02,236.73v1c-.51-.42-1.02-.83-1.53-1.25-.51-.42-1.02-.83-1.53-1.25,1.02.5,2.04,1,3.07,1.5Z"/>
  <path class="cls-47" d="M304.02,219.73c-14.71-10.05-18.69-12.98-36.4-26.79-13.16-10.25-12.88-9.93-12.34-14.14.25-1.97.05-4.48-.45-5.58-1.3-2.85.56-5.47,2.66-3.75.51.42,1.02.83,1.53,1.25h-3c-.25.05-.5.1-.75.15-.41.08.94,1.65,6.75,6.85,3.58,2.88,7.17,5.76,10.75,8.64,5.91,4.75,14.35,11.86,18.75,15.79,8.36,7.47,14.27,12.1,18.5,14.48,1.38.78,5.09,3.59,14,11.09,2.33,2,4.67,4,7,6-.47-.08-.94-.17-1.41-.25-2.96-.52-10.58-5.83-16.06-11.18-3.14-3.06-6.35-5.57-7.15-5.57s-1.65.67-2.38,3Z"/>
  <path class="cls-161" d="M187.02,135.73c-1.33-1-2.67-2-4-3-.85-.19-1.7-.38-2.54-.57-1.93-.43-2.41-1.04-1.46-4.43.26-.33.52-.65.78-.98.43-.54,2.11-3.52,3.74-6.63,2.58-4.93,3.19-5.51,6.49-3.39h-.71c-.39,0-1.06,4.05-2.29,18v1Z"/>
  <path class="cls-154" d="M205.02,153.73h-9c-.21-.52-.42-1.05-.64-1.57-.36-.89.29-2.84,3.64-7.43l-.07-.75c-.04-.41.3-2.1.75-3.74.27-1,.54-2,.82-2.99,2.17,2.5,4.33,4.99,6.5,7.49.5,1.03,1,2.05,1.5,3.08,2.43,4.99,1.88,5.92-3.5,5.92Z"/>
  <path class="cls-163" d="M334.02,237.73c-.84,3.17-13.23-3.18-22.93-11.75-2.36-2.08-4.71-4.17-7.07-6.25.73-2.33,1.59-3,2.38-3s4.01,2.51,7.15,5.57c5.48,5.35,13.1,10.66,16.06,11.18.47.08.94.17,1.41.25l3,3c-1.02-.5-2.04-1-3.07-1.5.51.42,1.02.83,1.53,1.25.51.42,1.02.83,1.53,1.25Z"/>
  <path class="cls-99" d="M.02,7.73C9.71,3.97,15.64,2.33,19.46,1.67c20-3.48,47.45,4.31,61.34,17.4,6.45,6.08,9.69,10.91,12.59,18.79.71,1.92,1.41,3.84,2.12,5.76,6.48,4.52,12.95,9.05,19.43,13.57,18.26,12.76,19.64,13.53,23,12.93,7.9-1.41,25.27-7.89,37.17-13.86,4.2-2.11,8.4-4.21,12.6-6.32,4.47,2.27,8.93,4.54,13.4,6.8,16.14,8.19,30.46,13.13,46.18,15.92,3.91.69,7.81,1.38,11.72,2.08.67.33,1.33.67,2,1,6.81.45,7.55.91,7.75,2.75.08.75.17,1.5.25,2.25v29c-.33,2-.67,4-1,6v10c-.33.67-.67,1.33-1,2v7c-.33,1-.67,2-1,3-.33,3-.67,6-1,9-.33.67-.67,1.33-1,2v3c-.33.67-.67,1.33-1,2-.33,2-.67,4-1,6v3c2.33,2,4.67,4,7,6l2,2c2,1.67,4,3.33,6,5l3,3c1.67,1.33,3.33,2.67,5,4l3,3c1.67,1.33,3.33,2.67,5,4l2,2c2.33,2,4.67,4,7,6l2,2c1.67,1.33,3.33,2.67,5,4l2,2c2.33,2,4.67,4,7,6l4,4c2,1.67,4,3.33,6,5l3,3,7,7c.42.75.83,1.5,1.25,2.25.81,1.46-.41.77-8.25-6.25-7.67-6.67-15.33-13.33-23-20h-1c-3.08-2.93-6.17-5.86-9.25-8.79-5.09-4.84-11.39-10.46-18.75-16.21-.75-.64-1.5-1.29-2.25-1.93-1.24-1.06-4.11-3.65-6.38-5.75-2.27-2.1-5.76-5.29-11.37-10.32.68-3.39,1.35-6.79,2.03-10.18,3.17-15.88,4.95-34.82,4.97-52.82v-21.77c-1.58-.22-3.17-.43-4.75-.65-10.31-1.41-32.85-5.74-34.49-6.63-.96-.52-2.42-.94-3.26-.94s-2.31-.42-3.26-.93c-.95-.51-4.89-2.12-8.74-3.58-3.85-1.46-10.71-4.64-23.5-11.5h-1v-.73c0-.4,4.33,1.42,9.62,4.05,13.41,6.66,14.81,5.42,1.65-1.46-3.59-1.88-7.18-3.76-10.77-5.64-4,2.06-8,4.11-12,6.16-11.85,6.09-30.22,12.93-38,14.15-3.51.55-4.55.21-8.5-2.79-2.48-1.88-11.36-8.25-19.75-14.17-11.55-8.14-15.4-11.4-15.88-13.42-.34-1.46-2.21-5.73-4.15-9.47-5.93-11.45-18.32-20.6-34.72-25.65-7.31-2.25-23.5-4.2-23.5-2.83,0,.43,1.69.79,3.75.8,6.86.01,20.63,3.99,30.19,8.71,14.41,7.12,24.43,18.28,26.46,29.47.58,3.21,1.67,4.36,8.39,8.91,10.12,6.85,19.25,13.3,26.98,19.05,4.47,3.33,6.9,4.51,8.5,4.15,6.48-1.48,17.79-4.9,30.74-9.29l-6.75,2.99c-3.71,1.64-11.15,4.14-16.52,5.56-3.26.86-6.51,1.71-9.77,2.57-1.91-1.45-3.82-2.89-5.73-4.34-7.83-5.93-31.25-22.27-33.79-23.58-1.36-.7-2.47-2.82-3.25-6.2-1.64-7.12-5.33-12.99-12.09-19.24C64.35,9.74,38.17,2.27,19.4,5.72c-9.84,1.81-10.1,2.12-4.94,5.76,7.09,4.99,10.14,10.19,14.99,25.47,3.48,10.98,5.28,15.01,8.6,19.32,7.36,9.54,18.67,15.46,29.53,15.46,2.88,0,4.96,1.28,12.2,7.51,4.8,4.13,10.08,8.64,11.73,10.02,1.65,1.38,6.45,5.44,10.66,9,2.55,2.16,5.1,4.32,7.66,6.49.19,3.25.38,6.49.57,9.74.31,5.36.81,12.11,1.62,20.24.18,2.2.36,4.4.54,6.6,1.43,17.54,9.02,37.56,19.58,51.66,2.67,3.56,9,10.47,14.07,15.35,5.07,4.88,8.23,8.32,4.82,6.38h-1c-1.33-1.33-2.67-2.67-4-4-3.33-3.33-6.67-6.67-10-10l-3-3c-8.75-12.79-12.39-18.95-13.72-21.95-6.08-13.64-10.57-32.96-11.71-50.34-.19-2.9-.38-5.81-.57-8.71-.33-.67-.67-1.33-1-2-.06-7.3-.82-8.18-14.65-20.5-8.02-7.15-15.21-13.56-15.97-14.25-.46-.42-.92-.83-1.38-1.25l-2-2c-1.86-1.55-3.88-2-5.7-2h-3.3c-.67-.33-1.33-.67-2-1-12.79-3.61-14.82-4.83-20.46-10.11-7.32-6.84-12.75-16.64-16.03-28.89-.96-3.57-2.57-8.13-3.58-10.13-2.53-4.97-9.87-11.2-15.91-13.5C2.28,10.06.02,8.87.02,8.47v-.73ZM15.35,14.73c.18,0,.63.3,1,.67.37.37.67.39.67.06s-.45-.89-1-1.23-1-.37-1-.06.15.56.33.56ZM6.02,7.73c-.55,0-1,.45-1,1s.45,1,1,1,1-.45,1-1-.45-1-1-1ZM16.52,3.88c-.28.08-.05.15.5.15s.78-.07.5-.15c-.17-.05-.33-.1-.5-.15-.17.05-.33.1-.5.15ZM19.02,17.23c-1.1-.99-2-1.36-2-.81s.9,1.82,2,2.81,2,1.36,2,.81-.9-1.82-2-2.81ZM23.77,2.87c-1.51-.07-2.75.09-2.75.36,0,.61.89.65,3.5.15,1.39-.26,1.16-.42-.75-.52ZM22.55,22.17c-1.88-2.49-1.9-.71-.03,2.56.92,1.6,1.44,1.94,1.46.94.02-.86-.63-2.43-1.43-3.5ZM29.52,2.73c.34-.55.39-1,.12-1s-.78.45-1.12,1-.39,1-.12,1,.78-.45,1.12-1ZM104.52,102.73c-.27,0-.5.23-.5.5s.23.5.5.5.5-.23.5-.5-.23-.5-.5-.5ZM105.52,103.73c-.27,0-.5.23-.5.5s.23.5.5.5.5-.23.5-.5-.23-.5-.5-.5ZM209.52,62.73c-.27,0-.5.23-.5.5s.23.5.5.5.5-.23.5-.5-.23-.5-.5-.5ZM211.52,63.88c-.27.08-.05.15.5.15s.77-.07.5-.15c-.17-.05-.33-.1-.5-.15-.17.05-.33.1-.5.15ZM216.52,65.88c-.27.08-.05.15.5.15s.77-.07.5-.15c-.17-.05-.33-.1-.5-.15-.17.05-.33.1-.5.15ZM219.77,66.81c-.96-.04-1.75.15-1.75.42,0,.61,1.15.65,2.5.08.55-.23.21-.46-.75-.5Z"/>
  <path class="cls-5" d="M166.02,64.73c-12.95,4.4-24.26,7.82-30.74,9.29-1.6.37-4.03-.82-8.5-4.15-7.73-5.75-16.86-12.2-26.98-19.05-6.72-4.55-7.8-5.7-8.39-8.91-2.03-11.2-12.05-22.35-26.46-29.47-9.56-4.72-23.33-8.69-30.19-8.71-2.06,0-3.75-.36-3.75-.8,0-1.37,16.19.58,23.5,2.83,16.4,5.05,28.79,14.2,34.72,25.65,1.94,3.74,3.81,8.01,4.15,9.47.47,2.02,4.33,5.27,15.88,13.42,8.39,5.91,17.28,12.29,19.75,14.17,3.95,2.99,4.99,3.34,8.5,2.79,7.78-1.22,26.15-8.06,38-14.15,4-2.05,8-4.11,12-6.16,3.59,1.88,7.18,3.76,10.77,5.64,13.15,6.88,11.75,8.12-1.65,1.46-5.29-2.63-9.62-4.45-9.62-4.05v.73l-2,2c-6.33,2.67-12.67,5.33-19,8Z"/>
  <path class="cls-177" d="M34.52,25.73c.28,0,.5.23.5.5s-.22.5-.5.5-.5-.23-.5-.5.22-.5.5-.5Z"/>
  <path class="cls-2" d="M123.02,143.73v4.89c0,3.63-2.79,3.01-4-.89-.35-1.78-.69-3.56-1.04-5.34-.57-2.94-1.69-9.91-3.96-25.66-.08-5.73-.17-11.45-.25-17.18s-.17-11.45-.25-17.18c3.83-.56,7.67-1.12,11.5-1.69,18.48-2.71,34.19-7.38,47-13.95,5.33-2.67,10.67-5.33,16-8,1.75,1.15,3.5,2.3,5.25,3.45,2.89,1.9,7.73,4.6,10.75,6.01,3.02,1.41,4.38,2.28,3,1.95-1.38-.34-4.64-.79-12-1.41-1.18-.5-2.35-1-3.53-1.5-3.43-1.45-3.74-1.39-10.75,2.15-3.97,2.01-11.61,5.38-26.72,11.35h-1c-.67.33-1.33.67-2,1h-1c-2,.67-4,1.33-6,2h-1c-1.33.33-2.67.67-4,1h-4c-.67.33-1.33.67-2,1h-1c-1,.33-2,.67-3,1h-2c-2,.33-4,.67-6,1h-1c-.33,4.67-.67,9.33-1,14,.33,2.67.67,5.33,1,8v12c.33,2,.67,4,1,6v5c.33,1,.67,2,1,3v5c.33,1,.67,2,1,3Z"/>
  <path class="cls-12" d="M114.02,116.73c2.27,15.75,3.4,22.73,3.96,25.66.35,1.78.69,3.56,1.04,5.34h-1c-.46-2.42-.93-4.83-1.39-7.25-.76-3.99-1.66-10.96-2.61-23.75Z"/>
  <path class="cls-22" d="M125.02,131.73c.33,1.33.67,2.67,1,4v1c.33,1.67.67,3.33,1,5,.33.67.67,1.33,1,2v8c-.25,0-.5,0-.75.01-.41,0-.92-.55-1.13-1.25-.3-1-.46-1.01-1.12,1.24-.67-1.67-1.33-3.33-2-5v-3c-.33-1-.67-2-1-3v-5c-.33-1-.67-2-1-3v-5c-.33-2-.67-4-1-6v-12c-.33-2.67-.67-5.33-1-8,.33-4.67.67-9.33,1-14,1.08.13,2.17.26,3.25.39,1.08.13,2.17.26,3.25.39-1.83-.26-3.67-.52-5.5-.78,2-.33,4-.67,6-1,.75.16,1.5.32,2.25.47s1.5.32,2.25.47c-.83-.32-1.67-.63-2.5-.95,1-.33,2-.67,3-1,.92.16,1.83.31,2.75.47.92.16,1.83.31,2.75.47-.83-.31-1.67-.62-2.5-.94v-1h3c.58.16,1.17.32,1.75.48.58.16,1.17.32,1.75.48-.83-.32-1.67-.64-2.5-.96,1.33-.33,2.67-.67,4-1h1c2-.67,4-1.33,6-2h1c.67-.33,1.33-.67,2-1h1c15.11-5.97,22.75-9.34,26.72-11.35,7.01-3.54,7.32-3.6,10.75-2.15,1.18.5,2.35,1,3.53,1.5,4.67,2.33,9.33,4.67,14,7,.33.33.67.67,1,1,2.33.67,4.67,1.33,7,2v1l-3,3c-13.56-6.3-19.41-9.27-21.75-10.66s-4.25-2.26-4.25-1.94v.59c-5,2.33-10,4.67-15,7h-1l-1,1h-1c-4.33,1.67-8.67,3.33-13,5-.92.36-1.83.72-2.75,1.08-3.6,1.41-22.76,5.71-27.25,6.11-1.17.1-2.33.21-3.5.31.11,4.33.23,8.67.34,13,.19,7.15.75,16.04,2.16,26.5-.33.33-.67.67-1,1ZM124.87,145.23c-.08-.27-.15-.05-.15.5s.07.77.15.5c.05-.17.1-.33.15-.5-.05-.17-.1-.33-.15-.5Z"/>
  <path class="cls-22" d="M130.02,159.73c.67,1.67,1.33,3.33,2,5-.42.55-.83,1.1-1.25,1.66-.86,1.14-.88,1.45-.08.99.72-.41,1.6.58,2.29,2.6,1.19,3.49,6.48,10.27,6.04,7.76l3,3v3c-.25.02-.5.05-.75.07-.41.04-1.84-1.42-3.17-3.25-.81-1.11-1.61-2.21-2.42-3.32.6,1.26,1.2,2.52,1.8,3.77.99,2.08,2.19,3.99,3.53,4.73v1c-.67-.33-1.33-.67-2-1-.89-1.42-1.79-2.83-2.68-4.25-4.48-7.09-9.06-18.73-11.32-28.75.21.58.43,1.17.64,1.75.51,1.4.74,1.46,1.15.3.33-.95.96-.36,3.21,4.95ZM127.87,158.23c-.08-.27-.15-.05-.15.5s.07.77.15.5c.05-.17.1-.33.15-.5-.05-.17-.1-.33-.15-.5Z"/>
  <path class="cls-151" d="M120.02,87.73h1c1.83.26,3.67.52,5.5.78-1.08-.13-2.17-.26-3.25-.39-1.08-.13-2.17-.26-3.25-.39Z"/>
  <path class="cls-105" d="M119.02,147.73c1.21,3.9,4,4.53,4,.89v-1.89c.67,1.67,1.33,3.33,2,5v1c2.26,10.02,6.84,21.66,11.32,28.75.89,1.42,1.79,2.83,2.68,4.25.91,1.25,1.83,2.5,2.74,3.75,2.7,3.69,2.71,3.75.57,3.86-1.62.08-3.3-1.57-6.6-6.5-7.47-11.17-8.05-12.18-13.71-24.11-.2-.75-.39-1.5-.59-2.25-.32-1.24-1.22-4.61-3.41-12.75h1Z"/>
  <path class="cls-57" d="M135.02,120.73c0,10.54-2.02,12.47-2.62,2.5-.13-2.17-.26-4.33-.38-6.5v-1.29c0-.71-.9-1.29-2-1.29-1.77,0-2,.67-2,11.57-.03,1.75-.06,3.5-.09,5.25-.08,4.56-.21,4.89-1.91-.25-1.41-10.46-1.97-19.35-2.16-26.5-.11-4.33-.23-8.67-.34-13,1.17-.1,2.33-.21,3.5-.31,4.49-.4,23.65-4.7,27.25-6.11.92-.36,1.83-.72,2.75-1.08,5.04-.76,7.96-1.88,9.75-2.99,1.08-.67,2.17-1.34,3.25-2.01h1l1-1h1c-.33,1-.67,2-1,3-12.37,4.99-16.03,7.05-16.27,9.15-.08.69-.15,1.38-.23,2.07,1.98-.62,3.95-1.24,5.93-1.86,7.48-2.35,6.85-.36-1.02,3.2-1.8.81-3.6,1.63-5.41,2.44,1.25-.77,2.5-1.55,3.75-2.32s2.5-1.55,3.75-2.32c-4.83,1.21-9.67,2.43-14.5,3.64-.58.32-1.17.65-1.75.97-.96.53-1.19.98.75,1.03h4c-5.09,2.47-6.06,3.81-6.55,6.39-.74,3.98-1.76,5.05-5.65,5.98-2.31.55-2.77,1.28-3.25,5.14-.18,1.5-.37,3-.55,4.49v-2.94c0-1.62-.45-3.22-1-3.56-.64-.39-.95,2.04-.87,6.69.11,6.11.27,6.77,1.87.81v1ZM136.04,98.73c-2.25,0-3.02.46-3.02,1.81,0,2.62,2.1,4.86,5.25,5.59,3.06.71,3.46-.39,1.77-4.83-.75-1.97-1.67-2.57-4-2.57Z"/>
  <path class="cls-131" d="M130.02,157.73v2c-2.24-5.31-2.87-5.9-3.21-4.95-.4,1.16-.63,1.1-1.15-.3-.21-.58-.43-1.17-.64-1.75v-1c.66-2.24.81-2.24,1.12-1.24.21.7.72,1.26,1.13,1.25.25,0,.5,0,.75-.01v1c.33.33.67.67,1,1v3c.33.33.67.67,1,1Z"/>
  <path class="cls-151" d="M127.02,86.73h2c.83.32,1.67.63,2.5.95-.75-.16-1.5-.32-2.25-.47s-1.5-.32-2.25-.47Z"/>
  <path class="cls-52" d="M132.02,116.73c-2.21,5.04-3.11,7.29-3.42,8.25-.19.58-.38,1.17-.58,1.75v-1c0-10.9.23-11.57,2-11.57,1.1,0,2,.58,2,1.29v1.29Z"/>
  <path class="cls-151" d="M138.02,175.73c.33.67.67,1.33,1,2,.43,2.51-4.85-4.27-6.04-7.76-.69-2.02-1.56-3.01-2.29-2.6-.8.46-.78.15.08-.99.42-.55.83-1.1,1.25-1.66v1c.33.33.67.67,1,1v1c.33.33.67.67,1,1l3,6c.33.33.67.67,1,1Z"/>
  <path class="cls-151" d="M132.02,85.73h3c.83.31,1.67.62,2.5.94-.92-.16-1.83-.31-2.75-.47-.92-.16-1.83-.31-2.75-.47Z"/>
  <path class="cls-155" d="M133.02,85.73c.67-.33,1.33-.67,2-1v1h-2Z"/>
  <path class="cls-20" d="M135.02,118.73v1c-1.59,5.96-1.76,5.3-1.87-.81-.08-4.65.23-7.08.87-6.69.55.34,1,1.94,1,3.56v2.94Z"/>
  <path class="cls-131" d="M142.02,183.73c-.33.67-.67,1.33-1,2-1.34-.74-2.54-2.65-3.53-4.73-.6-1.26-1.2-2.52-1.8-3.77.81,1.11,1.61,2.21,2.42,3.32,1.33,1.83,2.76,3.29,3.17,3.25.25-.02.5-.05.75-.07Z"/>
  <path class="cls-131" d="M138.02,84.73h1c.83.32,1.67.64,2.5.96-.58-.16-1.17-.32-1.75-.48-.58-.16-1.17-.32-1.75-.48Z"/>
  <path class="cls-63" d="M149.02,169.73c-1.39,0-2.74-1.81-3.9-4.03-1.95-3.74-2.09-5.51-1.98-24.75.07-11.39.4-22.06.76-23.69.57-2.66,2.78-4.14,21.13-14.19,11.27-6.17,21.06-11.47,21.74-11.78.42-.19.83-.37,1.25-.56h2c1.49,1.22,1.72,2.57,1.46,3.79-.15.74-.31,1.48-.46,2.21-.75-.17-1.5-.33-2.25-.5-1.6-.36-7.77,2.65-40.75,21.5h-1v25c.33,1.33.67,2.67,1,4v15.72c0,.4,1.35.17,6-1.72-.38.62-.77,1.24-1.15,1.86-1.03,1.66-.75,1.93,6.15,3.14,1.67-.33,3.33-.67,5-1,.33-1,.67-2,1-3h1c1.67,2,3.33,4,5,6v1c-.83.2-1.67.41-2.5.61-1.38.33-2.5,1.01-2.5,2.39-2.79-2.28-5.71-3.73-8.3-4.69-4.51-1.67-4.7-1.67-4.7.07,0,1.01-.89,1.99-2,2.22-.67.14-1.33.27-2,.41Z"/>
  <path class="cls-6" d="M145.02,173.73h3c.39,3.88.16,5-.25,5h-.75v-1c.2-.53.39-1.06.59-1.59.43-1.15.15-1.43-2.59-.41h-1c.33-.67.67-1.33,1-2Z"/>
  <path class="cls-38" d="M147.02,178.73l-3-3h1c.67.67,1.33,1.33,2,2v1Z"/>
  <path class="cls-114" d="M147.02,96.73c-1.94-.05-1.71-.5-.75-1.03.58-.32,1.17-.65,1.75-.97-.33.67-.67,1.33-1,2Z"/>
  <path class="cls-26" d="M145.02,175.73c2.74-1.02,3.02-.74,2.59.41-.2.53-.39,1.06-.59,1.59-.67-.67-1.33-1.33-2-2Z"/>
  <path class="cls-126" d="M155.02,95.73c-1.33.33-2.67.67-4,1h-4c.33-.67.67-1.33,1-2,4.83-1.21,9.67-2.43,14.5-3.64-1.25.77-2.5,1.55-3.75,2.32s-2.5,1.55-3.75,2.32ZM150.52,94.88c-.27.08-.05.15.5.15s.77-.07.5-.15c-.17-.05-.33-.1-.5-.15-.17.05-.33.1-.5.15Z"/>
  <path class="cls-144" d="M147.02,117.73h1v29c-.33-1.33-.67-2.67-1-4v-25Z"/>
  <path class="cls-79" d="M191.02,96.73c2.33,1.33,4.67,2.67,7,4,1.2.92,2.4,1.83,3.6,2.75,2.88,2.2,3.17,2.7,1.47,2.51-1.88-.21-2,.02-1.05,2,.36.75.72,1.5,1.08,2.24-1.01-.77-2.03-1.55-3.04-2.33-1.68-1.28-3.05-2.91-3.05-3.63s-1.38-1.87-3.06-2.57c-3.73-1.54-5.24-.4-4.77,3.62.26,2.27.98,3,6.83,4.4h1c1,.33,2,.67,3,1h1c2.33.67,4.67,1.33,7,2h1c1,.33,2,.67,3,1h2c.92.06,1.83.12,2.75.18.92.06,1.83.12,2.75.18.17-.12.33-.24.5-.36.92.66,1.83,1.33,2.75,1.99,2.65,1.92,2.67,1.99-1.75,2.01h-1c-.67-.33-1.33-.67-2-1-7.33-1.33-14.67-2.67-22-4h-1c-.73-.2-1.47-.4-2.2-.6-2.06-.56-2.12-.43.2,4.6.98,1.75,1.95,3.5,2.92,5.25,7.21,12.94,8.14,15,7.08,15.75-2-2.67-4-5.33-6-8-.39-.92-.78-1.83-1.17-2.75-.64-1.51-2.22-4.44-5.83-10.25-3.3-2.12-3.91-1.54-6.49,3.39-1.63,3.11-3.31,6.1-3.74,6.63-.26.33-.52.65-.78.98-.4.75-.81,1.5-1.21,2.25-.67,1.24-2.24,3.94-5.79,9.75v1c-1.67,2-3.33,4-5,6-.67,1.67-1.33,3.33-2,5-.19.33-.39.67-.58,1-.35.6,1.05,1,7.58,1h14c.67.67,1.33,1.33,2,2h-25c-.33-.67-.67-1.33-1-2s-.67-1.33-1-2c-.67,1.67-1.33,3.33-2,5-.25-.03-.5-.06-.75-.08-.41-.05-.86-.27-1.25-.92.37-.3.74-.61,1.11-.91.37-.3.74-.61,1.11-.91-.74-2.39-1.48-4.79-2.22-7.18-.33-.33-.67-.67-1-1-.33-1.33-.67-2.67-1-4-.33-.67-.67-1.33-1-2-.33-1.33-.67-2.67-1-4-.36-1.17-.72-2.34-1.08-3.51-.59-1.93-1.44-3.29-1.87-3.02-1.15.71-1.24,12.53-.09,12.53.53,0,1.1,1.23,1.26,2.73.26,2.42.09,2.59-3.21.27v-27c32.98-18.85,39.15-21.86,40.75-21.5.75.17,1.5.33,2.25.5ZM165.02,144.73c2.67-4.67,5.33-9.33,8-14,6.98-11.92,9-15.98,9-16.73,0-1.08-1.63-.96-8.25.61-4.54,1.08-9.71,2.22-11.5,2.54-1.08.19-2.17.39-3.25.58-2.33.33-4.67.67-7,1,0,3.8.4,5.94.9,7.2.49,1.26,1.37,4.1,1.95,6.3.58,2.2,1.75,5.91,2.6,8.25.52,1.42,1.03,2.83,1.55,4.25.37,1.08.74,2.17,1.11,3.25.37,1.08.74,2.17,1.11,3.25,1.26-2.17,2.52-4.33,3.79-6.5ZM149.97,121.73c-.72,0-.73.55-.03,1.75.34.58.68,1.17,1.02,1.75.01-.58.02-1.17.03-1.75.02-.96-.44-1.75-1.02-1.75ZM156.77,115.81c-.96-.04-1.75.15-1.75.42,0,.61,1.15.65,2.5.08.55-.23.21-.46-.75-.5ZM186.36,109.43c-.74.28-1.34,1.38-1.34,2.43,0,1.83.12,1.84,2.56.24,1.79-1.18,2.19-1.9,1.34-2.43-.67-.41-1.82-.52-2.56-.24ZM189.52,111.73c-.27,0-.5.23-.5.5s.23.5.5.5.5-.23.5-.5-.23-.5-.5-.5Z"/>
  <path class="cls-79" d="M152.02,139.73h1c.33.67.67,1.33,1,2v2c-.48-.46-.97-.92-1.45-1.38-.8-.76-1.25-1.66-.55-2.62Z"/>
  <path class="cls-90" d="M148.02,161.73v-17c3.3,2.33,3.47,2.16,3.21-.27-.16-1.5-.72-2.73-1.26-2.73-1.14,0-1.06-11.82.09-12.53.43-.27,1.27,1.09,1.87,3.02.36,1.17.72,2.34,1.08,3.51-.24-.42-.48-.83-.71-1.25-.44-.76-1.11.28-1.72,2.7-.78,3.06-.73,3.79,1.44,2.55-.7.96-.25,1.86.55,2.62.48.46.97.92,1.45,1.38-.64.82-1.27,1.63-1.91,2.45-1.32,1.69-1.94,4.16-2.09,13.55-.67.67-1.33,1.33-2,2Z"/>
  <path class="cls-90" d="M154.02,139.73c.33.67.67,1.33,1,2h-1c-.33-.67-.67-1.33-1-2h1Z"/>
  <path class="cls-123" d="M154.02,143.73v-2h1c.33,1.33.67,2.67,1,4-.67.52-1.33,1.04-2,1.56-1.1.86-2,2.53-2,3.72,0,1.94.26,1.83,5-4.28.74,2.39,1.48,4.79,2.22,7.18-.37.3-.74.61-1.11.91-.37.3-.74.6-1.11.91-2.33,1.33-4.67,2.67-7,4,.15-9.39.77-11.86,2.09-13.55.64-.82,1.27-1.63,1.91-2.45Z"/>
  <path class="cls-77" d="M153.02,139.73h-1c-2.17,1.24-2.22.5-1.44-2.55.62-2.41,1.29-3.46,1.72-2.7.24.42.48.83.71,1.25.33,1.33.67,2.67,1,4h-1Z"/>
  <path class="cls-125" d="M338.02,230.73c7.08,8.91,6.54,16.75-1.3,18.81-4.64,1.22-9.89-.28-17.5-4.99-7.37-4.57-32.25-20.75-41.7-27.12-3.3-2.23-8.02-5.4-10.5-7.05-2.48-1.65-8.17-5.62-12.66-8.82-4.48-3.2-8.58-5.82-9.1-5.82s-5.4,4.42-10.85,9.83c-5.44,5.4-13.95,12.69-18.9,16.19-11.82,8.36-26.97,16.36-29.65,15.65-4.15-1.09-23.88-13.08-29.28-17.8-1.85-1.62-3.71-3.25-5.57-4.87,3.41,1.94.26-1.5-4.82-6.38-5.07-4.89-11.4-11.79-14.07-15.35-10.56-14.1-18.15-34.12-19.58-51.66-.18-2.2-.36-4.4-.54-6.6.51,2.99,1.01,5.97,1.52,8.96,1.8,10.58,4.54,19.91,8.69,29.54,9.25,21.46,30.37,42.54,58.05,57.93,2.25,1.25,4.51,2.51,6.76,3.76,2.08-1.08,4.16-2.15,6.24-3.23,7.55-3.91,18.45-10.85,25.24-16.07,7.73-5.95,20.43-18.12,21.8-20.9.68-1.38,2.24-2.84,5.7-4,.9,1.61,2.82,3.19,4.83,4.55,12.57,8.47,32.29,22.16,35.17,24.42,1.38,1.08,2.95,2,3.5,2.05.55.05,3.59,1.86,6.75,4.04,1.92,1.32,3.83,2.63,5.75,3.95,3.25,2.29,6.5,4.58,9.75,6.87,5.36,3.78,11.38,7.83,13.37,9,4.31,2.54,9.56,2.74,12.75.51,2.01-1.41,2.24-2.19,1.13-10.38l-3-3-3-3c-.67-1-1.33-2-2-3,7.84,7.02,9.06,7.71,8.25,6.25-.42-.75-.83-1.5-1.25-2.25ZM155.52,216.73c-.27,0-.5.23-.5.5s.23.5.5.5.5-.23.5-.5-.23-.5-.5-.5ZM156.52,217.73c-.27,0-.5.23-.5.5s.23.5.5.5.5-.23.5-.5-.23-.5-.5-.5ZM159.85,219.97c-1.78-1.78-3.32-1.53-1.81.3.7.84,1.67,1.4,2.16,1.24.49-.16.33-.85-.35-1.53ZM161.52,221.73c-.27,0-.5.23-.5.5s.23.5.5.5.5-.23.5-.5-.23-.5-.5-.5Z"/>
  <path class="cls-24" d="M156.02,145.73c.33.33.67.67,1,1-4.74,6.11-5,6.22-5,4.28,0-1.19.9-2.87,2-3.72.67-.52,1.33-1.04,2-1.56Z"/>
  <path class="cls-147" d="M162.02,153.73c.33.67.67,1.33,1,2-1.33.33-2.67.67-4,1,.67-1.67,1.33-3.33,2-5,.33.67.67,1.33,1,2Z"/>
  <path class="cls-25" d="M162.02,158.73h-3v-.67c0-.37.68-.59,3-.33v1Z"/>
  <path class="cls-40" d="M164.02,164.73c-1.67.33-3.33.67-5,1,.16-.51.32-1.03.49-1.54.38-1.2.93-1.31,4.51.54Z"/>
  <path class="cls-104" d="M165.02,151.73c2.33.67,4.67,1.33,7,2-6.53,0-7.93-.4-7.58-1,.19-.33.39-.67.58-1Z"/>
  <path class="cls-73" d="M182.02,181.73c-2.52-1.9-5-3.03-7.13-3.73-1.29-.42-2.58-.85-3.87-1.27-.7-.67-1.41-1.33-2.11-2-3.11-2.94-.42-2.61,8.11,1h.67c.37,0,1.49,1.35,4.33,6Z"/>
  <path class="cls-135" d="M187.02,87.73c-7.44-7.9-8.1-8.21-11.39-7.63-1.2.21-2.41.42-3.61.63.33-1,.67-2,1-3,5-2.33,10-4.67,15-7,.33,3,.67,6,1,9-.25-.04-.5-.08-.75-.11-.41-.06-1.43.56-2.25,1.38-1.33,1.33-1.3,1.68,2,4.73-.33.67-.67,1.33-1,2Z"/>
  <path class="cls-97" d="M177.02,137.73c-1.67.67-3.33,1.33-5,2,3.54-5.81,5.12-8.51,5.79-9.75.4-.75.81-1.5,1.21-2.25-.96,3.39-.48,4,1.46,4.43.85.19,1.7.38,2.54.57-.75.08-1.5.17-2.25.25-1.31.14-2.56,1.19-3.75,4.75Z"/>
  <path class="cls-108" d="M178.02,137.73h-1c1.19-3.56,2.44-4.61,3.75-4.75.75-.08,1.5-.17,2.25-.25,1.33,1,2.67,2,4,3v2c-.85,1.08-1.7,2.17-2.55,3.25-2.3,2.93-2.37,3.28-.75,3.6.99.19,2.14.75,3.3,2.15-.33.33-.67.67-1,1-6.11,0-8.17-.46-8.52-1.03-.35-.57.52-2.59,1.94-4.5.86-1.16,1.72-2.32,2.57-3.47.21-.58.41-1.16.62-1.73.55-1.55.34-1.6-4.62.73ZM180.02,144.73c-.55,0-1,.45-1,1s.45,1,1,1,1-.45,1-1-.45-1-1-1ZM183.29,133.98c-.86-.28-.77.45.3,2.42,1.46,2.69,1.52,2.71,1.23.4-.17-1.33-.85-2.6-1.53-2.83Z"/>
  <path class="cls-100" d="M182.02,138.73c-.82-1.48-1.73-1.71-2.53-1.46-.49.15-.98.3-1.47.46,4.96-2.34,5.17-2.28,4.62-.73-.21.58-.41,1.16-.62,1.73Z"/>
  <path class="cls-70" d="M187.02,146.73c-1.16-1.4-2.31-1.96-3.3-2.15-1.62-.31-1.55-.66.75-3.6.85-1.08,1.7-2.17,2.55-3.25.02.25.04.5.06.75.03.41-.57,1.62-1.34,2.69-1.17,1.62-1.18,2.23,1.27,5.56Z"/>
  <path class="cls-174" d="M184.02,153.73c.67-2,1.33-4,2-6,.33-.33.67-.67,1-1-2.46-3.33-2.45-3.94-1.27-5.56.77-1.07,1.37-2.28,1.34-2.69-.02-.25-.04-.5-.06-.75v-3h2v8l.75,2.25c.44,1.31,1.69,2.36,5.25,2.75,1.33-1,2.67-2,4-3-3.34,4.59-3.99,6.54-3.64,7.43.21.52.42,1.05.64,1.57h-12Z"/>
  <path class="cls-183" d="M191.02,172.73h-6c-.36-1.51-.73-3.03-1.09-4.54-.83-3.44-.8-4.89.12-6,1.7-2.05,5.14-1.82,7.97.54v8c-.33.67-.67,1.33-1,2Z"/>
  <path class="cls-172" d="M189.02,79.73c.33.33.67.67,1,1,.04.25.09.5.13.75.07.41-.38,1.54-2.13,4.25-3.3-3.05-3.33-3.4-2-4.73.82-.82,1.84-1.45,2.25-1.38.25.04.5.08.75.11Z"/>
  <path class="cls-157" d="M187.02,54.73h1c.33,1.33.67,2.67,1,4h-1c-5.33,2.67-10.67,5.33-16,8,2.17-1.17,4.33-2.34,6.5-3.51,3.57-1.93,6.5-4.18,6.5-6.49l2-2Z"/>
  <path class="cls-152" d="M188.87,83.41c-1.47,1.77-3.15.26-2.27-2.03.51-1.32.96-1.44,2.04-.54,1.08.9,1.13,1.48.23,2.57Z"/>
  <path class="cls-162" d="M196.02,153.73h9c2,.33,4,.67,6,1v1h-23c-.67-.67-1.33-1.33-2-2h10Z"/>
  <path class="cls-188" d="M198.02,100.73c12.76,7.36,17.71,10.06,19.23,10.75.92.42,1.84.83,2.77,1.25v1c-.17.12-.33.24-.5.36-.92-.06-1.83-.12-2.75-.18-.92-.06-1.83-.12-2.75-.18h-2c-1-.33-2-.67-3-1,.58-.1,1.17-.2,1.75-.29,1.52-.25,1.46-.45-.43-1.5-1.2-.66-2.96-.9-3.93-.53-1.62.62-1.63.73,1.6,2.32-2.33-.67-4.67-1.33-7-2h-1c-1-.33-2-.67-3-1,.58-.01,1.17-.03,1.75-.04,1.5-.04,1.43-.29-.46-1.75-2.09-1.61-2.21-1.61-2.29,1.79-5.85-1.41-6.57-2.14-6.83-4.4-.46-4.02,1.04-5.16,4.77-3.62,1.68.7,3.06,1.85,3.06,2.57s1.37,2.35,3.05,3.63c1.01.78,2.03,1.55,3.04,2.33-.36-.75-.72-1.5-1.08-2.24-.95-1.98-.83-2.21,1.05-2,1.71.2,1.41-.3-1.47-2.51-1.2-.92-2.4-1.83-3.6-2.75ZM206.52,106.88c-.17-.05-.33-.1-.5-.15-.17.05-.33.1-.5.15-.27.08-.05.15.5.15s.77-.07.5-.15ZM208.52,107.88c-.17-.05-.33-.1-.5-.15-.17.05-.33.1-.5.15-.27.08-.05.15.5.15s.77-.07.5-.15ZM210.52,108.88c-.17-.05-.33-.1-.5-.15-.17.05-.33.1-.5.15-.27.08-.05.15.5.15s.77-.07.5-.15Z"/>
  <path class="cls-140" d="M195.02,147.73c-3.56-.39-4.81-1.44-5.25-2.75l-.75-2.25v-8c.4-.33.8-.67,1.2-1,.66-.55,2.23-1,5.8-1,.39.52.77,1.03,1.16,1.55,2.05,2.73.93,9.68-2.16,13.45ZM192.02,137.73h-1c.33,1.33.67,2.67,1,4v1.57c0,.99.56,1.36,3,.43.33-1,.67-2,1-3v-1c-.33-.67-.67-1.33-1-2l-2-2c-.33.67-.67,1.33-1,2Z"/>
  <path class="cls-149" d="M192.02,83.73c-1.67,1.33-3.33,2.67-5,4,.33-.67.67-1.33,1-2,1.76-2.71,2.2-3.84,2.13-4.25-.04-.25-.09-.5-.13-.75.67,1,1.33,2,2,3Z"/>
  <path class="cls-49" d="M195.02,112.73c-1.77,0-1.98.83-1.62,2,.21.67.41,1.33.62,2h-1c-2.33-5.02-2.26-5.15-.2-4.6.73.2,1.47.4,2.2.6Z"/>
  <path class="cls-119" d="M195.02,172.73h-4c.33-.67.67-1.33,1-2,1,.67,2,1.33,3,2Z"/>
  <path class="cls-9" d="M210.02,76.73c-.33-.33-.67-.67-1-1-4.67-2.33-9.33-4.67-14-7,7.36.61,10.62,1.07,12,1.41,1.38.34.02-.54-3-1.95-3.02-1.41-7.86-4.11-10.75-6.01-1.75-1.15-3.5-2.3-5.25-3.45h1c4.91,2.5,9.82,5,14.72,7.5,8.1,4.12,15.72,7.5,16.94,7.5s2.47.4,2.77.9c.31.49,2.81,1.39,10.56,3.1,3.92.87,7.83,1.74,11.75,2.62,16.18,3.6,16.95,4.44,4.25,4.66-9.18.16-11.91-.22-33-6.28-2.33-.67-4.67-1.33-7-2ZM210.52,70.88c-.17-.05-.33-.1-.5-.15-.17.05-.33.1-.5.15-.27.08-.05.15.5.15s.77-.07.5-.15Z"/>
  <path class="cls-115" d="M197.02,109.73h-1c.07-3.4.2-3.41,2.29-1.79,1.89,1.46,1.96,1.71.46,1.75-.58.01-1.17.03-1.75.04Z"/>
  <path class="cls-127" d="M207.02,144.73c-2.17-2.5-4.33-4.99-6.5-7.49-.27,1-.54,2-.82,2.99-.45,1.65-.79,3.33-.75,3.74l.07.75c-1.33,1-2.67,2-4,3,3.09-3.77,4.21-10.72,2.16-13.45-.39-.52-.77-1.03-1.16-1.55h.67c.37,0,.59-.67.33-3,2,2.67,4,5.33,6,8,.33.67.67,1.33,1,2,1,1.67,2,3.33,3,5Z"/>
  <path class="cls-8" d="M219.02,167.73c-8.14,4.01-12.64,6.26-15.25,7.59-1.58.8-3.17,1.61-4.75,2.41.33-1.33.67-2.67,1-4,4.07-.02,5-.59,5-1.55,0-1.98,6.48-8.45,8.47-8.45.84,0,1.42.52,1.28,1.16-.14.64.76,1.54,2,2,.75.28,1.5.56,2.25.84ZM213.44,166.48c-1.1-1.09-2.42-.92-2.42.32,0,.59.71.93,1.59.75.87-.18,1.25-.66.83-1.07Z"/>
  <path class="cls-8" d="M227.02,162.73c-2.71,1.79-4.06,2.69-4.75,3.16-.42.28-.83.56-1.25.84-1.81,0-1.54-.85-.52-1.98,1.39-1.54,1.54-2.32.65-3.5-.38-.51-.76-1.01-1.14-1.52.83.39,1.67.77,2.5,1.16,1.38.64,2.5,1.56,2.5,2.06s.45.65,2-.22Z"/>
  <path class="cls-184" d="M194.02,116.73c2.33,3.67,4.67,7.33,7,11,1.67,3,3.33,6,5,9v2h-1l-1,1c-.33-.67-.67-1.33-1-2,1.06-.75.13-2.81-7.08-15.75-.97-1.75-1.95-3.5-2.92-5.25h1Z"/>
  <path class="cls-103" d="M201.02,127.73h2c2.67-1,5.33-2,8-3,.67-.33,1.33-.67,2-1-.21.37-.42.74-.63,1.11-.35.61-.12,1.51,1.63,2.89h-2.43c-1.78,0-2.59.67-3.57,5-1.7-3.13-1.92-2.7-1.95.25-.02,1.25-.03,2.5-.05,3.75-1.67-3-3.33-6-5-9Z"/>
  <path class="cls-36" d="M203.02,127.73c.39-3.11.84-4.01,1.25-4.01.25,0,.5,0,.75,0,.67-.19,1.33-.38,2-.57,1.2-.34,2.02-1.44,2.04-2.75.04-2.07.15-2.1,2.23-.56,1.82,1.34,1.98,1.9-.27,4.88-2.67,1-5.33,2-8,3Z"/>
  <path class="cls-96" d="M209.02,112.73h-1c-3.23-1.59-3.23-1.7-1.6-2.32.96-.37,2.73-.13,3.93.53,1.89,1.04,1.94,1.24.43,1.5-.58.1-1.17.2-1.75.29Z"/>
  <path class="cls-136" d="M204.02,139.73l1-1h1c.36.68.71,1.37,1.07,2.05.59,1.13.81,2.48-.07,3.95-1-1.67-2-3.33-3-5Z"/>
  <path class="cls-178" d="M214.02,133.73c0,1.55-1.35,2-3,2-2,0-3-.5-3-1.5v-1.5c.98-4.33,1.79-5,3.57-5h2.43c.5.2,1,.4,1.5.61,2.36.96,1.76,3.11-1.5,5.39ZM209.68,132.4c-1.25,1.24-.67,2.33,1.23,2.33,1.04,0,2.15-.67,2.47-1.5.59-1.53-2.34-2.19-3.7-.83Z"/>
  <path class="cls-87" d="M205.02,123.73c2.24-1.94,3.18-3.7,3.53-5.17.62-2.58.43-2.72-5.94-4.25-2.2-.53-4.39-1.05-6.59-1.58,7.33,1.33,14.67,2.67,22,4,.67.33,1.33.67,2,1h1c.52.2,1.04.39,1.56.59,1.06.4,1.38,1.35.44,5.41v-2.15c0-1.83-.7-2.21-4.8-2.61-4.58-.44-4.81-.34-5.2,4.76-.67.33-1.33.67-2,1,2.25-2.98,2.09-3.54.27-4.88-2.08-1.54-2.2-1.51-2.23.56-.02,1.31-.84,2.41-2.04,2.75-.67.19-1.33.38-2,.57Z"/>
  <path class="cls-58" d="M211.02,155.73v-1c.19-.5.38-1,.57-1.5.86-2.23,3.43-1.81,3.43.56,0,1.42-.63,2.04-4,1.94Z"/>
  <path class="cls-14" d="M222.02,95.73h-2c-1.17-.98-2.33-1.96-3.5-2.94.58-.01,1.17-.02,1.75-.03.58-.01,1.17-.02,1.75-.03.67.33,1.33.67,2,1-.25.03-.5.06-.75.09l-.75.09c.5.61,1,1.21,1.5,1.82Z"/>
  <path class="cls-133" d="M220.02,112.73c6.48,4.07,8,5.78,8,7.01v1.99c-.19.66-.38,1.32-.57,1.98-.31,1.09-1.66,4.04-3,6.55-1.34,2.52-2.43,5.23-2.43,7.47-.33,1.33-.67,2.67-1,4l-1,1c-.5.56-1,1.13-1.5,1.69s-1,1.13-1.5,1.69v-3.38c.67-2.33,1.33-4.67,2-7,.19-.58.38-1.17.57-1.75.31-.96,1.21-3.66,3.43-10.25.94-4.06.62-5.02-.44-5.41-.52-.2-1.04-.39-1.56-.59,4.42-.01,4.4-.09,1.75-2.01-.92-.66-1.83-1.33-2.75-1.99v-1ZM226.02,118.73c-.33-.33-.67-.67-1-1v1c.03.75.06,1.5.09,2.25.03.75.06,1.5.09,2.25l.81-4.5Z"/>
  <path class="cls-45" d="M228.02,97.73c-2-.67-4-1.33-6-2-.5-.61-1-1.21-1.5-1.82l.75-.09c.25-.03.5-.06.75-.09,2,.33,4,.67,6,1,.42.36.83.72,1.25,1.08.42.36.83.72,1.25,1.08-.83.28-1.67.57-2.5.85Z"/>
  <path class="cls-138" d="M223.02,138.73c-.85,2.71-1.3,3.39-1.55,3.25-.15-.08-.3-.17-.45-.25.33-1.33.67-2.67,1-4l1,1Z"/>
  <path class="cls-81" d="M225.02,150.73c-3.4,1.06-3.87.5-4.42-2.42-.52-2.78-.35-3.58.79-3.58.8,0,1.73.45,2.05,1,.19.33.39.67.58,1,.33,1.33.67,2.67,1,4Z"/>
  <path class="cls-54" d="M260.02,166.73c-3.86-1.94-5.21-2.84-5.49-3.25-.17-.25-.34-.5-.51-.75v-1c1.33-.33,2.67-.67,4-1v3c.67,1,1.33,2,2,3Z"/>
  <path class="cls-182" d="M255.02,121.73v-7c.33-3,.67-6,1-9,.33,2.33.67,4.67,1,7v3c-.33,2-.67,4-1,6h-1Z"/>
  <path class="cls-85" d="M262.02,177.73c-5.81-5.2-7.16-6.77-6.75-6.85.25-.05.5-.1.75-.15,2,2.33,4,4.67,6,7Z"/>
  <path class="cls-128" d="M256.02,100.73v-12c.5-.41,1-.83,1.5-1.24,1.31-1.09,1.5-.3,1.49,6.25,0,4.12-.45,10.08-1.99,18.99-.33-2.33-.67-4.67-1-7v-5Z"/>
  <path class="cls-145" d="M266.02,100.73c-.02,18-1.8,36.94-4.97,52.82-.68,3.39-1.35,6.79-2.03,10.18h-1v-3c.48-1.92.96-3.83,1.45-5.75,2.57-10.23,4.72-28.04,6.55-54.25Z"/>
  <path class="cls-151" d="M264.02,174.73c1.94-.96,2.84-1.19,3.25-1.12.25.04.5.08.75.12,3.67,2.67,7.33,5.33,11,8,.33.67.67,1.33,1,2-2.99-1.12-2.69-.38-.75,1.85.92,1.05,1.83,2.1,2.75,3.15h-1c-1.33-1-2.67-2-4-3l-2-2-1-1c-.93-4.51-5.17-9.11-6.42-6.97-.19.33-.38.65-.58.97-1-.67-2-1.33-3-2ZM275.52,181.73c-.27,0-.5.23-.5.5s.23.5.5.5.5-.23.5-.5-.23-.5-.5-.5Z"/>
  <path class="cls-4" d="M268.02,173.73c-2.67-2.33-5.33-4.67-8-7-.67-1-1.33-2-2-3h1c5.61,5.04,9.1,8.22,11.37,10.32,2.27,2.1,5.14,4.69,6.38,5.75.75.64,1.5,1.29,2.25,1.93-3.67-2.67-7.33-5.33-11-8Z"/>
  <path class="cls-53" d="M302.02,229.73c23.74,15.3,27.13,17,30.12,17,4.62,0,6.92-2.15,6.75-6.32-.04-1.06-.09-2.12-.13-3.18-.21,1.11-.41,2.22-.62,3.33-.21,1.11-.41,2.22-.62,3.32-.37-1.19-.73-2.38-1.1-3.57-.6-1.97-1.39-3.58-1.75-3.58h-.65l-3-3c-2.33-2-4.67-4-7-6-3.36-3.08-6.72-6.17-10.08-9.25-5.55-5.09-15.22-13.86-32.92-29.75h1c7.73,5.04,9.98,6.16,9.99,5.75,0-.25,0-.5.01-.75,5,4.33,10,8.67,15,13h1c8.33,7.67,16.67,15.33,25,23l3,3,3,3c1.11,8.19.88,8.97-1.13,10.38-3.19,2.24-8.44,2.03-12.75-.51-1.99-1.17-8.01-5.22-13.37-9-3.25-2.29-6.5-4.58-9.75-6.87Z"/>
  <path class="cls-61" d="M292.02,193.73c-4-3.33-8-6.67-12-10-.33-.67-.67-1.33-1-2,7.36,5.75,13.66,11.37,18.75,16.21,3.08,2.93,6.17,5.86,9.25,8.79-5-4.33-10-8.67-15-13Z"/>
  <path class="cls-106" d="M308.02,206.73c7.67,6.67,15.33,13.33,23,20,.67,1,1.33,2,2,3-8.33-7.67-16.67-15.33-25-23Z"/>
  <path class="cls-95" d="M241.02,187.73c3.88,1.4,5,2.08,5,2.41v.59c-3.46,1.16-5.02,2.62-5.7,4-1.37,2.78-14.07,14.95-21.8,20.9-6.78,5.22-17.69,12.16-25.24,16.07-2.08,1.08-4.16,2.15-6.24,3.23-2.25-1.25-4.51-2.51-6.76-3.76-27.68-15.39-48.81-36.47-58.05-57.93-4.15-9.63-6.89-18.96-8.69-29.54-.51-2.99-1.01-5.97-1.52-8.96-.81-8.14-1.3-14.88-1.62-20.24-.19-3.25-.38-6.49-.57-9.74-2.55-2.16-5.1-4.32-7.66-6.49-4.21-3.57-9.01-7.62-10.66-9-1.65-1.38-6.93-5.89-11.73-10.02-7.24-6.22-9.32-7.51-12.2-7.51-10.87,0-22.18-5.92-29.53-15.46-3.33-4.31-5.12-8.34-8.6-19.32-4.85-15.28-7.9-20.48-14.99-25.47-5.16-3.64-4.89-3.94,4.94-5.76,18.77-3.46,44.95,4.02,58.71,16.76,6.76,6.26,10.45,12.13,12.09,19.24.78,3.38,1.89,5.5,3.25,6.2,2.54,1.31,25.97,17.66,33.79,23.58,1.91,1.45,3.82,2.89,5.73,4.34,3.26-.86,6.51-1.71,9.77-2.57,5.37-1.41,12.81-3.91,16.52-5.56l6.75-2.99c6.33-2.67,12.67-5.33,19-8,0,2.3-2.93,4.55-6.5,6.49-2.17,1.17-4.33,2.34-6.5,3.51-12.81,6.57-28.52,11.24-47,13.95-3.83.56-7.67,1.13-11.5,1.69.08,5.73.17,11.46.25,17.18s.17,11.45.25,17.18c.95,12.79,1.85,19.76,2.61,23.75.46,2.42.93,4.83,1.39,7.25,2.19,8.14,3.09,11.51,3.41,12.75.2.75.39,1.5.59,2.25.66,1.85,1.32,3.7,1.99,5.55,4.85,13.55,15.4,27.74,27.54,37.04,4.25,3.25,9.58,7.33,11.85,9.07,2.27,1.73,8.58,5.73,14.03,8.86,9.83,5.67,9.92,5.7,13,4.11,13-6.69,35.14-23.68,42.23-32.42,2.68-3.3,5.66-6.27,8.37-7.21ZM103.02,80.73c1.33-1.67,2.67-3.33,4-5,6.2-5.74,7.98-7.88,7.96-8.45-.04-1.17-20.35-15.57-22.89-16.24-.9-.24-3.26,1.15-5.34,3.13-1.24,1.18-2.49,2.37-3.73,3.56-3.49,5.08-5.06,7.55-5.75,8.77-.42.74-.83,1.48-1.25,2.23,0,1.37,3.82,4.97,8.5,8.88,2.83,2.37,5.67,4.74,8.5,7.12,1.83,1.79,3.67,3.58,5.5,5.37l2.25-4.69c.75-1.56,1.5-3.12,2.25-4.69ZM83.02,40.73c1.83,5.52,2.48,6.2,3.24,5.49.78-.73.61-2.22-.58-5.25-.55-1.41-1.11-2.83-1.66-4.24v-2c-1.33-2-2.67-4-4-6-1.67-1.33-3.33-2.67-5-4l-3-3h-1l-2-2c-8.46-4.57-12.74-6.37-14.96-6.95-1.35-.35-2.69-.7-4.04-1.05-.67-.33-1.33-.67-2-1h-2c-.67-.33-1.33-.67-2-1h-2c-.67-.33-1.33-.67-2-1h-1v-2.4c-.33.4-.67.8-1,1.2-.33.4-.67.8-1,1.2h-17l3,3c8.56,4.99,11.71,7.24,12.52,8.22.49.6.99,1.19,1.48,1.78.67.67,1.33,1.33,2,2,.67,1,1.33,2,2,3,1.67,3.67,3.33,7.33,5,11,4.02,6.77,8.89,12.37,7.62,8.75-.2-.58-.41-1.17-.62-1.75-.31-1.84.14-2.06.8-1.68.4.23.8.46,1.2.68,4.58,5.27,15.87,12.24,19.82,12.25,1.27,0,3.59-1.22,5.16-2.72,2.73-2.62,2.79-2.86,1.43-6.12-.47-1.13-.94-2.27-1.41-3.4-.75-5.08-.6-5.23,1.1-4.18.63.39,1.26.78,1.9,1.18ZM29.02,19.73c-.67-.67-1.33-1.33-2-2,.33.67.67,1.33,1,2,2.21,5.04,3.33,8.64,3.93,11.25.36,1.58.72,3.17,1.07,4.75,5.43,11.39,7.94,15.54,9.08,16.57,2.05,1.85,2.07,1.84,1.75-.83-.18-1.49.02-2.71.43-2.72.25,0,.5-.01.75-.02,7.4,6.76,10.46,7.5,5.17,1.24-1.74-2.06-4.3-5.66-5.67-7.99-.83-1.42-1.67-2.83-2.5-4.25l-6-12c-2.33-2-4.67-4-7-6ZM41.52,6.88c-.17-.05-.33-.1-.5-.15-.17.05-.33.1-.5.15-.28.08-.05.15.5.15s.78-.07.5-.15ZM108.04,81.25c-.94-.58-1.79.5-4.92,6.31-.78,1.44-1.55,2.89-2.33,4.33.93.97,1.86,1.95,2.8,2.92,1.54,1.61,3.27,2.92,3.86,2.91,1.25,0,1.81-15.72.59-16.48ZM123.21,72.37c-2.09-1.45-4.25-2.64-4.8-2.64s-2.54,1.6-4.43,3.54c-2.85,2.94-3.18,3.7-1.95,4.49.82.52,1.98.77,2.58.55.6-.22,3.64-.72,6.75-1.1,3.11-.39,5.66-1.04,5.66-1.46s-1.71-1.93-3.8-3.38Z"/>
  <path class="cls-95" d="M188.02,54.73c12.79,6.86,19.65,10.04,23.5,11.5,3.85,1.46,7.78,3.07,8.74,3.58.96.51,2.42.93,3.26.93s2.31.43,3.26.94c1.64.89,24.17,5.23,34.49,6.63,1.58.22,3.17.43,4.75.65v21.77c-1.83,26.21-3.98,44.02-6.55,54.25-.48,1.92-.96,3.83-1.45,5.75-1.33.33-2.67.67-4,1l2.02-8.25c3.04-12.44,5.94-41.59,5.96-60.08,0-3.61.01-7.22.02-10.83-9.33-1.62-18.67-3.23-28-4.85-7.76-1.71-10.26-2.61-10.56-3.1-.31-.49-1.55-.9-2.77-.9s-8.84-3.38-16.94-7.5c-4.91-2.5-9.82-5-14.72-7.5-.33-1.33-.67-2.67-1-4Z"/>
  <path class="cls-23" d="M171.02,176.73c-1.67-1.67-3.33-3.33-5-5,0-1.38,1.12-2.06,2.5-2.39.83-.2,1.67-.4,2.5-.61,2,2.33,4,4.67,6,7-8.53-3.61-11.22-3.94-8.11-1,.7.67,1.41,1.33,2.11,2Z"/>
  <path class="cls-23" d="M185.02,172.73c-2.2,0-3.1.45-3.42,1-.19.33-.39.67-.58,1l-15-18h24c-.8,1.96-.35,3.32.48,4.27.51.58,1.01,1.15,1.52,1.73-2.83-2.36-6.27-2.59-7.97-.54-.92,1.11-.95,2.56-.12,6,.36,1.51.73,3.03,1.09,4.54Z"/>
  <path class="cls-23" d="M159.02,165.73c-6.91-1.21-7.18-1.48-6.15-3.14.38-.62.77-1.24,1.15-1.86,1.67-.67,3.33-1.33,5-2h3l3,3c-.33,1-.67,2-1,3-3.59-1.86-4.14-1.75-4.51-.54-.16.51-.32,1.03-.49,1.54Z"/>
  <path class="cls-109" d="M187.02,134.73c1.23-13.95,1.9-18,2.29-18h.71c3.61,5.81,5.19,8.74,5.83,10.25.39.92.78,1.83,1.17,2.75.26,2.33.03,3-.33,3h-.67c-3.57,0-5.14.45-5.8,1-.4.33-.8.67-1.2,1h-2Z"/>
  <path class="cls-116" d="M228.02,121.73c-.33,12-.67,24-1,36-1.55-.87-2-2.44-2-4.06v-2.94c-.33-1.33-.67-2.67-1-4-.05-3.49-.28-5.29-.54-6.25-.15-.58-.31-1.17-.46-1.75l-1-1c0-2.24,1.1-4.95,2.43-7.47,1.34-2.52,2.69-5.47,3-6.55.19-.66.38-1.32.57-1.98Z"/>
  <path class="cls-116" d="M219.02,135.73c0-2.82-.62-3.07-2.5-2.61-.83.2-1.67.4-2.5.61,3.26-2.28,3.86-4.44,1.5-5.39-.5-.2-1-.4-1.5-.61-1.75-1.38-1.97-2.28-1.63-2.89.21-.37.42-.74.63-1.11.39-5.1.62-5.2,5.2-4.76,4.1.39,4.8.78,4.8,2.61v2.15c-2.22,6.59-3.12,9.29-3.43,10.25-.19.58-.38,1.17-.57,1.75Z"/>
  <path class="cls-7" d="M126.02,135.73c-.33-1.33-.67-2.67-1-4,.33-.33.67-.67,1-1,1.7,5.14,1.83,4.81,1.91.25.03-1.75.06-3.5.09-5.25v1c2.93,21.79,3.08,25.17,2.24,24.65-.64-.39-1.41-2.28-1.7-4.18-.18-1.15-.36-2.31-.54-3.46-.33-.67-.67-1.33-1-2-.33-1.67-.67-3.33-1-5v-1Z"/>
  <path class="cls-170" d="M256.02,88.73c-18.02-3.17-20.74-3.76-32.25-7.07-2.25-.65-4.5-1.29-6.75-1.93v-1c21.09,6.06,23.82,6.44,33,6.28,12.7-.22,11.93-1.06-4.25-4.66-3.92-.87-7.83-1.75-11.75-2.62,9.33,1.62,18.67,3.23,28,4.85,0,3.61-.01,7.22-.02,10.83-.03,18.49-2.92,47.64-5.96,60.08l-2.02,8.25v1c-1.31,1.16-2.67,3.98-3.86,7.01-1.2,3.03-3.75,7.98-5.68,11-1.93,3.02-3.49,5.83-3.48,6.24,0,.25.02.5.02.75-2.71.94-5.69,3.92-8.37,7.21-7.1,8.74-29.23,25.73-42.23,32.42-3.08,1.58-3.17,1.56-13-4.11-5.44-3.14-11.76-7.13-14.03-8.86-2.27-1.74-7.6-5.82-11.85-9.07-12.14-9.3-22.69-23.49-27.54-37.04-.66-1.85-1.32-3.7-1.99-5.55,5.67,11.93,6.24,12.94,13.71,24.11,3.3,4.93,4.97,6.58,6.6,6.5,2.14-.11,2.13-.17-.57-3.86-.91-1.25-1.83-2.5-2.74-3.75.67.33,1.33.67,2,1,16.01,16.92,21.59,21.59,30,27.13,16.45,10.85,15.05,10.38,21.23,7.26,15.03-7.58,33.43-22.8,42.72-35.33,10.39-14.01,15.63-28.6,18.47-51.44.52-4.21,1.05-8.42,1.57-12.62h1c.33-2,.67-4,1-6v-3c1.54-8.91,1.99-14.87,1.99-18.99,0-6.55-.18-7.34-1.49-6.25-.5.41-1,.83-1.5,1.24ZM144.52,193.73c-.27,0-.5.23-.5.5s.23.5.5.5.5-.23.5-.5-.23-.5-.5-.5ZM145.52,194.73c-.27,0-.5.23-.5.5s.23.5.5.5.5-.23.5-.5-.23-.5-.5-.5ZM146.52,195.73c-.27,0-.5.23-.5.5s.23.5.5.5.5-.23.5-.5-.23-.5-.5-.5ZM147.52,196.73c-.27,0-.5.23-.5.5s.23.5.5.5.5-.23.5-.5-.23-.5-.5-.5ZM148.52,197.73c-.27,0-.5.23-.5.5s.23.5.5.5.5-.23.5-.5-.23-.5-.5-.5ZM149.52,198.73c-.27,0-.5.23-.5.5s.23.5.5.5.5-.23.5-.5-.23-.5-.5-.5ZM150.52,199.73c-.27,0-.5.23-.5.5s.23.5.5.5.5-.23.5-.5-.23-.5-.5-.5Z"/>
  <path class="cls-39" d="M171.02,167.73c-1.67-2-3.33-4-5-6-1.33-1.33-2.67-2.67-4-4-2.32-.26-3-.03-3,.33v.67c-1.67.67-3.33,1.33-5,2-4.65,1.89-6,2.11-6,1.72v-.72c.67-.67,1.33-1.33,2-2,2.33-1.33,4.67-2.67,7-4,.39.65.84.87,1.25.92.25.03.5.05.75.08,1.33-.33,2.67-.67,4-1h21v1h-18c-.25.02-.5.04-.75.06-.41.03,1.18,2.51,3.55,5.5,2.36,2.99,3.83,5.44,2.2,5.44Z"/>
  <path class="cls-11" d="M224.02,158.73c2.33.89,3,1.79,3,2.57v1.43c-1.55.87-2,.71-2,.22s-1.12-1.42-2.5-2.06c-.83-.39-1.67-.77-2.5-1.16-4.27-3.55-6.28-2.65-13.41,6-2.2,2.67-4.39,5.33-6.59,8-.33,1.33-.67,2.67-1,4-2.37,0-4.44,1.58-6.13,3.5-3.37,3.84-5.27,4.28-8.64,2-.74-.5-1.48-1-2.22-1.5-2.84-4.65-3.96-6-4.33-6h-.67c-2-2.33-4-4.67-6-7v-1c1.62,0,.16-2.45-2.2-5.44-2.36-2.99-3.96-5.47-3.55-5.5.25-.02.5-.04.75-.06l15,18c4.06,5.42,5.82,7,6.53,7s3.13-2.25,5.38-5c1.36-1.67,2.73-3.33,4.09-5,9.3-9.65,12-13.03,12-13.73,0-.94-2.48-1.27-9.5-1.27h-15.5v-1h27c3.37.11,4-.52,4-1.94,0-2.38-2.57-2.8-3.43-.56-.19.5-.38,1-.57,1.5-2-.33-4-.67-6-1,5.38,0,5.93-.93,3.5-5.92-.5-1.03-1-2.05-1.5-3.08.88-1.46.65-2.81.07-3.95-.36-.68-.71-1.37-1.07-2.05,6.95,10.82,7.4,11.17,8.59,9.55.72-.98,1.55-2.63,1.86-3.67.18-.63.37-1.26.55-1.88v3.38c.5-.56,1-1.13,1.5-1.69s1-1.13,1.5-1.69c-1.47,4-2.93,8-4.4,12h2.2c1.21,0,2.2.45,2.2,1s.64,1,1.42,1,1.68.45,2,1c.19.33.39.67.58,1ZM208.52,144.73c-.27,0-.5.23-.5.5s.23.5.5.5.5-.23.5-.5-.23-.5-.5-.5ZM173.52,167.73c-.27,0-.5.23-.5.5s.23.5.5.5.5-.23.5-.5-.23-.5-.5-.5Z"/>
  <path class="cls-42" d="M166.02,161.73h-1l-3-3v-1c1.33,1.33,2.67,2.67,4,4Z"/>
  <path class="cls-48" d="M228.02,94.73c1.83.77,3.67,1.55,5.5,2.32-.92.34-1.83.69-2.75,1.03-1.51.57-2.75.72-2.75.34v-.69c.83-.28,1.67-.57,2.5-.85-.42-.36-.83-.72-1.25-1.08-.42-.36-.83-.72-1.25-1.08Z"/>
  <path class="cls-89" d="M255.02,114.73c-.89,2.32-1.45,3-1.82,3s-.55-6.41-.4-14.25c.15-7.84.51-14.25.79-14.25s.95,2.59,1.48,5.75c.32,1.92.64,3.83.96,5.75v5c-.33,3-.67,6-1,9Z"/>
  <path class="cls-43" d="M259.02,170.73c1.67,1.33,3.33,2.67,5,4,1,.67,2,1.33,3,2,2.33,2,4.67,4,7,6l1,1,2,2c1.33,1,2.67,2,4,3,17.69,15.89,27.37,24.66,32.92,29.75,3.36,3.08,6.72,6.17,10.08,9.25-8.91-7.5-12.62-10.31-14-11.09-4.23-2.39-10.14-7.02-18.5-14.48-4.4-3.93-12.84-11.04-18.75-15.79-3.58-2.88-7.17-5.76-10.75-8.64-2-2.33-4-4.67-6-7h3Z"/>
  <path class="cls-186" d="M45.02,27.73c-1.67-2-3.33-4-5-6-.51-.19-1.03-.39-1.54-.58-.85-.32-1.97-1.45-3.46-4.42v-1.5c0-2.49,3.92-1.73,10.9,2.11,3.61,1.99,8.26,3.79,14.1,4.39l2,2c-.33,1-.67,2-1,3v2c-.25-.13-.5-.27-.75-.4-.41-.22-2.18-.63-3.94-.9-1.75-.28-3.65-.79-4.22-1.14-.57-.35-2.4.06-7.09,2.44v-1Z"/>
  <path class="cls-142" d="M90.02,59.73c.42.36.83.72,1.25,1.09.69.6,4.74,3.75,16.75,12.91-.33.67-.67,1.33-1,2-1.33,1.67-2.67,3.33-4,5-.03-.25-.06-.5-.08-.75-.05-.41-.18-.75-.31-.75s-2.37-1.95-4.99-4.34c-2.62-2.39-4.96-4.07-5.62-3.16-.75-.42-1.49-.83-2.24-1.25-1.23-.69-3.26-2.04-6.76-4.75.19-.67.38-1.33.57-2,.31-1.1,1.35-2,2.3-2s2.27-.45,4.13-2Z"/>
  <path class="cls-27" d="M159.02,143.73c-.49-2.08-.99-4.17-1.48-6.25-1.56-6.57-1.33-9.37.66-8.14.65.4,2.46.88,6.82,1.39.33.4.67.8,1,1.2.33.4.67.8,1,1.2.67-.8,1.33-1.6,2-2.4.54-.66,1.08-1.33,1.61-1.99,2.22-2.73,3.78-1.43,2.39,1.99-2.67,4.67-5.33,9.33-8,14-2-.33-4-.67-6-1Z"/>
  <path class="cls-32" d="M173.02,130.73c1.39-3.42-.17-4.72-2.39-1.99-.54.66-1.08,1.33-1.61,1.99.41-.88.82-1.76,1.22-2.64,1.15-2.49,1.1-2.6-1-1.93-1.65.52-2.22.3-2.22-.85,0-.86-.9-2.01-4-3.58.08-.58.17-1.17.25-1.75.17-1.17-.5-1.83-4.25-2.25,1.08-.19,2.17-.39,3.25-.58,1.79-.32,6.96-1.46,11.5-2.54,6.62-1.57,8.25-1.69,8.25-.61,0,.74-2.02,4.81-9,16.73Z"/>
  <path class="cls-164" d="M213.44,166.48c.42.41.04.9-.83,1.07-.88.18-1.59-.16-1.59-.75,0-1.24,1.32-1.42,2.42-.32Z"/>
  <path class="cls-148" d="M275.52,181.73c.27,0,.5.23.5.5s-.23.5-.5.5-.5-.23-.5-.5.23-.5.5-.5Z"/>
  <path class="cls-185" d="M55.02,43.73c.25,0,.5,0,.75,0,.41,0,.89-.87,1.06-1.94.2-1.22.85-1.75,1.75-1.4.79.3,1.44.05,1.44-1.66,2.33-2,4.67-4,7-6,1.46,1.32,2.92,2.63,4.38,3.95,2.41,2.17,4.64,3.69,4.96,3.37.32-.32.15-1.42-1.35-4.32v-1h.6c.33,0,1.45,2.02,4.4,9,.47,1.13.94,2.27,1.41,3.4,1.35,3.27,1.29,3.51-1.43,6.12-1.56,1.5-3.89,2.72-5.16,2.72-3.95,0-15.23-6.98-19.82-12.25Z"/>
  <path class="cls-92" d="M83.02,34.73h1v1l-1-1Z"/>
  <path class="cls-50" d="M75.02,31.73h2c.86,1,1.72,2.01,2.58,3.01,1.42,1.65,2.99,2.78,4.42,1.99.55,1.41,1.11,2.82,1.66,4.24,1.19,3.03,1.35,4.52.58,5.25-.76.71-1.41.03-3.24-5.49-2.67-3-5.33-6-8-9Z"/>
  <path class="cls-168" d="M165.02,130.73c-4.37-.51-6.17-.99-6.82-1.39-1.99-1.23-2.22,1.57-.66,8.14.49,2.08.99,4.17,1.48,6.25v1c-.52-1.42-1.03-2.83-1.55-4.25-.85-2.34-2.02-6.05-2.6-8.25-.58-2.2-1.46-5.03-1.95-6.3-.49-1.26-.9-3.4-.9-7.2,2.33-.33,4.67-.67,7-1,3.75.42,4.42,1.08,4.25,2.25-.08.58-.17,1.17-.25,1.75h-1.56c-1.01,0-1.76,1.24-2.13,3.5-.45,2.8-.24,3.5,2.69,3.5,1,.33,2,.67,3,1v1Z"/>
  <path class="cls-99" d="M155.52,216.73c.27,0,.5.23.5.5s-.23.5-.5.5-.5-.23-.5-.5.23-.5.5-.5Z"/>
  <path class="cls-99" d="M156.52,217.73c.27,0,.5.23.5.5s-.23.5-.5.5-.5-.23-.5-.5.23-.5.5-.5Z"/>
  <path class="cls-99" d="M159.85,219.97c.68.68.84,1.37.35,1.53-.49.16-1.46-.39-2.16-1.24-1.51-1.82.03-2.08,1.81-.3Z"/>
  <path class="cls-99" d="M161.52,221.73c.27,0,.5.23.5.5s-.23.5-.5.5-.5-.23-.5-.5.23-.5.5-.5Z"/>
  <path class="cls-102" d="M6.02,7.73c.55,0,1,.45,1,1s-.45,1-1,1-1-.45-1-1,.45-1,1-1Z"/>
  <path class="cls-165" d="M15.35,14.73c-.18,0-.33-.25-.33-.56s.45-.28,1,.06,1,.89,1,1.23-.3.31-.67-.06c-.37-.37-.82-.67-1-.67Z"/>
  <path class="cls-165" d="M19.02,17.23c1.1.99,2,2.26,2,2.81s-.9.18-2-.81-2-2.26-2-2.81.9-.18,2,.81Z"/>
  <path class="cls-165" d="M22.55,22.17c.81,1.07,1.45,2.64,1.43,3.5-.02,1-.55.66-1.46-.94-1.87-3.27-1.85-5.04.03-2.56Z"/>
  <path class="cls-111" d="M16.52,3.88c.17-.05.33-.1.5-.15.17.05.33.1.5.15.28.08.05.15-.5.15s-.78-.07-.5-.15Z"/>
  <path class="cls-71" d="M20.02,8.73h16-12c-.67.67-1.33,1.33-2,2,.33.33.67.67,1,1l-3-3Z"/>
  <path class="cls-18" d="M23.77,2.87c1.91.1,2.14.25.75.52-2.61.5-3.5.46-3.5-.15,0-.27,1.24-.44,2.75-.36Z"/>
  <path class="cls-91" d="M35.02,16.73c1.48,2.97,2.61,4.1,3.46,4.42.51.19,1.03.39,1.54.58h-3c-.49-.59-.99-1.19-1.48-1.78-.81-.98-3.96-3.23-12.52-8.22-.33-.33-.67-.67-1-1,.67-.67,1.33-1.33,2-2h9c-1.58.25-3.15.5-4.73.75-1.58.25-3.15.5-4.73.75,3.82,2.17,7.64,4.33,11.46,6.5Z"/>
  <path class="cls-68" d="M60.02,21.73c-5.84-.6-10.49-2.4-14.1-4.39-6.98-3.84-10.9-4.6-10.9-2.11v1.5c-3.82-2.17-7.64-4.33-11.46-6.5,1.58-.25,3.15-.5,4.73-.75,1.58-.25,3.15-.5,4.73-.75h7v1c-.75,0-1.5.02-2.25.03-2.18.03-2.19.07-.26,1.18,1.09.63,2.44,1.52,3,1.98,4,3.25,13.68,6.81,18.51,6.81.33.67.67,1.33,1,2Z"/>
  <path class="cls-143" d="M27.02,17.73c.67.67,1.33,1.33,2,2h-1c-.33-.67-.67-1.33-1-2Z"/>
  <path class="cls-153" d="M29.52,2.73c-.34.55-.84,1-1.12,1s-.22-.45.12-1,.84-1,1.12-1,.22.45-.12,1Z"/>
  <path class="cls-72" d="M28.02,19.73h1c2.33,2,4.67,4,7,6-1-.9-2-1.79-3-2.69-4.92-4.41-3.4-.83,2,4.69v1c1.37,2.52,2.73,5.05,4.1,7.57,2.25,4.16,4.29,7.37,4.54,7.13.24-.24-.03-1.62-1.63-5.7.83,1.42,1.67,2.83,2.5,4.25,1.38,2.34,3.93,5.93,5.67,7.99,5.29,6.25,2.24,5.52-5.17-1.24-.92-1.59-1.83-3.19-2.75-4.78-1.51-2.63-2.78-4.8-2.81-4.81-.04-.02-.57.14-1.19.35s-2.05-.55-5.25-3.75c-.36-1.58-.72-3.17-1.07-4.75-.59-2.61-1.72-6.21-3.93-11.25Z"/>
  <path class="cls-66" d="M35.02,27.73c-5.4-5.52-6.92-9.1-2-4.69,1,.9,2,1.79,3,2.69l6,12c1.61,4.07,1.88,5.46,1.63,5.7-.24.24-2.28-2.97-4.54-7.13-1.37-2.52-2.73-5.05-4.1-7.57h1.14c-.38-.33-.76-.67-1.14-1ZM34.02,25.35c0-.27-.45-.78-1-1.12s-1-.39-1-.12.45.78,1,1.12,1,.39,1,.12Z"/>
  <path class="cls-5" d="M209.52,62.73c.27,0,.5.23.5.5s-.23.5-.5.5-.5-.23-.5-.5.23-.5.5-.5Z"/>
  <path class="cls-166" d="M33.02,35.73c3.2,3.2,4.63,3.96,5.25,3.75s1.15-.36,1.19-.35c.03.02,1.3,2.18,2.81,4.81.92,1.59,1.83,3.19,2.75,4.78-.25,0-.5,0-.75.02-.41,0-.61,1.23-.43,2.72.32,2.68.3,2.68-1.75.83-1.14-1.03-3.65-5.18-9.08-16.57Z"/>
  <path class="cls-117" d="M35.02,28.73v-1c.38.33.76.67,1.14,1h-1.14Z"/>
  <path class="cls-175" d="M59.02,19.73c-4.83,0-14.51-3.56-18.51-6.81-.56-.45-1.91-1.34-3-1.98-1.93-1.12-1.92-1.15.26-1.18.75,0,1.5-.02,2.25-.03h4v1c-.25.03-.5.05-.75.08-.41.05,2.54,1.49,6.55,3.21,4.01,1.72,7.73,3.71,9.2,5.71Z"/>
  <path class="cls-112" d="M39.02,8.73h-2c.33-.4.67-.8,1-1.2.33-.4.67-.8,1-1.2v2.4Z"/>
  <path class="cls-1" d="M37.02,21.73h1c.33.67.67,1.33,1,2-.67-.67-1.33-1.33-2-2Z"/>
  <path class="cls-56" d="M40.02,21.73c1.67,2,3.33,4,5,6-.84-.75-1.67-1.5-2.51-2.25-2.06-1.84-2.42-1.93-1.49,1.25-.67-1-1.33-2-2-3-.33-.67-.67-1.33-1-2h2Z"/>
  <path class="cls-67" d="M41.52,6.88c.28.08.05.15-.5.15s-.78-.07-.5-.15c.17-.05.33-.1.5-.15.17.05.33.1.5.15Z"/>
  <path class="cls-17" d="M40.02,9.73v-1c.67.33,1.33.67,2,1h-2Z"/>
  <path class="cls-181" d="M62.02,23.73l-2-2c-.33-.67-.67-1.33-1-2-1.47-2-5.18-3.99-9.2-5.71-4.02-1.72-6.96-3.16-6.55-3.21.25-.03.5-.05.75-.08h4c.67.33,1.33.67,2,1,1.35.35,2.69.7,4.04,1.05,2.22.58,6.5,2.38,14.96,6.95l2,2h1l3,3c.67.74,1.34,1.49,2.01,2.23,1.1,1.23,1.78,2.58.99,3.77-3.67-2.67-7.33-5.33-11-8h-1c1,1.67,2,3.33,3,5,.33,1,.67,2,1,3l2,2v1c-3.67-2.33-7.33-4.67-11-7,.92.19,1.83.38,2.75.56s1.83.38,2.75.56c-1.5-1.38-3-2.75-4.5-4.13ZM61.27,17.98c-1.78-.59-1.55,1.26.37,2.85,1.4,1.16,1.57,1.09,1.25-.54-.2-1.04-.93-2.07-1.62-2.3Z"/>
  <path class="cls-28" d="M44.02,10.73v-1c.67.33,1.33.67,2,1h-2Z"/>
  <path class="cls-3" d="M47.02,31.73v-.65c0-1.57,3.82,1.37,4.45,3.42.38,1.24,1.11,2.03,2.55,1.24v.75c.03,2.26-3.12.82-6-2.75-.33-.67-.67-1.33-1-2Z"/>
  <path class="cls-134" d="M60.02,38.73c0,1.72-.65,1.97-1.44,1.66-.9-.35-1.55.18-1.75,1.4-.17,1.07-.65,1.95-1.06,1.94-.25,0-.5,0-.75,0-.4-.23-.8-.46-1.2-.68-.66-.38-1.11-.15-.8,1.68-1-1.33-2-2.67-3-4v-1c-.67-1.33-1.33-2.67-2-4v-2c2.88,3.57,6.03,5.01,6.01,2.75v-.75c1.99,1,3.99,2,5.99,3Z"/>
  <path class="cls-180" d="M50.02,40.73c1,1.33,2,2.67,3,4,.21.58.41,1.17.62,1.75,1.27,3.62-3.6-1.98-7.62-8.75,1.33,1,2.67,2,4,3Z"/>
  <path class="cls-69" d="M61.02,26.73c.33-1,.67-2,1-3,1.5,1.38,3,2.75,4.5,4.13-.92-.19-1.83-.38-2.75-.56s-1.83-.38-2.75-.56Z"/>
  <path class="cls-13" d="M84.02,36.73c-1.43.79-3-.34-4.42-1.99-.86-1-1.72-2.01-2.58-3.01v-.52c0-1.28-7.32-4.46-8-3.48-1-1.67-2-3.33-3-5h1c3.67,2.67,7.33,5.33,11,8,1.33,1,2.67,2,4,3l1,1,1,1v1Z"/>
  <path class="cls-94" d="M77.02,31.73h-2c-.75-.42-1.5-.83-2.25-1.25s-1.5-.83-2.25-1.25c1.5,1.83,3,3.67,4.5,5.5v1c-1-.67-2-1.33-3-2v-1l-2-2c-.33-1-.67-2-1-3,.68-.98,8,2.21,8,3.48v.52Z"/>
  <path class="cls-122" d="M80.02,43.73c-2.95-6.98-4.07-9-4.4-9h-.6c-1.5-1.83-3-3.67-4.5-5.5.75.42,1.5.83,2.25,1.25s1.5.83,2.25,1.25c2.67,3,5.33,6,8,9-.63-.39-1.26-.78-1.9-1.18-1.7-1.06-1.85-.9-1.1,4.18Z"/>
  <path class="cls-82" d="M61.02,28.73v-2c3.67,2.33,7.33,4.67,11,7,1,.67,2,1.33,3,2,1.49,2.9,1.67,4,1.35,4.32-.32.32-2.55-1.2-4.96-3.37-1.46-1.32-2.92-2.63-4.38-3.95-2-1.33-4-2.67-6-4Z"/>
  <path class="cls-34" d="M78.02,30.73c.79-1.2.11-2.54-.99-3.77-.67-.74-1.34-1.49-2.01-2.23,1.67,1.33,3.33,2.67,5,4,.67,1.67,1.33,3.33,2,5-1.33-1-2.67-2-4-3ZM79.52,30.73c-.27,0-.5.23-.5.5s.23.5.5.5.5-.23.5-.5-.23-.5-.5-.5Z"/>
  <path class="cls-120" d="M90.02,59.73c-1.86,1.55-3.18,2-4.13,2s-1.99.9-2.3,2c-.19.67-.38,1.33-.57,2-.58.62-1.16,1.24-1.75,1.86-1.67,1.78-1.6,1.98,1.74,4.75,5.77,4.79,15.49,13.74,15.84,14.59.75,1.8-2.41.61-5.83-2.2-2.83-2.37-5.67-4.74-8.5-7.12-4.68-3.91-8.5-7.51-8.5-8.88.42-.74.83-1.48,1.25-2.23.69-1.22,2.26-3.7,5.75-8.77,1-.67,2-1.33,3-2v.71c0,.39.9,1.29,4,3.29ZM86.02,58.23c0-.27-.23-.5-.5-.5s-.5.23-.5.5.23.5.5.5.5-.23.5-.5Z"/>
  <path class="cls-59" d="M84.02,34.73h-1l-1-1c-.67-1.67-1.33-3.33-2-5,1.33,2,2.67,4,4,6Z"/>
  <path class="cls-132" d="M83.02,65.73c3.5,2.71,5.52,4.06,6.76,4.75.75.42,1.49.83,2.24,1.25,3.67,3,7.33,6,11,9-.75,1.56-1.5,3.12-2.25,4.69l-2.25,4.69c-1.83-1.79-3.67-3.58-5.5-5.37,3.43,2.81,6.58,4,5.83,2.2-.36-.85-10.07-9.8-15.84-14.59-3.34-2.77-3.41-2.97-1.74-4.75.58-.62,1.16-1.24,1.75-1.86Z"/>
  <path class="cls-37" d="M108.02,73.73c-12.01-9.17-16.06-12.32-16.75-12.91-.42-.36-.83-.72-1.25-1.09-3.1-1.99-4-2.89-4-3.29v-.71c1.08-.57,2.17-1.15,3.25-1.72,1.08-.57,2.17-1.15,3.25-1.72,3.67,2.57,7.33,5.14,11,7.7,3.67,2.57,7.33,5.14,11,7.7-2.17,2.01-4.33,4.02-6.5,6.03Z"/>
  <path class="cls-141" d="M92.02,71.73c.66-.92,2.99.77,5.62,3.16,2.62,2.39,4.87,4.34,4.99,4.34s.26.34.31.75c.03.25.05.5.08.75-3.67-3-7.33-6-11-9Z"/>
  <path class="cls-156" d="M108.04,81.25c1.22.76.66,16.47-.59,16.48-.58,0-2.32-1.31-3.86-2.91-.93-.97-1.87-1.95-2.8-2.92.78-1.44,1.55-2.89,2.33-4.33,3.13-5.81,3.97-6.9,4.92-6.31Z"/>
  <path class="cls-35" d="M104.52,102.73c.27,0,.5.23.5.5s-.23.5-.5.5-.5-.23-.5-.5.23-.5.5-.5Z"/>
  <path class="cls-35" d="M105.52,103.73c.27,0,.5.23.5.5s-.23.5-.5.5-.5-.23-.5-.5.23-.5.5-.5Z"/>
  <path class="cls-55" d="M107.02,75.73c.33-.67.67-1.33,1-2,2.17-2.01,4.33-4.02,6.5-6.03-3.67-2.57-7.33-5.14-11-7.7-3.67-2.57-7.33-5.14-11-7.7-1.08.57-2.17,1.15-3.25,1.72-1.08.57-2.17,1.14-3.25,1.72-1,.67-2,1.33-3,2,1.24-1.18,2.49-2.37,3.73-3.56,2.09-1.99,4.44-3.37,5.34-3.13,2.54.66,22.85,15.07,22.89,16.24.02.58-1.76,2.71-7.96,8.45Z"/>
  <path class="cls-171" d="M123.21,72.37c2.09,1.45,3.8,2.97,3.8,3.38s-2.55,1.07-5.66,1.46c-3.11.39-6.15.89-6.75,1.1-.6.22-1.76-.03-2.58-.55-1.24-.79-.9-1.55,1.95-4.49,1.89-1.95,3.88-3.54,4.43-3.54s2.71,1.19,4.8,2.64ZM118.02,70.73c-.67.33-1.33.67-2,1v.71c0,.39,1.12,1.29,5,3.29.75-.09,1.5-.18,2.25-.27,2-.24,1.84-.51-5.25-4.73Z"/>
  <path class="cls-2" d="M210.52,70.88c.27.08.05.15-.5.15s-.77-.07-.5-.15c.17-.05.33-.1.5-.15.17.05.33.1.5.15Z"/>
  <path class="cls-105" d="M144.52,193.73c.27,0,.5.23.5.5s-.23.5-.5.5-.5-.23-.5-.5.23-.5.5-.5Z"/>
  <path class="cls-105" d="M145.52,194.73c.27,0,.5.23.5.5s-.23.5-.5.5-.5-.23-.5-.5.23-.5.5-.5Z"/>
  <path class="cls-105" d="M146.52,195.73c.27,0,.5.23.5.5s-.23.5-.5.5-.5-.23-.5-.5.23-.5.5-.5Z"/>
  <path class="cls-105" d="M147.52,196.73c.27,0,.5.23.5.5s-.23.5-.5.5-.5-.23-.5-.5.23-.5.5-.5Z"/>
  <path class="cls-105" d="M148.52,197.73c.27,0,.5.23.5.5s-.23.5-.5.5-.5-.23-.5-.5.23-.5.5-.5Z"/>
  <path class="cls-105" d="M149.52,198.73c.27,0,.5.23.5.5s-.23.5-.5.5-.5-.23-.5-.5.23-.5.5-.5Z"/>
  <path class="cls-105" d="M150.52,199.73c.27,0,.5.23.5.5s-.23.5-.5.5-.5-.23-.5-.5.23-.5.5-.5Z"/>
  <path class="cls-131" d="M124.87,145.23c.05.17.1.33.15.5-.05.17-.1.33-.15.5-.08.27-.15.05-.15-.5s.07-.77.15-.5Z"/>
  <path class="cls-151" d="M127.87,158.23c.05.17.1.33.15.5-.05.17-.1.33-.15.5-.08.27-.15.05-.15-.5s.07-.77.15-.5Z"/>
  <path class="cls-80" d="M136.04,98.73c2.33,0,3.25.59,4,2.57,1.69,4.44,1.29,5.54-1.77,4.83-3.15-.73-5.25-2.97-5.25-5.59,0-1.35.77-1.81,3.02-1.81ZM136.05,99.73c-1.12,0-2.03.36-2.03.81,0,1.76,2.72,4.39,4.19,4.05,2.35-.54.43-4.86-2.16-4.86Z"/>
  <path class="cls-79" d="M206.52,106.88c.27.08.05.15-.5.15s-.77-.07-.5-.15c.17-.05.33-.1.5-.15.17.05.33.1.5.15Z"/>
  <path class="cls-79" d="M208.52,107.88c.27.08.05.15-.5.15s-.77-.07-.5-.15c.17-.05.33-.1.5-.15.17.05.33.1.5.15Z"/>
  <path class="cls-79" d="M210.52,108.88c.27.08.05.15-.5.15s-.77-.07-.5-.15c.17-.05.33-.1.5-.15.17.05.33.1.5.15Z"/>
  <path class="cls-79" d="M225.02,117.73c.33.33.67.67,1,1h-1v-1Z"/>
  <path class="cls-15" d="M149.97,121.73c.58,0,1.04.79,1.02,1.75-.01.58-.02,1.17-.03,1.75-.34-.58-.68-1.17-1.02-1.75-.7-1.2-.69-1.75.03-1.75Z"/>
  <path class="cls-16" d="M150.52,94.88c.17-.05.33-.1.5-.15.17.05.33.1.5.15.27.08.05.15-.5.15s-.77-.07-.5-.15Z"/>
  <path class="cls-176" d="M156.77,115.81c.96.04,1.3.27.75.5-1.35.57-2.5.53-2.5-.08,0-.27.79-.46,1.75-.42Z"/>
  <path class="cls-189" d="M169.02,130.73c-.67.8-1.33,1.6-2,2.4-.33-.4-.67-.8-1-1.2-.33-.4-.67-.8-1-1.2v-1c-.33-1-.67-2-1-3-.67-.33-1.33-.67-2-1v3c-2.94,0-3.15-.7-2.69-3.5.37-2.26,1.12-3.5,2.13-3.5h1.56c3.1,1.56,4,2.72,4,3.58,0,1.16.57,1.38,2.22.85,2.1-.66,2.15-.55,1,1.93-.41.88-.82,1.76-1.22,2.64ZM165.02,124.91c0-1.7-2.07-2.51-3.29-1.29-.61.61-.8,1.11-.41,1.11s.7-.28.7-.62.68-.06,1.5.62c.95.79,1.5.85,1.5.18ZM165.52,125.73c-.27,0-.5.23-.5.5s.23.5.5.5.5-.23.5-.5-.23-.5-.5-.5ZM167.02,128.23c-.55-.34-1,.31-1,1.44s.45,2.06,1,2.06,1-.65,1-1.44-.45-1.72-1-2.06Z"/>
  <path class="cls-86" d="M159.02,143.73c2,.33,4,.67,6,1-1.26,2.17-2.52,4.33-3.79,6.5-.37-1.08-.74-2.17-1.11-3.25-.37-1.08-.74-2.17-1.11-3.25v-1Z"/>
  <path class="cls-107" d="M154.42,186.73c.22,0,2.67,1.46,5.44,3.25,2.77,1.79,6.49,4.15,8.27,5.25,3.42,2.12,7.62,7.11,6.73,7.99-.64.64-14.28-8.27-18.09-11.83-2.38-2.22-3.61-4.66-2.35-4.66Z"/>
  <path class="cls-51" d="M165.02,129.73c-1-.33-2-.67-3-1v-3c.67.33,1.33.67,2,1,.33,1,.67,2,1,3Z"/>
  <path class="cls-179" d="M180.02,144.73c.55,0,1,.45,1,1s-.45,1-1,1-1-.45-1-1,.45-1,1-1Z"/>
  <path class="cls-19" d="M183.29,133.98c.68.22,1.37,1.49,1.53,2.83.29,2.3.23,2.29-1.23-.4-1.07-1.97-1.16-2.7-.3-2.42Z"/>
  <path class="cls-160" d="M185.59,201.48c.82-1.51,1.69-2.75,1.93-2.75s1.1,1.27,1.9,2.83c1.31,2.54,1.28,3.1-.33,5.55-.6.91-1.19,1.82-1.79,2.73-.55-.84-1.1-1.68-1.65-2.51-1.94-2.96-1.93-2.41-.07-5.83ZM188.02,201.23c-.59-.36-1,.68-1,2.5s.41,2.86,1,2.5c.55-.34,1-1.46,1-2.5s-.45-2.16-1-2.5Z"/>
  <path class="cls-62" d="M186.36,109.43c.74-.28,1.89-.18,2.56.24.85.53.45,1.26-1.34,2.43-2.44,1.6-2.56,1.59-2.56-.24,0-1.05.6-2.15,1.34-2.43Z"/>
  <path class="cls-62" d="M189.52,111.73c.27,0,.5.23.5.5s-.23.5-.5.5-.5-.23-.5-.5.23-.5.5-.5Z"/>
  <path class="cls-44" d="M191.02,137.73h1v4c-.33-1.33-.67-2.67-1-4Z"/>
  <path class="cls-98" d="M195.02,143.73c-2.44.93-3,.56-3-.43v-5.57c.33-.67.67-1.33,1-2l2,2c.33.67.67,1.33,1,2v1c-.33,1-.67,2-1,3Z"/>
  <path class="cls-8" d="M215.52,164.73c.27,0,.5.23.5.5s-.23.5-.5.5-.5-.23-.5-.5.23-.5.5-.5Z"/>
  <path class="cls-29" d="M203.27,198.04c3.17-2.87,16.79-10.61,17.47-9.92,1.05,1.05-2.17,3.88-10.97,9.67-6.75,4.44-8.75,5.36-8.75,4.02,0-.95,1.01-2.65,2.25-3.77Z"/>
  <path class="cls-136" d="M208.52,144.73c.27,0,.5.23.5.5s-.23.5-.5.5-.5-.23-.5-.5.23-.5.5-.5Z"/>
  <path class="cls-41" d="M209.68,132.4c1.36-1.36,4.28-.7,3.7.83-.32.83-1.43,1.5-2.47,1.5-1.9,0-2.47-1.09-1.23-2.33Z"/>
  <path class="cls-88" d="M211.52,63.88c.17-.05.33-.1.5-.15.17.05.33.1.5.15.27.08.05.15-.5.15s-.77-.07-.5-.15Z"/>
  <path class="cls-46" d="M216.52,65.88c.17-.05.33-.1.5-.15.17.05.33.1.5.15.27.08.05.15-.5.15s-.77-.07-.5-.15Z"/>
  <path class="cls-46" d="M219.77,66.81c.96.04,1.3.27.75.5-1.35.57-2.5.53-2.5-.08,0-.27.79-.46,1.75-.42Z"/>
  <path class="cls-101" d="M225.02,118.73h1l-.81,4.5c-.03-.75-.06-1.5-.09-2.25-.03-.75-.06-1.5-.09-2.25Z"/>
  <path class="cls-150" d="M228.68,174.9c1.01.2,1.84,1.02,1.84,1.84,0,2.14-2.91,1.83-3.33-.36-.26-1.34.15-1.74,1.49-1.49Z"/>
  <path class="cls-169" d="M240.6,112.48c.41-.41,1.13-.75,1.59-.75,1.16,0,1.02,12.17-.17,14-.73,1.13-.98.63-1-2-.01-1.93-.29-5.07-.6-7s-.24-3.84.18-4.25Z"/>
  <path class="cls-33" d="M45.02,28.73c4.7-2.39,6.52-2.79,7.09-2.44.57.35,2.47.86,4.22,1.14,1.75.27,3.53.68,3.94.9.25.13.5.27.75.4,2,1.33,4,2.67,6,4-2.33,2-4.67,4-7,6l-6-3c-1.44.8-2.17,0-2.55-1.24-.63-2.05-4.45-4.99-4.45-3.42v.65c-.67-1-1.33-2-2-3Z"/>
  <path class="cls-65" d="M45.02,27.73v1c.67,1,1.33,2,2,3,.33.67.67,1.33,1,2v2c.67,1.33,1.33,2.67,2,4v1c-1.33-1-2.67-2-4-3-1.67-3.67-3.33-7.33-5-11-.93-3.18-.57-3.09,1.49-1.25.84.75,1.67,1.5,2.51,2.25Z"/>
  <path class="cls-121" d="M173.52,167.73c.27,0,.5.23.5.5s-.23.5-.5.5-.5-.23-.5-.5.23-.5.5-.5Z"/>
  <path class="cls-76" d="M235.42,96.77c3.6-1.37,8.03.15,8.43,2.88.64,4.41-.69,6.88-4.37,8.09-5.31,1.75-6.46.86-6.46-5.01,0-4.42.3-5.17,2.4-5.97ZM236.02,101.73c-.33.67-.67,1.33-1,2,.48,3.19.73,3.19,3.63,1.69,1.98-1.02,3.31-2.6,3.64-4.3.5-2.62.43-2.67-2.89-1.79-1.87.49-3.4,1.24-3.39,1.65,0,.25.01.5.02.75Z"/>
  <path class="cls-177" d="M34.02,25.35c0,.28-.45.22-1-.12s-1-.84-1-1.12.45-.22,1,.12,1,.84,1,1.12Z"/>
  <path class="cls-181" d="M79.52,30.73c.27,0,.5.23.5.5s-.23.5-.5.5-.5-.23-.5-.5.23-.5.5-.5Z"/>
  <path class="cls-93" d="M61.27,17.98c.69.23,1.41,1.26,1.62,2.3.32,1.63.15,1.71-1.25.54-1.91-1.59-2.15-3.44-.37-2.85Z"/>
  <path class="cls-37" d="M86.02,58.23c0,.27-.23.5-.5.5s-.5-.23-.5-.5.23-.5.5-.5.5.23.5.5Z"/>
  <path class="cls-130" d="M116.02,71.73c.67-.33,1.33-.67,2-1-.04.25-.08.5-.11.75-.06.41.61,1.54,3.11,4.25-3.88-1.99-5-2.89-5-3.29v-.71Z"/>
  <path class="cls-146" d="M118.02,70.73c7.09,4.22,7.25,4.49,5.25,4.73-.75.09-1.5.18-2.25.27-2.5-2.71-3.18-3.84-3.11-4.25.04-.25.08-.5.11-.75Z"/>
  <path class="cls-60" d="M136.05,99.73c2.59,0,4.51,4.32,2.16,4.86-1.47.34-4.19-2.29-4.19-4.05,0-.45.91-.81,2.03-.81Z"/>
  <path class="cls-158" d="M165.02,124.91c0,.67-.55.6-1.5-.18-.82-.68-1.5-.96-1.5-.62s-.32.62-.7.62-.2-.5.41-1.11c1.22-1.22,3.29-.4,3.29,1.29Z"/>
  <path class="cls-158" d="M165.52,125.73c.27,0,.5.23.5.5s-.23.5-.5.5-.5-.23-.5-.5.23-.5.5-.5Z"/>
  <path class="cls-124" d="M167.02,128.23c.55.34,1,1.27,1,2.06s-.45,1.44-1,1.44-1-.93-1-2.06.45-1.78,1-1.44Z"/>
  <path class="cls-78" d="M188.02,201.23c.55.34,1,1.46,1,2.5s-.45,2.16-1,2.5c-.59.36-1-.68-1-2.5s.41-2.86,1-2.5Z"/>
  <path class="cls-31" d="M235.02,103.73c.33-.67.67-1.33,1-2v2h-1Z"/>
  <path class="cls-83" d="M235.02,103.73h1c.52.2,1.04.39,1.55.58,1.03.39,1.96-.29,2.75-1.99,1.67-3.61-.29-3.42-4.3.41v-1c0-.25-.01-.5-.02-.75,0-.41,1.52-1.15,3.39-1.65,3.32-.88,3.39-.83,2.89,1.79-.33,1.7-1.66,3.28-3.64,4.3-2.89,1.5-3.15,1.49-3.63-1.69Z"/>
  <path class="cls-129" d="M236.02,103.73v-1c4.01-3.83,5.98-4.02,4.3-.41-.79,1.7-1.72,2.38-2.75,1.99-.52-.19-1.04-.39-1.55-.58Z"/>
</svg>