<svg xmlns="http://www.w3.org/2000/svg" width="192" height="192" viewBox="0 0 192 192" style="fill-rule:evenodd">
<defs>
  <linearGradient id="grad_199" x1="79.6335" y1="140.194" x2="73.0062" y2="128.527" gradientUnits="userSpaceOnUse">
    <stop offset="0" stop-color="rgb(52,16,56)"/>
    <stop offset="0.125" stop-color="rgb(76,31,64)"/>
    <stop offset="0.25" stop-color="rgb(89,44,74)"/>
    <stop offset="0.375" stop-color="rgb(81,33,65)"/>
    <stop offset="0.5" stop-color="rgb(61,20,61)"/>
    <stop offset="0.625" stop-color="rgb(48,16,61)"/>
    <stop offset="0.75" stop-color="rgb(44,18,62)"/>
    <stop offset="0.875" stop-color="rgb(40,23,54)"/>
    <stop offset="1" stop-color="rgb(20,7,37)"/>
  </linearGradient>
  <radialGradient id="radgrad_197" cx="124.667" cy="124.212" fx="119.036" fy="89.2497" r="57.1398" gradientUnits="userSpaceOnUse" gradientTransform="matrix(1 -0 -0 1 0 0)">
    <stop offset="0" stop-color="rgb(77,49,35)"/>
    <stop offset="0.706087" stop-color="rgb(77,49,35)"/>
    <stop offset="0.73058" stop-color="rgb(89,53,35)"/>
    <stop offset="0.755073" stop-color="rgb(90,53,37)"/>
    <stop offset="0.779566" stop-color="rgb(106,63,42)"/>
    <stop offset="0.804058" stop-color="rgb(100,57,41)"/>
    <stop offset="0.828551" stop-color="rgb(90,53,35)"/>
    <stop offset="0.853044" stop-color="rgb(66,38,30)"/>
    <stop offset="0.877536" stop-color="rgb(95,55,38)"/>
    <stop offset="0.902029" stop-color="rgb(94,55,40)"/>
    <stop offset="0.926522" stop-color="rgb(106,60,43)"/>
    <stop offset="0.951015" stop-color="rgb(100,57,41)"/>
    <stop offset="0.975507" stop-color="rgb(121,71,48)"/>
    <stop offset="1" stop-color="rgb(129,75,49)"/>
  </radialGradient>
  <linearGradient id="grad_196" x1="102.076" y1="109.394" x2="97.7202" y2="104.726" gradientUnits="userSpaceOnUse">
    <stop offset="0" stop-color="rgb(193,141,214)"/>
    <stop offset="0.333333" stop-color="rgb(184,122,214)"/>
    <stop offset="0.666667" stop-color="rgb(185,124,212)"/>
    <stop offset="1" stop-color="rgb(204,154,209)"/>
  </linearGradient>
  <radialGradient id="radgrad_195" cx="130.478" cy="115.021" fx="133.675" fy="135.396" r="38.1046" gradientUnits="userSpaceOnUse" gradientTransform="matrix(1 -0 -0 1 0 0)">
    <stop offset="0" stop-color="rgb(33,27,44)"/>
    <stop offset="0.743686" stop-color="rgb(33,27,44)"/>
    <stop offset="0.772165" stop-color="rgb(28,23,39)"/>
    <stop offset="0.800644" stop-color="rgb(22,18,38)"/>
    <stop offset="0.829124" stop-color="rgb(21,16,36)"/>
    <stop offset="0.857603" stop-color="rgb(27,20,39)"/>
    <stop offset="0.886083" stop-color="rgb(24,16,36)"/>
    <stop offset="0.914562" stop-color="rgb(22,10,34)"/>
    <stop offset="0.943041" stop-color="rgb(22,8,37)"/>
    <stop offset="0.971521" stop-color="rgb(22,8,42)"/>
    <stop offset="1" stop-color="rgb(45,18,75)"/>
  </radialGradient>
  <radialGradient id="radgrad_193" cx="46.1565" cy="30.251" fx="47.1154" fy="25.4883" r="18.2292" gradientUnits="userSpaceOnUse" gradientTransform="matrix(1 -0 -0 1 0 0)">
    <stop offset="0" stop-color="rgb(110,49,155)"/>
    <stop offset="0.639661" stop-color="rgb(110,49,155)"/>
    <stop offset="0.699717" stop-color="rgb(96,41,150)"/>
    <stop offset="0.759774" stop-color="rgb(90,38,146)"/>
    <stop offset="0.81983" stop-color="rgb(77,30,137)"/>
    <stop offset="0.879887" stop-color="rgb(64,28,112)"/>
    <stop offset="0.939943" stop-color="rgb(39,18,80)"/>
    <stop offset="1" stop-color="rgb(33,14,64)"/>
  </radialGradient>
  <radialGradient id="radgrad_192" cx="21.3052" cy="58.3167" fx="9.14983" fy="72.7656" r="41.1503" gradientUnits="userSpaceOnUse" gradientTransform="matrix(1 -0 -0 1 0 0)">
    <stop offset="0" stop-color="rgb(214,167,190)"/>
    <stop offset="0.740535" stop-color="rgb(214,167,190)"/>
    <stop offset="0.766481" stop-color="rgb(211,169,184)"/>
    <stop offset="0.792428" stop-color="rgb(209,172,180)"/>
    <stop offset="0.818374" stop-color="rgb(217,179,187)"/>
    <stop offset="0.844321" stop-color="rgb(224,191,191)"/>
    <stop offset="0.870267" stop-color="rgb(245,224,217)"/>
    <stop offset="0.896214" stop-color="rgb(241,225,221)"/>
    <stop offset="0.92216" stop-color="rgb(229,212,212)"/>
    <stop offset="0.948107" stop-color="rgb(202,185,185)"/>
    <stop offset="0.974053" stop-color="rgb(177,154,164)"/>
    <stop offset="1" stop-color="rgb(128,105,106)"/>
  </radialGradient>
  <radialGradient id="radgrad_191" cx="43.1494" cy="20.4637" fx="18.3311" fy="26.127" r="35.0246" gradientUnits="userSpaceOnUse" gradientTransform="matrix(-0.262838 0.96484 1.67346 0.455878 0 0)">
    <stop offset="0" stop-color="rgb(68,51,52)"/>
    <stop offset="0.187457" stop-color="rgb(68,51,52)"/>
    <stop offset="0.222785" stop-color="rgb(37,30,33)"/>
    <stop offset="0.258113" stop-color="rgb(43,36,40)"/>
    <stop offset="0.293441" stop-color="rgb(42,29,37)"/>
    <stop offset="0.328768" stop-color="rgb(38,29,34)"/>
    <stop offset="0.364096" stop-color="rgb(30,23,29)"/>
    <stop offset="0.399424" stop-color="rgb(29,22,28)"/>
    <stop offset="0.434752" stop-color="rgb(43,35,35)"/>
    <stop offset="0.47008" stop-color="rgb(31,27,31)"/>
    <stop offset="0.505408" stop-color="rgb(34,31,32)"/>
    <stop offset="0.540736" stop-color="rgb(51,43,41)"/>
    <stop offset="0.576064" stop-color="rgb(27,23,25)"/>
    <stop offset="0.611392" stop-color="rgb(35,27,30)"/>
    <stop offset="0.64672" stop-color="rgb(34,26,25)"/>
    <stop offset="0.682048" stop-color="rgb(23,17,22)"/>
    <stop offset="0.717376" stop-color="rgb(36,30,27)"/>
    <stop offset="0.752704" stop-color="rgb(31,24,23)"/>
    <stop offset="0.788032" stop-color="rgb(23,16,21)"/>
    <stop offset="0.82336" stop-color="rgb(25,19,21)"/>
    <stop offset="0.858688" stop-color="rgb(24,18,18)"/>
    <stop offset="0.894016" stop-color="rgb(40,34,30)"/>
    <stop offset="0.929344" stop-color="rgb(77,65,51)"/>
    <stop offset="0.964672" stop-color="rgb(89,78,62)"/>
    <stop offset="1" stop-color="rgb(87,76,60)"/>
  </radialGradient>
  <linearGradient id="grad_17" x1="-8.9424" y1="47.313" x2="-8.21246" y2="43.4509" gradientUnits="userSpaceOnUse">
    <stop offset="0" stop-color="rgb(36,13,66)"/>
    <stop offset="1" stop-color="rgb(34,13,71)"/>
  </linearGradient>
  <linearGradient id="grad_4" x1="43.7043" y1="-16.0376" x2="119.069" y2="-43.6932" gradientUnits="userSpaceOnUse">
    <stop offset="0" stop-color="rgb(7,1,22)"/>
    <stop offset="0.0526316" stop-color="rgb(10,2,23)"/>
    <stop offset="0.105263" stop-color="rgb(10,2,20)"/>
    <stop offset="0.157895" stop-color="rgb(10,2,20)"/>
    <stop offset="0.210526" stop-color="rgb(6,2,19)"/>
    <stop offset="0.473684" stop-color="rgb(6,2,21)"/>
    <stop offset="0.578947" stop-color="rgb(7,1,22)"/>
    <stop offset="0.684211" stop-color="rgb(12,2,22)"/>
    <stop offset="0.736842" stop-color="rgb(7,1,22)"/>
    <stop offset="0.789474" stop-color="rgb(8,1,23)"/>
    <stop offset="0.842105" stop-color="rgb(10,2,28)"/>
    <stop offset="0.894737" stop-color="rgb(13,2,34)"/>
    <stop offset="0.947368" stop-color="rgb(13,3,38)"/>
    <stop offset="1" stop-color="rgb(15,5,40)"/>
  </linearGradient>
  <radialGradient id="radgrad_18" cx="180.896" cy="94.6135" fx="174.102" fy="89.6343" r="11.9026" gradientUnits="userSpaceOnUse" gradientTransform="matrix(1 -0 -0 1 0 0)">
    <stop offset="0" stop-color="rgb(23,8,51)"/>
    <stop offset="0.0362243" stop-color="rgb(23,8,51)"/>
    <stop offset="0.518112" stop-color="rgb(33,10,55)"/>
    <stop offset="1" stop-color="rgb(42,13,56)"/>
  </radialGradient>
  <radialGradient id="radgrad_5" cx="97.7843" cy="88.4211" fx="108.935" fy="101.302" r="32.5811" gradientUnits="userSpaceOnUse" gradientTransform="matrix(1 -0 -0 1 0 0)">
    <stop offset="0" stop-color="rgb(105,54,152)"/>
    <stop offset="0.427083" stop-color="rgb(105,54,152)"/>
    <stop offset="0.460784" stop-color="rgb(109,55,156)"/>
    <stop offset="0.528186" stop-color="rgb(111,56,159)"/>
    <stop offset="0.595588" stop-color="rgb(115,59,163)"/>
    <stop offset="0.629289" stop-color="rgb(112,60,162)"/>
    <stop offset="0.66299" stop-color="rgb(114,61,164)"/>
    <stop offset="0.730392" stop-color="rgb(112,61,162)"/>
    <stop offset="0.831495" stop-color="rgb(118,62,167)"/>
    <stop offset="0.898897" stop-color="rgb(123,67,172)"/>
    <stop offset="0.932598" stop-color="rgb(129,71,175)"/>
    <stop offset="0.966299" stop-color="rgb(134,73,174)"/>
    <stop offset="1" stop-color="rgb(139,74,175)"/>
  </radialGradient>
  <radialGradient id="radgrad_9" cx="90.8167" cy="25.0737" fx="89.0273" fy="24.6183" r="8.53383" gradientUnits="userSpaceOnUse" gradientTransform="matrix(-0.378156 0.925742 5.55445 2.26893 0 0)">
    <stop offset="0" stop-color="rgb(15,4,41)"/>
    <stop offset="0.0443303" stop-color="rgb(15,4,41)"/>
    <stop offset="0.362887" stop-color="rgb(11,3,36)"/>
    <stop offset="0.681443" stop-color="rgb(13,2,31)"/>
    <stop offset="1" stop-color="rgb(13,3,32)"/>
  </radialGradient>
  <radialGradient id="radgrad_15" cx="138.256" cy="119.847" fx="121.967" fy="127.482" r="19.5256" gradientUnits="userSpaceOnUse" gradientTransform="matrix(1 -0 -0 1 0 0)">
    <stop offset="0" stop-color="rgb(22,7,55)"/>
    <stop offset="0.0254205" stop-color="rgb(22,7,55)"/>
    <stop offset="0.51271" stop-color="rgb(29,13,52)"/>
    <stop offset="1" stop-color="rgb(34,14,57)"/>
  </radialGradient>
  <radialGradient id="radgrad_2" cx="43.5651" cy="37.3758" fx="45.1884" fy="34.4378" r="16.0239" gradientUnits="userSpaceOnUse" gradientTransform="matrix(1 -0 -0 1 0 0)">
    <stop offset="0" stop-color="rgb(54,18,94)"/>
    <stop offset="0.617648" stop-color="rgb(54,18,94)"/>
    <stop offset="0.713236" stop-color="rgb(39,14,75)"/>
    <stop offset="0.808824" stop-color="rgb(29,12,62)"/>
    <stop offset="1" stop-color="rgb(22,6,42)"/>
  </radialGradient>
  <linearGradient id="grad_14" x1="-15.0997" y1="28.5514" x2="-13.228" y2="25.0124" gradientUnits="userSpaceOnUse">
    <stop offset="0" stop-color="rgb(199,135,235)"/>
    <stop offset="1" stop-color="rgb(206,144,240)"/>
  </linearGradient>
  <radialGradient id="radgrad_7" cx="122.494" cy="116.604" fx="138.553" fy="123.156" r="21.2132" gradientUnits="userSpaceOnUse" gradientTransform="matrix(1 -0 -0 1 0 0)">
    <stop offset="0" stop-color="rgb(16,6,42)"/>
    <stop offset="0.132391" stop-color="rgb(16,6,42)"/>
    <stop offset="0.566195" stop-color="rgb(11,4,38)"/>
    <stop offset="1" stop-color="rgb(17,5,36)"/>
  </radialGradient>
</defs>
<path d="M 50 36 C 50.3333 35.6667, 50.6667 35.3333, 51 35 C 51.911 35.8352, 52.822 36.6705, 53.733 37.5057 C 55.2361 38.8838, 56.8111 39.7838, 58 39 C 58.5122 39.4408, 59.0245 39.8816, 59.5367 40.3225 C 60.382 41.0498, 60.832 42.3998, 60 45 C 60.0021 45.25, 60.0041 45.5, 60.0062 45.75 C 60.0096 46.1625, 59.4048 46.632, 58.6622 46.7933 C 57.9197 46.9546, 56.3284 48.4171, 55.1261 50.0433 C 52.1273 54.0995, 49.3944 53.7486, 47 49 C 47.0149 48.75, 47.0298 48.5, 47.0446 48.25 C 47.0692 47.8375, 46.6185 46.9557, 46.043 46.2905 C 44.7207 44.7618, 48.5544 40.8918, 50.6097 41.6805 C 51.3744 41.9739, 52 41.7158, 52 40 C 51.3333 38.6667, 50.6667 37.3333, 50 36 Z " fill="url(#radgrad_2)" />
<path d="M 95 135 C 94.1958 133.385, 93.3915 131.77, 92.5873 130.155 C 91.2603 127.49, 89.6853 122.765, 88 114 C 88.3099 114.583, 88.6198 115.167, 88.9297 115.75 C 89.5948 117.002, 89.8794 115.721, 89.9297 111.25 C 89.9835 106.471, 90.3435 105, 91.4589 105 C 92.2613 105, 94.5113 104.325, 100 102 C 100 104.667, 100 107.333, 100 110 C 99.814 111.527, 99.628 113.054, 99.4419 114.58 C 98.8291 119.61, 97.1502 124, 95.8395 124 C 94.1408 124, 95.0796 128.346, 98 134 C 98 134.222, 98 134.444, 98 134.667 C 98 135.033, 97.325 135.258, 95 135 Z " fill="rgb(58,23,100)" />
<path d="M 179 99 C 178.666 102.585, 178.331 106.171, 177.997 109.756 C 176.058 130.54, 166.52 147.754, 150.266 159.802 C 143.387 164.902, 132.183 172, 131.012 172 C 129.589 172, 115.906 162.676, 109 157 C 107.917 155.695, 106.833 154.39, 105.75 153.085 C 104.667 151.78, 103.583 150.474, 102.5 149.169 C 104.333 149.113, 106.167 149.056, 108 149 C 108.667 149.333, 109.333 149.667, 110 150 C 112 151.326, 114 152.652, 116 153.978 C 120.167 156.742, 122 157.505, 122 155 C 122.75 155.61, 123.5 156.22, 124.25 156.829 C 125.488 157.836, 127.283 159.636, 128.24 160.829 C 130.839 164.071, 132.732 163.469, 134 159 C 134 158.667, 134 158.333, 134 158 C 133.301 156.527, 132.603 155.054, 131.904 153.582 C 130.651 150.939, 128.742 148.707, 127.154 148.026 C 123.232 146.346, 117.681 141.326, 118.421 140.128 C 118.775 139.556, 119.725 139.293, 122 140 C 124 141, 126 142, 128 143 C 128.857 143.21, 129.713 143.42, 130.57 143.63 C 132.033 143.989, 133.541 143.773, 135 142 C 135.25 142.016, 135.5 142.033, 135.75 142.049 C 136.163 142.076, 138.3 140.362, 140.5 138.241 C 142.7 136.119, 145.023 134.555, 145.662 134.765 C 146.3 134.975, 149.731 133.744, 153.286 132.029 C 155.44 130.99, 157.594 129.951, 159.748 128.912 C 160.165 119.608, 160.583 110.304, 161 101 C 161.667 99, 162.333 97, 163 95 C 163.847 95.2082, 164.694 95.4163, 165.541 95.6245 C 167.338 96.0659, 168.364 97.2388, 170 103 C 170.496 102.213, 170.992 101.426, 171.488 100.639 C 172.306 99.3409, 174.331 97.3159, 179 94 C 178.705 94.25, 178.409 94.5, 178.114 94.75 C 177.818 95, 177.523 95.25, 177.227 95.5 C 177.818 96.6667, 178.409 97.8333, 179 99 Z M 159.742 136.659 C 158.545 137.399, 159.247 140.25, 160.749 140.75 C 162.524 141.341, 163.584 137.979, 161.943 136.965 C 161.202 136.507, 160.212 136.369, 159.742 136.659 Z " fill="url(#grad_4)" />
<path d="M 170 147 C 170.25 146.387, 170.5 145.774, 170.75 145.161 C 171.163 144.149, 172.77 140.661, 174.323 137.411 C 175.876 134.16, 177.789 129.137, 180 121 C 180.667 120.667, 181.333 120.333, 182 120 C 182.333 120.333, 182.667 120.667, 183 121 C 182.636 122.583, 182.272 124.167, 181.907 125.75 C 181.306 128.363, 180.437 131.4, 179.975 132.5 C 176.785 140.099, 175.218 143.145, 172 148 C 171.667 148, 171.333 148, 171 148 C 170.667 147.667, 170.333 147.333, 170 147 Z " fill="url(#grad_4)" />
<path d="M 100 100 C 99.5 100, 99 100, 98.5 100 C 97.3918 100, 97 98.8399, 97 95.559 C 97 93.1165, 97.4533 90.8379, 98.0074 90.4954 C 98.5614 90.153, 99.9114 88.1015, 103 82 C 104 81.6667, 105 81.3333, 106 81 C 106.333 81, 106.667 81, 107 81 C 108.305 80.514, 109.61 80.0281, 110.915 79.5421 C 113.068 78.7403, 115.155 77.5578, 115.553 76.9144 C 116.103 76.0236, 115.05 76.0135, 106 78 C 105.816 77.697, 105.631 77.3941, 105.447 77.0911 C 105.143 76.5912, 106.237 75.8873, 107.878 75.5268 C 109.519 75.1664, 111.455 74.1411, 112.181 73.2485 C 113.318 71.8493, 113.259 71.7203, 110 73 C 109.333 72.6667, 108.667 72.3333, 108 72 C 108.333 72, 108.667 72, 109 72 C 109.667 71.6667, 110.333 71.3333, 111 71 C 115.333 69.3333, 119.667 67.6667, 124 66 C 123.995 66.25, 123.99 66.5, 123.985 66.75 C 123.946 68.6668, 130.124 74.1708, 131 73 C 132 72.6667, 133 72.3333, 134 72 C 134.351 71.8029, 134.702 71.6058, 135.052 71.4087 C 135.403 71.2116, 135.754 71.0145, 136.105 70.8174 C 135.403 72.8783, 134.702 74.9391, 134 77 C 133.121 77.1844, 132.242 77.3689, 131.363 77.5534 C 129.913 77.8577, 127.326 79.1435, 125.613 80.4106 C 123.901 81.6777, 118.225 84.8986, 113 87.5681 C 107.775 90.2377, 102.713 93.0716, 101.75 93.8659 C 100.787 94.6601, 100 96.3652, 100 100 Z " fill="url(#radgrad_5)" />
<path d="M 132 69 C 131.958 68.1606, 131.917 67.3212, 131.875 66.4818 C 131.806 65.0967, 131.356 63.7467, 130 63 C 130.417 62.9167, 130.833 62.8333, 131.25 62.75 C 132.008 62.5985, 132.598 63.7803, 133 69 C 132.667 69, 132.333 69, 132 69 Z " fill="url(#radgrad_5)" />
<path d="M 132 142 C 131.333 141.333, 130.667 140.667, 130 140 C 130.333 138.667, 130.667 137.333, 131 136 C 131.667 135.664, 132.333 135.328, 133 134.992 C 134.195 134.389, 135 132.98, 135 129 C 134.839 128.487, 134.678 127.974, 134.517 127.462 C 134.239 126.577, 134.876 125.514, 138 124 C 139.333 124, 140.667 124, 142 124 C 144.2 124, 146 124.45, 146 126 C 141.333 131.333, 136.667 136.667, 132 142 Z " fill="url(#radgrad_7)" />
<path d="M 152 121 C 152.5 120.626, 153 120.252, 153.5 119.878 C 154 119.503, 154.5 119.129, 155 118.755 C 155 119.129, 155 119.503, 155 119.878 C 155 120.495, 155.675 121, 156.5 121 C 157.333 121, 158 121.889, 158 123 C 158 125.788, 156.266 125.499, 152 122 C 152 121.667, 152 121.333, 152 121 Z " fill="url(#radgrad_7)" />
<path d="M 95 135 C 97.325 135.258, 98 135.033, 98 134.667 C 98 134.444, 98 134.222, 98 134 C 98.5079 133.563, 99.0159 133.127, 99.5238 132.69 C 100.362 131.97, 100.719 131.052, 100.317 130.651 C 99.9159 130.249, 100.58 129.714, 104 129 C 104.333 129, 104.667 129, 105 129 C 105.917 129.509, 106.833 130.018, 107.75 130.527 C 111.004 132.334, 113.469 133.973, 122 140 C 119.725 139.293, 118.775 139.556, 118.421 140.128 C 117.681 141.326, 123.232 146.346, 127.154 148.026 C 128.742 148.707, 130.651 150.939, 131.904 153.582 C 132.603 155.054, 133.301 156.527, 134 158 C 133.667 158, 133.333 158, 133 158 C 133 157.667, 133 157.333, 133 157 C 132.792 156.485, 132.584 155.97, 132.376 155.455 C 131.847 154.147, 131.533 154.221, 130.331 155.938 C 129.234 157.504, 129.166 158.442, 130.035 160.065 C 131.052 161.965, 131.294 162.014, 134 159 C 132.732 163.469, 130.839 164.071, 128.24 160.829 C 127.283 159.636, 125.488 157.836, 124.25 156.829 C 123.5 156.22, 122.75 155.61, 122 155 C 118.333 152.667, 114.667 150.333, 111 148 C 110.559 147.488, 110.118 146.976, 109.678 146.463 C 108.902 145.563, 107.649 145.198, 106.648 145.582 C 105.122 146.167, 105.103 146.383, 108 149 C 106.167 149.056, 104.333 149.113, 102.5 149.169 C 103.583 150.474, 104.667 151.78, 105.75 153.085 C 106.833 154.39, 107.917 155.695, 109 157 C 106 154.333, 103 151.667, 100 149 C 99.6644 148.598, 99.3288 148.195, 98.9931 147.793 C 98.4394 147.129, 97.0894 144.879, 94 139 C 94.3333 137.667, 94.6667 136.333, 95 135 Z M 102 137 C 101.45 137, 101 137.45, 101 138 C 101 138.55, 101.45 139, 102 139 C 102.55 139, 103 138.55, 103 138 C 103 137.45, 102.55 137, 102 137 Z " fill="url(#radgrad_9)" />
<path d="M 170 147 C 170.333 147.333, 170.667 147.667, 171 148 C 166 153.333, 161 158.667, 156 164 C 154.146 165.45, 152.292 166.9, 150.439 168.35 C 147.38 170.743, 141.619 174.423, 137.637 176.527 C 135.224 177.803, 132.811 179.078, 130.397 180.354 C 129.414 179.681, 128.432 179.009, 127.449 178.337 C 125.827 177.228, 121.125 174.153, 117 171.504 C 106.114 164.514, 94.6274 152.82, 89 143 C 89 142.333, 89 141.667, 89 141 C 90.3724 142.817, 91.7448 144.634, 93.1173 146.451 C 95.3817 149.449, 98.0817 152.599, 101 155 C 102.583 156.352, 104.167 157.705, 105.75 159.057 C 114.028 166.128, 116.169 167.757, 118.868 169.035 C 120.316 169.72, 123.629 171.366, 126.231 172.693 C 130.288 174.761, 131.464 174.954, 138 173 C 139.274 172.25, 140.548 171.5, 141.822 170.75 C 147.573 167.364, 158.716 158.346, 163.595 153.128 C 165.975 150.583, 168.39 148.163, 170 147 Z " fill="url(#radgrad_9)" />
<path d="M 105 110 C 105.333 109, 105.667 108, 106 107 C 106.333 107.667, 106.667 108.333, 107 109 C 107 109.333, 107 109.667, 107 110 C 106.333 110, 105.667 110, 105 110 Z " fill="rgb(155,85,213)" />
<path d="M 109 110 C 108.667 109.667, 108.333 109.333, 108 109 C 108 107.667, 108 106.333, 108 105 C 107.999 104.25, 107.999 103.5, 107.998 102.75 C 107.997 101.512, 108.663 99.825, 109.478 99 C 110.792 97.6703, 110.963 97.8122, 111 103 C 111 103.333, 111 103.667, 111 104 C 112.333 104.333, 113.667 104.667, 115 105 C 115.365 105.417, 115.73 105.833, 116.095 106.25 C 116.95 107.226, 117.499 107.006, 120 103 C 120 104.333, 120 105.667, 120 107 C 118.333 109.667, 116.667 112.333, 115 115 C 114 115.333, 113 115.667, 112 116 C 111 114, 110 112, 109 110 Z " fill="rgb(155,85,213)" />
<path d="M 121 111 C 122.667 110.667, 124.333 110.333, 126 110 C 126.25 109.996, 126.5 109.991, 126.75 109.987 C 128.315 109.959, 127.936 111.748, 126.007 113.494 C 122.485 116.681, 123.655 118, 130 118 C 130 118.333, 130 118.667, 130 119 C 129.75 119.045, 129.5 119.09, 129.25 119.134 C 128.837 119.208, 129.962 119.883, 135 122 C 134 122, 133 122, 132 122 C 129.25 121.917, 126.5 121.833, 123.75 121.75 C 117.786 121.569, 115.569 121.154, 116 119 C 116.333 118.333, 116.667 117.667, 117 117 C 118.333 115, 119.667 113, 121 111 Z " fill="rgb(155,85,213)" />
<path d="M 120 107 C 120 105.667, 120 104.333, 120 103 C 119.583 102.79, 119.167 102.58, 118.75 102.37 C 118.062 102.023, 116.713 101.123, 114 99 C 113.985 98.75, 113.97 98.5, 113.955 98.25 C 113.931 97.8375, 114.381 96.9375, 116 95 C 117.859 94.637, 119.718 94.2739, 121.578 93.9109 C 124.645 93.3119, 127.352 93.0185, 127.592 93.2589 C 127.833 93.4992, 126.898 95.7893, 123 103 C 122 104.333, 121 105.667, 120 107 Z " fill="url(#grad_14)" />
<path d="M 127 100 C 127.714 98.9167, 128.428 97.8333, 129.142 96.75 C 130.692 94.399, 131.522 93.8458, 133 96 C 132.75 95.9988, 132.5 95.9976, 132.25 95.9965 C 131.837 95.9945, 131.163 98.6945, 130 108 C 128 108, 126 108, 124 108 C 124 107.667, 124 107.333, 124 107 C 124.667 105.333, 125.333 103.667, 126 102 C 126.333 101.667, 126.667 101.333, 127 101 C 127 100.667, 127 100.333, 127 100 Z " fill="url(#grad_14)" />
<path d="M 131 136 C 130.667 137.333, 130.333 138.667, 130 140 C 129.333 139.667, 128.667 139.333, 128 139 C 127.667 138.667, 127.333 138.333, 127 138 C 126.333 137, 125.667 136, 125 135 C 123.667 133.667, 122.333 132.333, 121 131 C 120 129.667, 119 128.333, 118 127 C 117.998 126.75, 117.996 126.5, 117.995 126.25 C 117.992 125.838, 119.117 125.162, 123 124 C 126 124, 129 124, 132 124 C 134 124, 136 124, 138 124 C 134.876 125.514, 134.239 126.577, 134.517 127.462 C 134.678 127.974, 134.839 128.487, 135 129 C 134.36 128.603, 133.721 128.207, 133.081 127.81 C 131.576 126.877, 130.822 126.903, 129.581 127.933 C 127.396 129.746, 127.587 130.829, 131 136 Z " fill="url(#radgrad_15)" />
<path d="M 113 126 C 114 127, 115 128, 116 129 C 114.833 129.133, 113.667 129.267, 112.5 129.4 C 107.536 129.968, 107.906 127.451, 113 126 Z " fill="url(#radgrad_15)" />
<path d="M 169 76 C 168.685 76.8071, 168.37 77.6143, 168.055 78.4214 C 167.279 80.4073, 166.56 80.767, 161 80 C 160.819 79.4167, 160.638 78.8333, 160.457 78.25 C 159.425 74.9249, 163.495 73.8531, 169 76 Z " fill="url(#grad_17)" />
<path d="M 179 94 C 174.331 97.3159, 172.306 99.3409, 171.488 100.639 C 170.992 101.426, 170.496 102.213, 170 103 C 170.212 101.298, 170.425 99.596, 170.637 97.8939 C 171.054 94.5553, 170.881 92.4785, 169 91 C 169.5 90.2655, 170 89.5311, 170.5 88.7966 C 171.325 87.5847, 172 86.2347, 172 85 C 172.571 85.4991, 173.141 85.9983, 173.712 86.4974 C 174.282 86.9966, 174.853 87.4957, 175.423 87.9948 C 175.949 86.9966, 176.474 85.9983, 177 85 C 177.044 86.1856, 177.087 87.3712, 177.131 88.5568 C 177.226 91.1402, 177.636 91.9612, 180 91 C 179.667 92, 179.333 93, 179 94 Z " fill="url(#radgrad_18)" />
<path d="M 177 85 C 176.474 85.9983, 175.949 86.9966, 175.423 87.9948 C 174.853 87.4957, 174.282 86.9966, 173.712 86.4974 C 173.141 85.9983, 172.571 85.4991, 172 85 C 172.146 84.5276, 172.291 84.0552, 172.437 83.5828 C 172.677 82.8033, 172.252 81.9268, 171.491 81.635 C 170.547 81.2726, 170.25 79.9792, 171 74 C 172.333 74.3333, 173.667 74.6667, 175 75 C 175.507 75.75, 176.015 76.5, 176.522 77.25 C 177.416 78.5715, 177.829 80.6349, 177 85 Z " fill="rgb(33,10,63)" />
<path d="M 0 17 C 15.5063 11.3599, 28.6958 11.9496, 43.6362 18.9508 C 55.3165 24.4244, 61.9754 31.5163, 64.3393 41 C 64.7766 42.7541, 68.2431 45.7376, 75.9587 51 C 82.0066 55.125, 88.3908 59.5187, 90.1457 60.7637 C 92.6329 62.5282, 94.1265 62.8886, 96.9183 62.3975 C 102.345 61.443, 119.818 54.7153, 125.918 51.2317 C 127.719 50.2028, 129.521 49.1739, 131.322 48.145 C 134.977 49.9779, 138.632 51.8108, 142.286 53.6437 C 151.464 58.2465, 173.174 65.5782, 176.25 65.1134 C 176.5 65.0756, 176.75 65.0378, 177 65 C 177.667 65.3333, 178.333 65.6667, 179 66 C 187.559 67.0134, 188.961 67.6506, 189.404 69.0807 C 189.603 69.7205, 189.801 70.3602, 190 71 C 189.667 71.6667, 189.333 72.3333, 189 73 C 189 77.6667, 189 82.3333, 189 87 C 188.821 83.8333, 188.643 80.6667, 188.464 77.5 C 187.934 68.117, 187.896 68, 185.371 68 C 179.907 68, 161.84 63.6489, 148 59 C 145.75 58.0078, 143.5 57.0157, 141.25 56.0235 C 137.538 54.3864, 133.795 52.5285, 132.934 51.8947 C 131.691 50.9801, 130.526 51.2739, 127.286 53.3196 C 125.041 54.737, 119.445 57.3102, 114.852 59.0379 C 110.258 60.7655, 105.122 62.795, 103.437 63.5479 C 101.752 64.3007, 98.5059 65.2153, 96.2235 65.5803 C 92.3693 66.1966, 91.5899 65.89, 85.2868 61.2789 C 81.5541 58.5482, 76.3625 54.8933, 69 50 C 68.3333 49.6667, 67.6667 49.3333, 67 49 C 66.6667 48.6667, 66.3333 48.3333, 66 48 C 65 47, 64 46, 63 45 C 62.6667 44.3333, 62.3333 43.6667, 62 43 C 61.1775 41.0683, 60.355 39.1366, 59.5325 37.2048 C 58.1754 34.0175, 55.9254 30.4175, 52 27 C 51.3333 26.3333, 50.6667 25.6667, 50 25 C 47.6693 23.87, 45.3387 22.7401, 43.008 21.6101 C 39.1624 19.7457, 33.0874 17.7207, 23 16 C 20.3333 16, 17.6667 16, 15 16 C 12 16.3333, 9 16.6667, 6 17 C 5.66667 17.6667, 5.33333 18.3333, 5 19 C 5.95481 19.5452, 6.90963 20.0904, 7.86444 20.6355 C 11.8328 22.9014, 15.6832 29.2178, 18.1443 37.4994 C 19.2885 41.3497, 21.0742 46.1875, 24 52 C 24.9805 53.1768, 25.961 54.3536, 26.9416 55.5304 C 30.3409 59.6101, 36.7368 62.7281, 43.6505 63.6757 C 47.7987 64.2442, 49.616 65.3398, 56.4955 71.419 C 60.9027 75.3135, 66.8163 80.4101, 69.6367 82.7447 C 72.4572 85.0792, 75.0427 88.1167, 76 92 C 76 94, 76 96, 76 98 C 76.3333 99.3333, 76.6667 100.667, 77 102 C 77 104.333, 77 106.667, 77 109 C 77.3333 110.333, 77.6667 111.667, 78 113 C 78 114.333, 78 115.667, 78 117 C 78.3333 118, 78.6667 119, 79 120 C 79 120.667, 79 121.333, 79 122 C 78.6667 122.333, 78.3333 122.667, 78 123 C 78 122.333, 78 121.667, 78 121 C 77.6667 120.667, 77.3333 120.333, 77 120 C 74.5414 103.338, 73.8406 96.3661, 73.8565 93.7581 C 73.8661 92.1774, 73.8757 90.5968, 73.8854 89.0161 C 70.0711 85.6801, 66.2569 82.3441, 62.4427 79.0081 C 58.6285 75.672, 54.8142 72.336, 51 69 C 49.6667 67.6667, 48.3333 66.3333, 47 65 C 38.0116 65, 32.5001 62.8904, 26.6478 57.2098 C 21.5762 52.287, 17.5019 44.7055, 14.5917 34.7756 C 12.5418 27.7813, 9.20769 23.6362, 3.96723 21.5667 C 2.64482 21.0445, 1.32241 20.5222, 0 20 C 0 19, 0 18, 0 17 Z M 77.5 53 C 77.225 53, 77 53.225, 77 53.5 C 77 53.775, 77.225 54, 77.5 54 C 77.775 54, 78 53.775, 78 53.5 C 78 53.225, 77.775 53, 77.5 53 Z M 78.5 54 C 78.225 54, 78 54.225, 78 54.5 C 78 54.775, 78.225 55, 78.5 55 C 78.775 55, 79 54.775, 79 54.5 C 79 54.225, 78.775 54, 78.5 54 Z " fill="rgb(226,197,145)" />
<path d="M 13 18 C 16 18, 19 18, 22 18 C 20.6653 18.1962, 19.3305 18.3924, 17.9958 18.5886 C 15.7934 18.9124, 14.2184 19.5874, 15 21 C 14.3333 20, 13.6667 19, 13 18 Z " fill="rgb(83,54,108)" />
<path d="M 15 21 C 14.2184 19.5874, 15.7934 18.9124, 17.9958 18.5886 C 19.3305 18.3924, 20.6653 18.1962, 22 18 C 23.3333 18.3333, 24.6667 18.6667, 26 19 C 25.2772 19.0833, 24.5545 19.1667, 23.8317 19.25 C 22.2395 19.4336, 23.6205 20.5627, 29.0295 23.5 C 33.0809 25.7, 35.9994 26.8475, 35.5152 26.05 C 34.1369 23.78, 36.9771 24.7898, 41 28 C 41.5833 28.668, 42.1667 29.336, 42.75 30.004 C 44.4311 31.9291, 44.4213 31.9837, 42.5 31.3901 C 40.871 30.8869, 41.0101 31.2571, 46 36 C 46 36.4611, 46 36.9223, 46 37.3834 C 46 39.1695, 41.0814 40.1139, 38.6252 38.7994 C 36.9261 37.8901, 36.7993 38.0643, 37.4047 40.4761 C 38.3839 44.3777, 36.5563 42.8641, 32 36 C 31.3333 35.3333, 30.6667 34.6667, 30 34 C 29.3333 32.6667, 28.6667 31.3333, 28 30 C 27 29.3333, 26 28.6667, 25 28 C 24.6667 28, 24.3333 28, 24 28 C 21 25.6667, 18 23.3333, 15 21 Z " fill="rgb(179,115,224)" />
<path d="M 18 27 C 17.6667 27, 17.3333 27, 17 27 C 17.0245 26.75, 17.049 26.5, 17.0735 26.25 C 17.098 26, 17.1225 25.75, 17.1471 25.5 C 17.7647 26, 18.3824 26.5, 19 27 C 18.6667 27, 18.3333 27, 18 27 Z " fill="rgb(121,78,103)" />
<path d="M 33 48 C 33.4167 48.4167, 33.8333 48.8333, 34.25 49.25 C 35.25 50.25, 35.1 50.433, 33.5 50.1648 C 32.4 49.9804, 30.0375 49.6429, 25 49 C 24.214 47.4167, 23.428 45.8333, 22.6419 44.25 C 19.1848 37.2861, 16.5793 27.0915, 19 30 C 19.5086 31, 20.0171 32, 20.5257 33 C 21.3648 34.65, 22.4822 36, 23.0088 36 C 23.5354 36, 25.1072 38.2513, 26.5015 41.003 C 27.8959 43.7546, 29.9285 46.4546, 33 48 Z " fill="rgb(34,15,46)" />
<path d="M 18 27 C 18.3333 27, 18.6667 27, 19 27 C 20 27.6667, 21 28.3333, 22 29 C 21 28.6667, 20 28.3333, 19 28 C 18.6667 27.6667, 18.3333 27.3333, 18 27 Z " fill="rgb(129,87,90)" />
<path d="M 33 48 C 29.9285 46.4546, 27.8959 43.7546, 26.5015 41.003 C 25.1072 38.2513, 23.5354 36, 23.0088 36 C 22.4822 36, 21.3648 34.65, 20.5257 33 C 20.0171 32, 19.5086 31, 19 30 C 19 29.3333, 19 28.6667, 19 28 C 20 28.3333, 21 28.6667, 22 29 C 22.3674 29.4167, 22.7348 29.8333, 23.1022 30.25 C 23.7085 30.9375, 25.7241 34.5926, 27.5813 38.3724 C 29.4386 42.1522, 31.4176 45.8647, 33 48 Z " fill="rgb(147,92,88)" />
<path d="M 41 28 C 36.9771 24.7898, 34.1369 23.78, 35.5152 26.05 C 35.9994 26.8475, 33.0809 25.7, 29.0295 23.5 C 23.6205 20.5627, 22.2395 19.4336, 23.8317 19.25 C 24.5545 19.1667, 25.2772 19.0833, 26 19 C 26.6667 19, 27.3333 19, 28 19 C 27.9956 19.25, 27.9911 19.5, 27.9867 19.75 C 27.9793 20.1625, 28.4031 20.6262, 28.9284 20.7805 C 33.444 22.1065, 39.1354 25.5102, 41 28 Z " fill="rgb(237,196,243)" />
<path d="M 24 28 C 24.3333 28, 24.6667 28, 25 28 C 25.3333 28.3333, 25.6667 28.6667, 26 29 C 26 29.3333, 26 29.6667, 26 30 C 25.3333 29.3333, 24.6667 28.6667, 24 28 Z " fill="rgb(128,102,106)" />
<path d="M 25 28 C 26 28.6667, 27 29.3333, 28 30 C 27.3333 29.6667, 26.6667 29.3333, 26 29 C 25.6667 28.6667, 25.3333 28.3333, 25 28 Z " fill="rgb(226,177,199)" />
<path d="M 28 30 C 28.6667 31.3333, 29.3333 32.6667, 30 34 C 29.3333 33.6667, 28.6667 33.3333, 28 33 C 27.3333 32, 26.6667 31, 26 30 C 26 29.6667, 26 29.3333, 26 29 C 26.6667 29.3333, 27.3333 29.6667, 28 30 Z " fill="rgb(218,187,171)" />
<path d="M 30 34 C 30.6667 34.6667, 31.3333 35.3333, 32 36 C 32 36.6667, 32 37.3333, 32 38 C 31.9924 38.25, 31.9848 38.5, 31.9773 38.75 C 31.9648 39.1625, 31.5148 39.3875, 30 39 C 29.3333 37, 28.6667 35, 28 33 C 28.6667 33.3333, 29.3333 33.6667, 30 34 Z " fill="rgb(197,171,141)" />
<path d="M 30 39 C 31.5148 39.3875, 31.9648 39.1625, 31.9773 38.75 C 31.9848 38.5, 31.9924 38.25, 32 38 C 33 40, 34 42, 35 44 C 34 43.3333, 33 42.6667, 32 42 C 32 41.6667, 32 41.3333, 32 41 C 31.3333 40.3333, 30.6667 39.6667, 30 39 Z " fill="rgb(112,85,84)" />
<path d="M 76 92 C 75.0427 88.1167, 72.4572 85.0792, 69.6367 82.7447 C 66.8163 80.4101, 60.9027 75.3135, 56.4955 71.419 C 49.616 65.3398, 47.7987 64.2442, 43.6505 63.6757 C 36.7368 62.7281, 30.3409 59.6101, 26.9416 55.5304 C 25.961 54.3536, 24.9805 53.1768, 24 52 C 24.3333 52, 24.6667 52, 25 52 C 26.052 53.0417, 27.1039 54.0835, 28.1559 55.1252 C 32.0168 58.9486, 37.8633 61.6024, 44.5 62.5443 C 48.7524 63.1477, 50.3971 64.0976, 55.5 68.897 C 58.8 72.0008, 64.7144 77.3664, 68.6431 80.8207 C 72.5718 84.2749, 76.0593 88.2034, 77 92 C 76.6667 92, 76.3333 92, 76 92 Z " fill="rgb(180,126,78)" />
<path d="M 45 29 C 45.3333 29, 45.6667 29, 46 29 C 46.7964 29.4877, 47.5927 29.9754, 48.3891 30.463 C 49.7031 31.2677, 51.2781 31.9427, 53 32 C 54 32.6667, 55 33.3333, 56 34 C 56 34.6667, 56 35.3333, 56 36 C 54.9609 35.339, 53.9218 34.6779, 52.8826 34.0169 C 51.1681 32.9262, 49.1431 32.0262, 47 32 C 46.3333 31, 45.6667 30, 45 29 Z " fill="rgb(160,110,191)" />
<path d="M 57 37 C 57.3333 37.3333, 57.6667 37.6667, 58 38 C 58 38.3333, 58 38.6667, 58 39 C 56.8111 39.7838, 55.2361 38.8838, 53.733 37.5057 C 52.822 36.6705, 51.911 35.8352, 51 35 C 50.4167 34.5833, 49.8333 34.1667, 49.25 33.75 C 47.6944 32.6389, 47.6389 32.6944, 50 36 C 49.6667 36, 49.3333 36, 49 36 C 48.3333 34.6667, 47.6667 33.3333, 47 32 C 49.1431 32.0262, 51.1681 32.9262, 52.8826 34.0169 C 53.9218 34.6779, 54.9609 35.339, 56 36 C 56.3333 36.3333, 56.6667 36.6667, 57 37 Z " fill="rgb(95,45,144)" />
<path d="M 50 36 C 50.6667 37.3333, 51.3333 38.6667, 52 40 C 50.3333 38.6667, 48.6667 37.3333, 47 36 C 47.6667 36, 48.3333 36, 49 36 C 49.3333 36, 49.6667 36, 50 36 Z " fill="rgb(160,115,164)" />
<path d="M 51 35 C 50.6667 35.3333, 50.3333 35.6667, 50 36 C 47.6389 32.6944, 47.6944 32.6389, 49.25 33.75 C 49.8333 34.1667, 50.4167 34.5833, 51 35 Z " fill="rgb(16,1,76)" />
<path d="M 56 34 C 55 33.3333, 54 32.6667, 53 32 C 53 31.6667, 53 31.3333, 53 31 C 54 32, 55 33, 56 34 Z " fill="rgb(31,21,46)" />
<path d="M 55 56 C 57.3333 53.6667, 59.6667 51.3333, 62 49 C 61.3333 50, 60.6667 51, 60 52 C 59.2987 52.7463, 58.5975 53.4926, 57.8962 54.2389 C 57.195 54.9852, 56.4937 55.7315, 55.7925 56.4778 C 56.7437 56.6758, 57.695 56.8737, 58.6462 57.0716 C 61.2065 57.6043, 63.363 58.6452, 70.3806 62.7353 C 73.3394 64.4597, 75.419 64.2994, 77.3185 62.2006 C 78.8507 60.5075, 78.6235 60.1824, 68 53 C 67.3333 52, 66.6667 51, 66 50 C 66.3333 50, 66.6667 50, 67 50 C 69.1523 51.5833, 71.3045 53.1667, 73.4568 54.75 C 77.008 57.3625, 79.933 59.8314, 79.9568 60.2365 C 79.9806 60.6416, 78.425 62.5541, 73 68 C 72.5015 68.3729, 72.003 68.7458, 71.5045 69.1187 C 70.31 70.0123, 68.751 69.2072, 63.7587 65.1187 C 57.3248 59.8496, 55 58.8891, 55 61.5 C 55 62.325, 54.4596 63, 53.7991 63 C 53.3988 63, 52.9985 63, 52.5982 63 C 53.3988 60.6667, 54.1994 58.3333, 55 56 Z " fill="rgb(230,183,109)" />
<path d="M 61 71 C 60.1631 70.0873, 59.3261 69.1746, 58.4892 68.2619 C 52.3237 61.5383, 56.512 63.6249, 68 73 C 68 74, 68 75, 68 76 C 65.6667 74.3333, 63.3333 72.6667, 61 71 Z " fill="rgb(230,183,109)" />
<path d="M 55 56 C 54.1994 58.3333, 53.3988 60.6667, 52.5982 63 C 52.9985 63, 53.3988 63, 53.7991 63 C 54.4596 63, 55 62.325, 55 61.5 C 55 58.8891, 57.3248 59.8496, 63.7587 65.1187 C 68.751 69.2072, 70.31 70.0123, 71.5045 69.1187 C 72.003 68.7458, 72.5015 68.3729, 73 68 C 72.3333 69, 71.6667 70, 71 71 C 70 71.6667, 69 72.3333, 68 73 C 56.512 63.6249, 52.3237 61.5383, 58.4892 68.2619 C 59.3261 69.1746, 60.1631 70.0873, 61 71 C 59.4516 69.6152, 57.9033 68.2304, 56.3549 66.8457 C 51.8397 62.8075, 51.7418 62.5978, 54 56 C 54.3333 56, 54.6667 56, 55 56 Z " fill="rgb(154,72,41)" />
<path d="M 68 53 C 78.6235 60.1824, 78.8507 60.5075, 77.3185 62.2006 C 75.419 64.2994, 73.3394 64.4597, 70.3806 62.7353 C 63.363 58.6452, 61.2065 57.6043, 58.6462 57.0716 C 57.695 56.8737, 56.7437 56.6758, 55.7925 56.4778 C 56.4937 55.7315, 57.195 54.9852, 57.8962 54.2389 C 58.5975 53.4926, 59.2987 52.7463, 60 52 C 60.6541 51.8149, 61.3082 51.6297, 61.9622 51.4446 C 63.0415 51.1391, 64.8415 51.3641, 68 53 Z M 74.5 62.15 C 74.225 62.2325, 74.45 62.3, 75 62.3 C 75.55 62.3, 75.775 62.2325, 75.5 62.15 C 75.3333 62.1, 75.1667 62.05, 75 62 C 74.8333 62.05, 74.6667 62.1, 74.5 62.15 Z " fill="rgb(253,247,188)" />
<path d="M 66 50 C 66.6667 51, 67.3333 52, 68 53 C 64.8415 51.3641, 63.0415 51.1391, 61.9622 51.4446 C 61.3082 51.6297, 60.6541 51.8149, 60 52 C 60.6667 51, 61.3333 50, 62 49 C 63.3333 49.3333, 64.6667 49.6667, 66 50 Z " fill="rgb(232,231,229)" />
<path d="M 68 76 C 68 75, 68 74, 68 73 C 69 72.3333, 70 71.6667, 71 71 C 70 72.6667, 69 74.3333, 68 76 Z " fill="rgb(88,44,44)" />
<path d="M 89 141 C 89 141.667, 89 142.333, 89 143 C 88.6667 143, 88.3333 143, 88 143 C 87.2765 141.75, 86.5529 140.5, 85.8294 139.25 C 84.6356 137.188, 82.6106 132.462, 79 122 C 79 121.333, 79 120.667, 79 120 C 78.6667 119, 78.3333 118, 78 117 C 78 115.667, 78 114.333, 78 113 C 77.6667 111.667, 77.3333 110.333, 77 109 C 77 106.667, 77 104.333, 77 102 C 76.6667 100.667, 76.3333 99.3333, 76 98 C 76 96, 76 94, 76 92 C 76.3333 92, 76.6667 92, 77 92 C 77.3333 92, 77.6667 92, 78 92 C 78.3333 95, 78.6667 98, 79 101 C 79 102, 79 103, 79 104 C 79.3333 105, 79.6667 106, 80 107 C 80 107.333, 80 107.667, 80 108 C 80 108.667, 80 109.333, 80 110 C 81.3333 115, 82.6667 120, 84 125 C 84 126, 84 127, 84 128 C 84.6667 129.333, 85.3333 130.667, 86 132 C 86 132.333, 86 132.667, 86 133 C 87 135.667, 88 138.333, 89 141 Z " fill="rgb(31,23,21)" />
<path d="M 80 108 C 80 107.667, 80 107.333, 80 107 C 80 106, 80 105, 80 104 C 79.6667 103, 79.3333 102, 79 101 C 78.6667 98, 78.3333 95, 78 92 C 78 85, 78 78, 78 71 C 79 70.6667, 80 70.3333, 81 70 C 83.0833 69.8091, 85.1667 69.6183, 87.25 69.4274 C 90.6875 69.1125, 94.4 68.468, 95.5 67.9953 C 96.6 67.5225, 101.1 66.1713, 105.5 64.9925 C 109.9 63.8137, 117.213 61.0831, 130 55 C 130.25 54.9803, 130.5 54.9605, 130.75 54.9408 C 131.163 54.9082, 132.188 55.2457, 133.03 55.6908 C 133.871 56.1358, 137.921 58.1946, 142.03 60.2658 C 144.52 61.521, 147.01 62.7763, 149.5 64.0315 C 145.667 63.3543, 141.833 62.6772, 138 62 C 136.333 61.3333, 134.667 60.6667, 133 60 C 132.333 60, 131.667 60, 131 60 C 128.667 61.3333, 126.333 62.6667, 124 64 C 122.25 64.5441, 120.5 65.0882, 118.75 65.6323 C 115.863 66.5301, 113.05 67.6149, 112.5 68.0429 C 111.95 68.471, 108.688 69.5364, 99 72 C 98.3333 72.3333, 97.6667 72.6667, 97 73 C 96 73, 95 73, 94 73 C 93.3333 73.3333, 92.6667 73.6667, 92 74 C 91 74, 90 74, 89 74 C 88.3333 74, 87.6667 74, 87 74 C 86 74.3333, 85 74.6667, 84 75 C 83.6667 80, 83.3333 85, 83 90 C 83 92.3333, 83 94.6667, 83 97 C 83.3333 97.6667, 83.6667 98.3333, 84 99 C 84 100.667, 84 102.333, 84 104 C 84 105.333, 84 106.667, 84 108 C 84.3333 109, 84.6667 110, 85 111 C 85 111.333, 85 111.667, 85 112 C 85 113, 85 114, 85 115 C 85.3333 116, 85.6667 117, 86 118 C 86 118.333, 86 118.667, 86 119 C 86 119.667, 86 120.333, 86 121 C 86.3333 121.667, 86.6667 122.333, 87 123 C 87 123.667, 87 124.333, 87 125 C 87.3333 126, 87.6667 127, 88 128 C 87.5226 127.991, 87.0453 127.981, 86.5679 127.972 C 85.7802 127.956, 84.8802 127.281, 84 125 C 83 120, 82 115, 81 110 C 80.6667 109.333, 80.3333 108.667, 80 108 Z " fill="rgb(230,207,241)" />
<path d="M 152 64 C 151.417 64.1608, 150.833 64.3216, 150.25 64.4824 C 149.667 64.6432, 149.083 64.8039, 148.5 64.9647 C 149.333 64.6432, 150.167 64.3216, 151 64 C 151.333 64, 151.667 64, 152 64 Z " fill="rgb(230,207,241)" />
<path d="M 121 177 C 113.36 172.248, 104.305 165.449, 99.155 160.595 C 91.1432 153.044, 82.3153 138.561, 79.4692 128.298 C 78.9795 126.532, 78.4897 124.766, 78 123 C 78.3333 122.667, 78.6667 122.333, 79 122 C 82.6106 132.462, 84.6356 137.188, 85.8294 139.25 C 86.5529 140.5, 87.2765 141.75, 88 143 C 88.9661 144.583, 89.9321 146.167, 90.8982 147.75 C 94.7707 154.097, 106.937 165.919, 121 177 Z " fill="rgb(171,110,68)" />
<path d="M 79 104 C 79 103, 79 102, 79 101 C 79.3333 102, 79.6667 103, 80 104 C 79.6667 104, 79.3333 104, 79 104 Z " fill="rgb(118,98,136)" />
<path d="M 80 107 C 79.6667 106, 79.3333 105, 79 104 C 79.3333 104, 79.6667 104, 80 104 C 80 105, 80 106, 80 107 Z " fill="rgb(56,41,81)" />
<path d="M 80 110 C 80 109.333, 80 108.667, 80 108 C 80.3333 108.667, 80.6667 109.333, 81 110 C 80.6667 110, 80.3333 110, 80 110 Z " fill="rgb(136,111,162)" />
<path d="M 84 125 C 82.6667 120, 81.3333 115, 80 110 C 80.3333 110, 80.6667 110, 81 110 C 82 115, 83 120, 84 125 Z " fill="rgb(109,84,140)" />
<path d="M 83 97 C 83 94.6667, 83 92.3333, 83 90 C 83.3333 92.3333, 83.6667 94.6667, 84 97 C 83.6667 97, 83.3333 97, 83 97 Z " fill="rgb(87,74,103)" />
<path d="M 84 99 C 83.6667 98.3333, 83.3333 97.6667, 83 97 C 83.3333 97, 83.6667 97, 84 97 C 84 97.6667, 84 98.3333, 84 99 Z " fill="rgb(133,114,149)" />
<path d="M 84 75 C 85 74.6667, 86 74.3333, 87 74 C 87 74.3333, 87 74.6667, 87 75 C 86 75, 85 75, 84 75 Z " fill="rgb(128,110,137)" />
<path d="M 84 108 C 84 106.667, 84 105.333, 84 104 C 84.3333 105.333, 84.6667 106.667, 85 108 C 84.6667 108, 84.3333 108, 84 108 Z " fill="rgb(85,67,108)" />
<path d="M 85 111 C 84.6667 110, 84.3333 109, 84 108 C 84.3333 108, 84.6667 108, 85 108 C 85 109, 85 110, 85 111 Z " fill="rgb(151,121,174)" />
<path d="M 94 139 C 97.0894 144.879, 98.4394 147.129, 98.9931 147.793 C 99.3288 148.195, 99.6644 148.598, 100 149 C 100.202 149.5, 100.405 150, 100.607 150.5 C 100.941 151.325, 100.716 152, 99 152 C 97.9818 150.75, 96.9636 149.5, 95.9455 148.25 C 94.2655 146.188, 91.3405 141.913, 86 133 C 86 132.667, 86 132.333, 86 132 C 85.3333 130.667, 84.6667 129.333, 84 128 C 84 127, 84 126, 84 125 C 84.8802 127.281, 85.7802 127.956, 86.5679 127.972 C 87.0453 127.981, 87.5226 127.991, 88 128 C 88.3333 128, 88.6667 128, 89 128 C 90.6667 131.667, 92.3333 135.333, 94 139 Z " fill="rgb(151,103,203)" />
<path d="M 100 102 C 94.5113 104.325, 92.2613 105, 91.4589 105 C 90.3435 105, 89.9835 106.471, 89.9297 111.25 C 89.8794 115.721, 89.5948 117.002, 88.9297 115.75 C 88.6198 115.167, 88.3099 114.583, 88 114 C 88 113.667, 88 113.333, 88 113 C 87.6667 111.667, 87.3333 110.333, 87 109 C 86.6803 106.417, 86.3606 103.833, 86.0409 101.25 C 85.5134 96.9875, 85.0634 89.8079, 85.0409 85.2953 C 85.0273 82.5604, 85.0136 79.8255, 85 77.0906 C 86.25 76.8756, 87.5 76.6605, 88.75 76.4454 C 90.8125 76.0906, 95.7625 74.9452, 107 72 C 107.004 72.25, 107.009 72.5, 107.013 72.75 C 107.031 73.7422, 95.1346 76.9958, 91.4176 77.0153 C 86.8039 77.0395, 85.828 78.1847, 86.2326 83.0991 C 86.3534 84.5661, 86.4742 86.033, 86.595 87.5 C 86.8611 86.1501, 87.1272 84.8001, 87.3933 83.4502 C 87.6594 82.1002, 87.9255 80.7503, 88.1916 79.4004 C 91.4347 78.6394, 94.6777 77.8784, 97.9208 77.1174 C 103.272 75.8617, 108.179 74.4216, 110 73 C 113.259 71.7203, 113.318 71.8493, 112.181 73.2485 C 111.455 74.1411, 109.519 75.1664, 107.878 75.5268 C 106.237 75.8873, 105.143 76.5912, 105.447 77.0911 C 105.631 77.3941, 105.816 77.697, 106 78 C 105.667 78.3333, 105.333 78.6667, 105 79 C 104.667 79, 104.333 79, 104 79 C 103.417 79.3527, 102.833 79.7054, 102.25 80.058 C 101.03 80.7957, 100.879 81.2499, 103 82 C 99.9114 88.1015, 98.5614 90.153, 98.0074 90.4954 C 97.4533 90.8379, 97 93.1165, 97 95.559 C 97 98.8399, 97.3918 100, 98.5 100 C 99 100, 99.5 100, 100 100 C 100 100.667, 100 101.333, 100 102 Z M 93.75 82.0153 C 90.8036 81.9895, 91.4773 86.8508, 94.5839 88.0319 C 97.8749 89.2831, 99.2655 88.4223, 98.4059 85.6658 C 97.6203 83.147, 96.2044 82.0368, 93.75 82.0153 Z M 94 93 C 93.3333 92.6667, 92.6667 92.3333, 92 92 C 92 93.3137, 92 94.6273, 92 95.941 C 92 98.1085, 92.45 100.16, 93 100.5 C 93.5672 100.851, 94 100.01, 94 96 C 94 95, 94 94, 94 93 Z " fill="rgb(123,71,154)" />
<path d="M 85 115 C 85 114, 85 113, 85 112 C 85.3333 113, 85.6667 114, 86 115 C 85.6667 115, 85.3333 115, 85 115 Z " fill="rgb(81,61,102)" />
<path d="M 86 118 C 85.6667 117, 85.3333 116, 85 115 C 85.3333 115, 85.6667 115, 86 115 C 86 116, 86 117, 86 118 Z " fill="rgb(146,115,171)" />
<path d="M 108 72 C 108.667 72.3333, 109.333 72.6667, 110 73 C 108.179 74.4216, 103.272 75.8617, 97.9208 77.1174 C 94.6777 77.8784, 91.4347 78.6394, 88.1916 79.4004 C 87.9255 80.7503, 87.6594 82.1002, 87.3933 83.4502 C 87.1272 84.8001, 86.8611 86.1501, 86.595 87.5 C 86.4742 86.033, 86.3534 84.5661, 86.2326 83.0991 C 85.828 78.1847, 86.8039 77.0395, 91.4176 77.0153 C 95.1346 76.9958, 107.031 73.7422, 107.013 72.75 C 107.009 72.5, 107.004 72.25, 107 72 C 107.333 72, 107.667 72, 108 72 Z " fill="rgb(177,127,215)" />
<path d="M 86 121 C 86 120.333, 86 119.667, 86 119 C 86.3333 119.667, 86.6667 120.333, 87 121 C 86.6667 121, 86.3333 121, 86 121 Z " fill="rgb(95,71,118)" />
<path d="M 87 123 C 86.6667 122.333, 86.3333 121.667, 86 121 C 86.3333 121, 86.6667 121, 87 121 C 87 121.667, 87 122.333, 87 123 Z " fill="rgb(157,121,184)" />
<path d="M 101 155 C 98.0817 152.599, 95.3817 149.449, 93.1173 146.451 C 91.7448 144.634, 90.3724 142.817, 89 141 C 88 138.333, 87 135.667, 86 133 C 91.3405 141.913, 94.2655 146.188, 95.9455 148.25 C 96.9636 149.5, 97.9818 150.75, 99 152 C 99.6667 153, 100.333 154, 101 155 Z " fill="rgb(65,42,101)" />
<path d="M 87 74 C 87.6667 74, 88.3333 74, 89 74 C 88.3333 74.3333, 87.6667 74.6667, 87 75 C 87 74.6667, 87 74.3333, 87 74 Z " fill="rgb(82,70,92)" />
<path d="M 87 125 C 87 124.333, 87 123.667, 87 123 C 87.3333 123.667, 87.6667 124.333, 88 125 C 87.6667 125, 87.3333 125, 87 125 Z " fill="rgb(96,71,118)" />
<path d="M 88 128 C 87.6667 127, 87.3333 126, 87 125 C 87.3333 125, 87.6667 125, 88 125 C 88.3333 126, 88.6667 127, 89 128 C 88.6667 128, 88.3333 128, 88 128 Z " fill="rgb(139,104,166)" />
<path d="M 98 134 C 95.0796 128.346, 94.1408 124, 95.8395 124 C 97.1502 124, 98.8291 119.61, 99.4419 114.58 C 99.628 113.054, 99.814 111.527, 100 110 C 100.276 112.917, 100.552 115.833, 100.828 118.75 C 101.103 121.667, 101.379 124.583, 101.655 127.5 C 101.77 123, 101.885 118.5, 102 114 C 102.333 114, 102.667 114, 103 114 C 103 117.333, 103 120.667, 103 124 C 103.333 125.333, 103.667 126.667, 104 128 C 104 128.333, 104 128.667, 104 129 C 100.58 129.714, 99.9159 130.249, 100.317 130.651 C 100.719 131.052, 100.362 131.97, 99.5238 132.69 C 99.0159 133.127, 98.5079 133.563, 98 134 Z " fill="rgb(30,18,53)" />
<path d="M 109 157 C 115.906 162.676, 129.589 172, 131.012 172 C 132.183 172, 143.387 164.902, 150.266 159.802 C 166.52 147.754, 176.058 130.54, 177.997 109.756 C 178.331 106.171, 178.666 102.585, 179 99 C 179 97.3333, 179 95.6667, 179 94 C 179.333 93, 179.667 92, 180 91 C 180 86, 180 81, 180 76 C 178.667 75.6667, 177.333 75.3333, 176 75 C 175.667 75, 175.333 75, 175 75 C 173.667 74.6667, 172.333 74.3333, 171 74 C 170.333 74, 169.667 74, 169 74 C 168.667 74, 168.333 74, 168 74 C 167.333 73.6667, 166.667 73.3333, 166 73 C 165.333 73, 164.667 73, 164 73 C 163.667 72.6667, 163.333 72.3333, 163 72 C 161 72, 159 72, 157 72 C 156.922 71.75, 156.843 71.5, 156.765 71.25 C 156.636 70.8375, 154.161 69.4875, 146 66 C 147.431 66.4563, 148.863 66.9127, 150.294 67.369 C 152.655 68.122, 156.818 68.7528, 159.544 68.7709 C 164.429 68.8032, 164.461 68.7837, 159 66 C 162.667 67, 166.333 68, 170 69 C 169.75 69.0409, 169.5 69.0819, 169.25 69.1228 C 168.837 69.1903, 169.594 69.7528, 170.931 70.3728 C 172.836 71.2561, 173.214 71.2295, 172 69 C 174.083 69.427, 176.167 69.8541, 178.25 70.2811 C 180.333 70.7082, 182.417 71.1352, 184.5 71.5623 C 184.333 82.0415, 184.167 92.5208, 184 103 C 183.793 104.083, 183.587 105.167, 183.38 106.25 C 183.04 108.037, 182.139 111.863, 180 120 C 179.793 120.583, 179.586 121.167, 179.379 121.75 C 172.116 142.213, 166.551 150.043, 150 163.089 C 145.875 166.341, 141.488 169.901, 138 173 C 131.464 174.954, 130.288 174.761, 126.231 172.693 C 123.629 171.366, 120.316 169.72, 118.868 169.035 C 116.169 167.757, 114.028 166.128, 105.75 159.057 C 104.167 157.705, 102.583 156.352, 101 155 C 100.333 154, 99.6667 153, 99 152 C 100.716 152, 100.941 151.325, 100.607 150.5 C 100.405 150, 100.202 149.5, 100 149 C 103 151.667, 106 154.333, 109 157 Z M 101.5 152 C 101.225 152, 101 152.225, 101 152.5 C 101 152.775, 101.225 153, 101.5 153 C 101.775 153, 102 152.775, 102 152.5 C 102 152.225, 101.775 152, 101.5 152 Z M 102.5 153 C 102.225 153, 102 153.225, 102 153.5 C 102 153.775, 102.225 154, 102.5 154 C 102.775 154, 103 153.775, 103 153.5 C 103 153.225, 102.775 153, 102.5 153 Z M 105.396 154.729 C 104.275 153.608, 102.798 153.865, 103.533 155.053 C 103.89 155.632, 104.62 155.96, 105.154 155.782 C 105.688 155.604, 105.797 155.13, 105.396 154.729 Z M 106.5 156 C 106.225 156, 106 156.225, 106 156.5 C 106 156.775, 106.225 157, 106.5 157 C 106.775 157, 107 156.775, 107 156.5 C 107 156.225, 106.775 156, 106.5 156 Z " fill="rgb(97,52,155)" />
<path d="M 104 79 C 104.333 79, 104.667 79, 105 79 C 105.333 78.6667, 105.667 78.3333, 106 78 C 115.05 76.0135, 116.103 76.0236, 115.553 76.9144 C 115.155 77.5578, 113.068 78.7403, 110.915 79.5421 C 109.61 80.0281, 108.305 80.514, 107 81 C 107.213 80.6234, 107.426 80.2468, 107.639 79.8703 C 108.109 79.0406, 107.511 79.0196, 105.389 79.7913 C 103.651 80.4234, 103.197 80.8736, 106 81 C 105 81.3333, 104 81.6667, 103 82 C 100.879 81.2499, 101.03 80.7957, 102.25 80.058 C 102.833 79.7054, 103.417 79.3527, 104 79 Z " fill="rgb(198,143,159)" />
<path d="M 103 114 C 102.667 114, 102.333 114, 102 114 C 102.333 113, 102.667 112, 103 111 C 103 112, 103 113, 103 114 Z " fill="rgb(101,79,120)" />
<path d="M 107 81 C 106.667 81, 106.333 81, 106 81 C 103.197 80.8736, 103.651 80.4234, 105.389 79.7913 C 107.511 79.0196, 108.109 79.0406, 107.639 79.8703 C 107.426 80.2468, 107.213 80.6234, 107 81 Z " fill="rgb(242,205,176)" />
<path d="M 108 105 C 108 106.333, 108 107.667, 108 109 C 107.667 109, 107.333 109, 107 109 C 106.667 108.333, 106.333 107.667, 106 107 C 105.836 106.479, 105.671 105.958, 105.507 105.437 C 105.236 104.577, 104.561 104.127, 103 105 C 103 102.333, 103 99.6667, 103 97 C 103 96.8113, 103 96.6227, 103 96.434 C 103 96.1227, 109.412 92.3229, 117.25 87.9898 C 122 85.3638, 126.75 82.7377, 131.5 80.1116 C 135 82.0744, 138.5 84.0372, 142 86 C 141.929 86.6667, 141.857 87.3333, 141.786 88 C 141.492 90.7405, 140.145 90.5113, 139.011 87.5279 C 138.485 86.1456, 136.953 84.7753, 135.535 84.4195 C 133.244 83.8443, 133 84.0714, 133 86.7832 C 133 89.1543, 133.524 89.9107, 138 91 C 138.667 91, 139.333 91, 140 91 C 140.583 91.2263, 141.167 91.4526, 141.75 91.6789 C 142.333 91.9052, 142.917 92.1315, 143.5 92.3578 C 142.333 92.5718, 141.167 92.7859, 140 93 C 139 93, 138 93, 137 93 C 136.462 92.8015, 135.923 92.603, 135.385 92.4045 C 134.382 92.0349, 134.003 92.2246, 135 94 C 136.667 97.3333, 138.333 100.667, 140 104 C 139.968 104.25, 139.935 104.5, 139.903 104.75 C 139.849 105.162, 138.274 103.363, 133 96 C 131.522 93.8458, 130.692 94.399, 129.142 96.75 C 128.428 97.8333, 127.714 98.9167, 127 100 C 125.667 101, 124.333 102, 123 103 C 126.898 95.7893, 127.833 93.4992, 127.592 93.2589 C 127.352 93.0185, 124.645 93.3119, 121.578 93.9109 C 119.718 94.2739, 117.859 94.637, 116 95 C 114.3 95.3983, 112.599 95.7967, 110.899 96.195 C 109.199 96.5934, 107.498 96.9917, 105.798 97.3901 C 106.532 99.9267, 107.266 102.463, 108 105 Z " fill="rgb(233,210,222)" />
<path d="M 143 87 C 143.333 87, 143.667 87, 144 87 C 144.052 87.1838, 144.103 87.3677, 144.155 87.5515 C 144.206 87.7354, 144.258 87.9192, 144.309 88.1031 C 143.873 87.7354, 143.436 87.3677, 143 87 Z " fill="rgb(233,210,222)" />
<path d="M 106 107 C 105.667 108, 105.333 109, 105 110 C 105 110.25, 105 110.5, 105 110.75 C 105 111.162, 105.45 111.387, 107 111 C 107.328 111.417, 107.656 111.833, 107.985 112.25 C 108.732 113.199, 108.973 113.079, 109 110 C 110 112, 111 114, 112 116 C 111.983 116.25, 111.967 116.5, 111.95 116.75 C 111.923 117.162, 112.372 117.838, 114 119 C 113.5 119.037, 113 119.074, 112.5 119.111 C 111.675 119.172, 111 119.622, 111 121 C 110.801 120.458, 110.601 119.915, 110.402 119.373 C 109.96 118.169, 109.293 117.974, 107.839 118.623 C 106.026 119.432, 105.995 119.364, 109 116 C 109.313 116.25, 109.626 116.5, 109.938 116.75 C 110.518 117.213, 110.542 116.545, 110.002 115 C 109.521 113.625, 109.098 113.062, 109 115 C 108.194 115.618, 107.387 116.235, 106.581 116.852 C 105.25 117.871, 103.9 119.896, 103 124 C 103 120.667, 103 117.333, 103 114 C 103 113, 103 112, 103 111 C 103 110.333, 103 109.667, 103 109 C 103 107.667, 103 106.333, 103 105 C 104.561 104.127, 105.236 104.577, 105.507 105.437 C 105.671 105.958, 105.836 106.479, 106 107 Z " fill="rgb(175,128,177)" />
<path d="M 116 119 C 115.569 121.154, 117.786 121.569, 123.75 121.75 C 126.5 121.833, 129.25 121.917, 132 122 C 132 122.667, 132 123.333, 132 124 C 129 124, 126 124, 123 124 C 122.667 124, 122.333 124, 122 124 C 120.841 123.814, 119.682 123.627, 118.523 123.441 C 114.035 122.72, 113.218 121.282, 116 119 Z " fill="rgb(175,128,177)" />
<path d="M 104 128 C 103.667 126.667, 103.333 125.333, 103 124 C 103.9 119.896, 105.25 117.871, 106.581 116.852 C 107.387 116.235, 108.194 115.618, 109 115 C 109 115.333, 109 115.667, 109 116 C 105.995 119.364, 106.026 119.432, 107.839 118.623 C 109.293 117.974, 109.96 118.169, 110.402 119.373 C 110.601 119.915, 110.801 120.458, 111 121 C 111 121.667, 111 122.333, 111 123 C 110.333 123.333, 109.667 123.667, 109 124 C 107.333 125.333, 105.667 126.667, 104 128 Z " fill="rgb(93,48,116)" />
<path d="M 105 129 C 104.667 129, 104.333 129, 104 129 C 104 128.667, 104 128.333, 104 128 C 105.667 126.667, 107.333 125.333, 109 124 C 109.667 124, 110.333 124, 111 124 C 112.667 124, 114.333 124, 116 124 C 116.667 125, 117.333 126, 118 127 C 119 128.333, 120 129.667, 121 131 C 121 131.185, 121 131.37, 121 131.555 C 121 131.861, 119.875 131.411, 116 129 C 115 128, 114 127, 113 126 C 112.997 125.75, 112.995 125.5, 112.992 125.25 C 112.988 124.838, 111.188 125.512, 105 129 Z " fill="rgb(122,72,74)" />
<path d="M 125 135 C 125.667 136, 126.333 137, 127 138 C 126.147 137.25, 125.294 136.5, 124.441 135.75 C 123.033 134.512, 122.583 133.837, 125 135 Z " fill="rgb(122,72,74)" />
<path d="M 105 110 C 105.667 110, 106.333 110, 107 110 C 107 110.333, 107 110.667, 107 111 C 105.45 111.387, 105 111.162, 105 110.75 C 105 110.5, 105 110.25, 105 110 Z " fill="rgb(104,33,162)" />
<path d="M 110 150 C 109.333 149.667, 108.667 149.333, 108 149 C 105.103 146.383, 105.122 146.167, 106.648 145.582 C 107.649 145.198, 108.902 145.563, 109.678 146.463 C 110.118 146.976, 110.559 147.488, 111 148 C 110.75 148.008, 110.5 148.015, 110.25 148.023 C 109.838 148.035, 109.613 148.485, 110 150 Z " fill="rgb(46,26,46)" />
<path d="M 128 143 C 126 142, 124 141, 122 140 C 113.469 133.973, 111.004 132.334, 107.75 130.527 C 106.833 130.018, 105.917 129.509, 105 129 C 111.188 125.512, 112.988 124.838, 112.992 125.25 C 112.995 125.5, 112.997 125.75, 113 126 C 107.906 127.451, 107.536 129.968, 112.5 129.4 C 113.667 129.267, 114.833 129.133, 116 129 C 119.875 131.411, 121 131.861, 121 131.555 C 121 131.37, 121 131.185, 121 131 C 122.333 132.333, 123.667 133.667, 125 135 C 122.583 133.837, 123.033 134.512, 124.441 135.75 C 125.294 136.5, 126.147 137.25, 127 138 C 127.333 138.333, 127.667 138.667, 128 139 C 128 140.333, 128 141.667, 128 143 Z " fill="rgb(48,23,62)" />
<path d="M 107 110 C 107 109.667, 107 109.333, 107 109 C 107.333 109, 107.667 109, 108 109 C 108.333 109.333, 108.667 109.667, 109 110 C 108.973 113.079, 108.732 113.199, 107.985 112.25 C 107.656 111.833, 107.328 111.417, 107 111 C 107 110.667, 107 110.333, 107 110 Z " fill="rgb(239,205,205)" />
<path d="M 109 124 C 109.667 123.667, 110.333 123.333, 111 123 C 111 123.333, 111 123.667, 111 124 C 110.333 124, 109.667 124, 109 124 Z " fill="rgb(189,127,119)" />
<path d="M 109 115 C 109.098 113.062, 109.521 113.625, 110.002 115 C 110.542 116.545, 110.518 117.213, 109.938 116.75 C 109.626 116.5, 109.313 116.25, 109 116 C 109 115.667, 109 115.333, 109 115 Z " fill="rgb(231,190,185)" />
<path d="M 120 103 C 117.499 107.006, 116.95 107.226, 116.095 106.25 C 115.73 105.833, 115.365 105.417, 115 105 C 114.837 104.483, 114.675 103.966, 114.512 103.449 C 114.146 102.286, 113.646 102.161, 111 104 C 111 103.667, 111 103.333, 111 103 C 111.667 102, 112.333 101, 113 100 C 113.333 100, 113.667 100, 114 100 C 114 99.6667, 114 99.3333, 114 99 C 116.713 101.123, 118.062 102.023, 118.75 102.37 C 119.167 102.58, 119.583 102.79, 120 103 Z M 115.5 102 C 115.225 102, 115 102.225, 115 102.5 C 115 102.775, 115.225 103, 115.5 103 C 115.775 103, 116 102.775, 116 102.5 C 116 102.225, 115.775 102, 115.5 102 Z " fill="rgb(233,204,203)" />
<path d="M 117 117 C 116.667 117.667, 116.333 118.333, 116 119 C 113.218 121.282, 114.035 122.72, 118.523 123.441 C 119.682 123.627, 120.841 123.814, 122 124 C 120 124, 118 124, 116 124 C 114.333 124, 112.667 124, 111 124 C 111 123.667, 111 123.333, 111 123 C 111 122.333, 111 121.667, 111 121 C 111 119.622, 111.675 119.172, 112.5 119.111 C 113 119.074, 113.5 119.037, 114 119 C 114.333 118, 114.667 117, 115 116 C 115.667 116.333, 116.333 116.667, 117 117 Z " fill="rgb(207,158,143)" />
<path d="M 112 116 C 113 115.667, 114 115.333, 115 115 C 115 115.333, 115 115.667, 115 116 C 114.667 117, 114.333 118, 114 119 C 112.372 117.838, 111.923 117.162, 111.95 116.75 C 111.967 116.5, 111.983 116.25, 112 116 Z " fill="rgb(111,50,150)" />
<path d="M 122 155 C 122 157.505, 120.167 156.742, 116 153.978 C 114 152.652, 112 151.326, 110 150 C 109.613 148.485, 109.838 148.035, 110.25 148.023 C 110.5 148.015, 110.75 148.008, 111 148 C 114.667 150.333, 118.333 152.667, 122 155 Z " fill="rgb(132,86,67)" />
<path d="M 114.5 101 C 114.775 101, 115 101.225, 115 101.5 C 115 101.775, 114.775 102, 114.5 102 C 114.225 102, 114 101.775, 114 101.5 C 114 101.225, 114.225 101, 114.5 101 Z " fill="rgb(248,234,213)" />
<path d="M 115 105 C 113.667 104.667, 112.333 104.333, 111 104 C 113.646 102.161, 114.146 102.286, 114.512 103.449 C 114.675 103.966, 114.837 104.483, 115 105 Z " fill="rgb(173,112,174)" />
<path d="M 117.2 104 C 117.6 104, 118 104, 118.4 104 C 118 104.4, 117.6 104.8, 117.2 105.2 C 116.8 105.6, 116.4 106, 116 106.4 C 116 106, 116 105.6, 116 105.2 C 116 104.54, 116.54 104, 117.2 104 Z " fill="rgb(254,239,208)" />
<path d="M 123 124 C 119.117 125.162, 117.992 125.838, 117.995 126.25 C 117.996 126.5, 117.998 126.75, 118 127 C 117.333 126, 116.667 125, 116 124 C 118 124, 120 124, 122 124 C 122.333 124, 122.667 124, 123 124 Z " fill="rgb(46,17,49)" />
<path d="M 115 115 C 116.667 112.333, 118.333 109.667, 120 107 C 121 105.667, 122 104.333, 123 103 C 124.333 102, 125.667 101, 127 100 C 127 100.333, 127 100.667, 127 101 C 126.667 101.333, 126.333 101.667, 126 102 C 125.333 103.667, 124.667 105.333, 124 107 C 123 108.333, 122 109.667, 121 111 C 119.667 113, 118.333 115, 117 117 C 116.333 116.667, 115.667 116.333, 115 116 C 115 115.667, 115 115.333, 115 115 Z M 119 111.5 C 118.45 111.84, 118 112.343, 118 112.618 C 118 112.893, 118.45 112.84, 119 112.5 C 119.55 112.16, 120 111.657, 120 111.382 C 120 111.107, 119.55 111.16, 119 111.5 Z " fill="rgb(231,195,199)" />
<path d="M 130 118 C 123.655 118, 122.485 116.681, 126.007 113.494 C 127.936 111.748, 128.315 109.959, 126.75 109.987 C 126.5 109.991, 126.25 109.996, 126 110 C 125.48 110, 124.961 110, 124.441 110 C 123.584 110, 123.134 109.55, 124 108 C 126 108, 128 108, 130 108 C 130.159 108.583, 130.318 109.167, 130.477 109.75 C 130.74 110.713, 130.178 112.496, 129.227 113.713 C 127.583 115.82, 127.588 115.927, 129.333 115.963 C 130.342 115.983, 130.904 116.45, 130 118 Z " fill="rgb(231,195,199)" />
<path d="M 126 110 C 124.333 110.333, 122.667 110.667, 121 111 C 122 109.667, 123 108.333, 124 107 C 124 107.333, 124 107.667, 124 108 C 123.134 109.55, 123.584 110, 124.441 110 C 124.961 110, 125.48 110, 126 110 Z " fill="rgb(186,122,194)" />
<path d="M 125 66 C 125.333 65.6667, 125.667 65.3333, 126 65 C 126.333 65, 126.667 65, 127 65 C 127.333 64.6667, 127.667 64.3333, 128 64 C 128.667 63.6667, 129.333 63.3333, 130 63 C 131.356 63.7467, 131.806 65.0967, 131.875 66.4818 C 131.917 67.3212, 131.958 68.1606, 132 69 C 131.75 69, 131.5 69, 131.25 69 C 130.837 69, 130.613 69.9, 131 73 C 130.124 74.1708, 123.946 68.6668, 123.985 66.75 C 123.99 66.5, 123.995 66.25, 124 66 C 124.333 66, 124.667 66, 125 66 Z " fill="rgb(179,124,206)" />
<path d="M 135 142 C 133.541 143.773, 132.033 143.989, 130.57 143.63 C 129.713 143.42, 128.857 143.21, 128 143 C 128 141.667, 128 140.333, 128 139 C 128.667 139.333, 129.333 139.667, 130 140 C 130.667 140.667, 131.333 141.333, 132 142 C 133 142, 134 142, 135 142 Z " fill="rgb(96,48,52)" />
<path d="M 130 119 C 130 118.667, 130 118.333, 130 118 C 130.904 116.45, 130.342 115.983, 129.333 115.963 C 127.588 115.927, 127.583 115.82, 129.227 113.713 C 130.178 112.496, 130.74 110.713, 130.477 109.75 C 130.318 109.167, 130.159 108.583, 130 108 C 131.163 98.6945, 131.837 95.9945, 132.25 95.9965 C 132.5 95.9976, 132.75 95.9988, 133 96 C 138.274 103.363, 139.849 105.162, 139.903 104.75 C 139.935 104.5, 139.968 104.25, 140 104 C 140.333 104.333, 140.667 104.667, 141 105 C 140.75 105.004, 140.5 105.009, 140.25 105.013 C 139.837 105.02, 140.512 106.37, 144 111 C 145 112.667, 146 114.333, 147 116 C 146.667 116.333, 146.333 116.667, 146 117 C 144.788 115.25, 143.575 113.5, 142.363 111.75 C 140.363 108.863, 138.985 107.175, 139.301 108 C 140.726 111.717, 139.754 115.939, 137 118 C 137.333 117.6, 137.667 117.2, 138 116.8 C 139.547 114.944, 139.181 109.395, 137.416 107.93 C 135.149 106.049, 132.574 107.96, 132.19 111.809 C 131.968 114.025, 132.47 115.358, 136 118 C 135.375 117.858, 134.751 117.716, 134.126 117.574 C 133.096 117.339, 131.746 117.564, 130 119 Z M 129.5 114.15 C 129.225 114.232, 129.45 114.3, 130 114.3 C 130.55 114.3, 130.775 114.232, 130.5 114.15 C 130.333 114.1, 130.167 114.05, 130 114 C 129.833 114.05, 129.667 114.1, 129.5 114.15 Z " fill="rgb(153,88,171)" />
<path d="M 131.5 115 C 131.775 115, 132 115.225, 132 115.5 C 132 115.775, 131.775 116, 131.5 116 C 131.225 116, 131 115.775, 131 115.5 C 131 115.225, 131.225 115, 131.5 115 Z " fill="rgb(113,43,169)" />
<path d="M 135 129 C 135 132.98, 134.195 134.389, 133 134.992 C 132.333 135.328, 131.667 135.664, 131 136 C 127.587 130.829, 127.396 129.746, 129.581 127.933 C 130.822 126.903, 131.576 126.877, 133.081 127.81 C 133.721 128.207, 134.36 128.603, 135 129 Z " fill="rgb(97,48,55)" />
<path d="M 134 158 C 134 158.333, 134 158.667, 134 159 C 131.294 162.014, 131.052 161.965, 130.035 160.065 C 129.166 158.442, 129.234 157.504, 130.331 155.938 C 131.533 154.221, 131.847 154.147, 132.376 155.455 C 132.584 155.97, 132.792 156.485, 133 157 C 132.75 156.997, 132.5 156.994, 132.25 156.991 C 131.837 156.985, 131.349 157.773, 131.164 158.741 C 130.904 160.096, 131.077 160.213, 133 158 C 133.333 158, 133.667 158, 134 158 Z " fill="rgb(224,166,115)" />
<path d="M 134 72 C 133 72.3333, 132 72.6667, 131 73 C 130.613 69.9, 130.837 69, 131.25 69 C 131.5 69, 131.75 69, 132 69 C 132.333 69, 132.667 69, 133 69 C 133.333 70, 133.667 71, 134 72 Z M 132 70 C 131.45 70, 131 70.45, 131 71 C 131 71.55, 131.45 72, 132 72 C 132.55 72, 133 71.55, 133 71 C 133 70.45, 132.55 70, 132 70 Z " fill="rgb(217,188,192)" />
<path d="M 135 122 C 129.962 119.883, 128.837 119.208, 129.25 119.134 C 129.5 119.09, 129.75 119.045, 130 119 C 131.746 117.564, 133.096 117.339, 134.126 117.574 C 134.751 117.716, 135.375 117.858, 136 118 C 136.333 118, 136.667 118, 137 118 C 139.754 115.939, 140.726 111.717, 139.301 108 C 138.985 107.175, 140.363 108.863, 142.363 111.75 C 143.575 113.5, 144.788 115.25, 146 117 C 146.333 118, 146.667 119, 147 120 C 147 120.667, 147 121.333, 147 122 C 143 122, 139 122, 135 122 Z " fill="rgb(65,20,116)" />
<path d="M 133 157 C 133 157.333, 133 157.667, 133 158 C 131.077 160.213, 130.904 160.096, 131.164 158.741 C 131.349 157.773, 131.837 156.985, 132.25 156.991 C 132.5 156.994, 132.75 156.997, 133 157 Z " fill="rgb(253,210,134)" />
<path d="M 136 118 C 132.47 115.358, 131.968 114.025, 132.19 111.809 C 132.574 107.96, 135.149 106.049, 137.416 107.93 C 139.181 109.395, 139.547 114.944, 138 116.8 C 137.667 117.2, 137.333 117.6, 137 118 C 136.667 118, 136.333 118, 136 118 Z M 135 111 C 134.917 111.75, 134.833 112.5, 134.75 113.25 C 134.598 114.614, 134.992 115.402, 137 115 C 137 113.667, 137 112.333, 137 111 C 136.333 110.667, 135.667 110.333, 135 110 C 135 110.333, 135 110.667, 135 111 Z " fill="rgb(223,178,162)" />
<path d="M 143 87 C 143.436 87.3677, 143.873 87.7354, 144.309 88.1031 C 144.258 87.9192, 144.206 87.7354, 144.155 87.5515 C 144.103 87.3677, 144.052 87.1838, 144 87 C 147.667 89, 151.333 91, 155 93 C 155 94, 155 95, 155 96 C 154.333 95.6667, 153.667 95.3333, 153 95 C 152.333 95, 151.667 95, 151 95 C 150 94.6667, 149 94.3333, 148 94 C 147.333 94, 146.667 94, 146 94 C 145 94, 144 94, 143 94 C 142 93.6667, 141 93.3333, 140 93 C 141.167 92.7859, 142.333 92.5718, 143.5 92.3578 C 142.917 92.1315, 142.333 91.9052, 141.75 91.6789 C 141.167 91.4526, 140.583 91.2263, 140 91 C 139.539 90.468, 139.079 89.936, 138.618 89.404 C 137.774 88.4284, 136.994 88.2008, 136.612 88.8186 C 136.269 89.3744, 136.44 90.0926, 138 91 C 133.524 89.9107, 133 89.1543, 133 86.7832 C 133 84.0714, 133.244 83.8443, 135.535 84.4195 C 136.953 84.7753, 138.485 86.1456, 139.011 87.5279 C 140.145 90.5113, 141.492 90.7405, 141.786 88 C 141.857 87.3333, 141.929 86.6667, 142 86 C 142.333 86.3333, 142.667 86.6667, 143 87 Z M 145.75 90.9199 C 144.547 90.2195, 144 90.229, 144 90.9503 C 144 91.5276, 144.788 91.9863, 145.75 91.9696 C 146.333 91.9595, 146.917 91.9493, 147.5 91.9392 C 146.917 91.5994, 146.333 91.2597, 145.75 90.9199 Z M 147.5 92.15 C 147.225 92.2325, 147.45 92.3, 148 92.3 C 148.55 92.3, 148.775 92.2325, 148.5 92.15 C 148.333 92.1, 148.167 92.05, 148 92 C 147.833 92.05, 147.667 92.1, 147.5 92.15 Z " fill="rgb(176,115,197)" />
<path d="M 146 126 C 146 124.45, 144.2 124, 142 124 C 140.667 124, 139.333 124, 138 124 C 136 124, 134 124, 132 124 C 132 123.333, 132 122.667, 132 122 C 133 122, 134 122, 135 122 C 139 122, 143 122, 147 122 C 147 121.333, 147 120.667, 147 120 C 146.667 119, 146.333 118, 146 117 C 146.333 116.667, 146.667 116.333, 147 116 C 147.333 116, 147.667 116, 148 116 C 148.485 116.75, 148.97 117.5, 149.455 118.25 C 150.663 120.117, 150.919 120.202, 151 117 C 151.996 114.25, 152.991 111.5, 153.987 108.75 C 155.629 104.213, 156.979 99.8015, 156.987 98.9478 C 156.996 97.8512, 154.946 96.8974, 143 94 C 144 94, 145 94, 146 94 C 146.667 94, 147.333 94, 148 94 C 149 94.3333, 150 94.6667, 151 95 C 151.667 95, 152.333 95, 153 95 C 153.667 95.3333, 154.333 95.6667, 155 96 C 155 95, 155 94, 155 93 C 155.833 93.5077, 156.667 94.0154, 157.5 94.5231 C 159.084 95.488, 160 96.9538, 160 101 C 159.764 101.414, 159.528 101.827, 159.292 102.241 C 158.903 102.923, 157.103 107.423, 152 121 C 152 121.333, 152 121.667, 152 122 C 151.083 122.999, 150.167 123.998, 149.25 124.997 C 147.738 126.645, 146.387 127.545, 146 126 Z " fill="rgb(133,78,84)" />
<path d="M 135 94 C 134.003 92.2246, 134.382 92.0349, 135.385 92.4045 C 135.923 92.603, 136.462 92.8015, 137 93 C 136.333 93.3333, 135.667 93.6667, 135 94 Z " fill="rgb(148,99,134)" />
<path d="M 161 101 C 160.583 110.304, 160.165 119.608, 159.748 128.912 C 157.594 129.951, 155.44 130.99, 153.286 132.029 C 149.731 133.744, 146.3 134.975, 145.662 134.765 C 145.023 134.555, 142.7 136.119, 140.5 138.241 C 138.3 140.362, 136.163 142.076, 135.75 142.049 C 135.5 142.033, 135.25 142.016, 135 142 C 134 142, 133 142, 132 142 C 136.667 136.667, 141.333 131.333, 146 126 C 146.387 127.545, 147.738 126.645, 149.25 124.997 C 150.167 123.998, 151.083 122.999, 152 122 C 156.266 125.499, 158 125.788, 158 123 C 158 121.889, 157.333 121, 156.5 121 C 155.675 121, 155 120.495, 155 119.878 C 155 119.503, 155 119.129, 155 118.755 C 154.5 119.129, 154 119.503, 153.5 119.878 C 153 120.252, 152.5 120.626, 152 121 C 157.103 107.423, 158.903 102.923, 159.292 102.241 C 159.528 101.827, 159.764 101.414, 160 101 C 160.333 101, 160.667 101, 161 101 Z M 148 130 C 148 130, 148.562 129.95, 149.25 129.889 C 149.938 129.828, 151.512 129.861, 152.75 129.961 C 155.634 130.194, 155.76 127.477, 152.936 125.966 C 150.634 124.734, 148 126.152, 148 128.622 C 148 129.082, 148 129.541, 148 130 C 148 130, 148 130, 148 130 Z " fill="rgb(51,22,59)" />
<path d="M 137 93 C 138 93, 139 93, 140 93 C 141 93.3333, 142 93.6667, 143 94 C 154.946 96.8974, 156.996 97.8512, 156.987 98.9478 C 156.979 99.8015, 155.629 104.213, 153.987 108.75 C 152.991 111.5, 151.996 114.25, 151 117 C 150 116.667, 149 116.333, 148 116 C 147.667 116, 147.333 116, 147 116 C 146 114.333, 145 112.667, 144 111 C 144 110.667, 144 110.333, 144 110 C 143.667 109.667, 143.333 109.333, 143 109 C 142.667 108.333, 142.333 107.667, 142 107 C 141.667 106.667, 141.333 106.333, 141 106 C 141 105.667, 141 105.333, 141 105 C 140.667 104.667, 140.333 104.333, 140 104 C 138.333 100.667, 136.667 97.3333, 135 94 C 135.667 93.6667, 136.333 93.3333, 137 93 Z M 143 101 C 143 101.667, 143 102.333, 143 103 C 144.167 102.645, 145.333 102.29, 146.5 101.935 C 150.351 100.764, 151.123 98.4912, 148.006 97.502 C 146.536 97.0354, 146.157 97.2459, 146.563 98.3032 C 146.899 99.1794, 146.313 99.9828, 143 101 Z M 147 107 C 146.75 107.017, 146.5 107.033, 146.25 107.05 C 145.837 107.077, 146.062 107.527, 148 109 C 148.333 109, 148.667 109, 149 109 C 149.67 108.404, 150.341 107.807, 151.011 107.211 C 152.586 105.811, 152.759 105.159, 151.811 104.211 C 149.28 101.68, 147 103.001, 147 107 Z " fill="rgb(55,20,86)" />
<path d="M 140 91 C 139.333 91, 138.667 91, 138 91 C 136.44 90.0926, 136.269 89.3744, 136.612 88.8186 C 136.994 88.2008, 137.774 88.4284, 138.618 89.404 C 139.079 89.936, 139.539 90.468, 140 91 Z " fill="rgb(138,67,199)" />
<path d="M 138 62 C 141.833 62.6772, 145.667 63.3543, 149.5 64.0315 C 147.01 62.7763, 144.52 61.521, 142.03 60.2658 C 137.921 58.1946, 133.871 56.1358, 133.03 55.6908 C 132.188 55.2457, 131.163 54.9082, 130.75 54.9408 C 130.5 54.9605, 130.25 54.9803, 130 55 C 130.417 54.8275, 130.833 54.655, 131.25 54.4824 C 131.938 54.1978, 136.663 56.2228, 151 64 C 150.167 64.3216, 149.333 64.6432, 148.5 64.9647 C 149.083 64.8039, 149.667 64.6432, 150.25 64.4824 C 150.833 64.3216, 151.417 64.1608, 152 64 C 154.333 64.6667, 156.667 65.3333, 159 66 C 164.461 68.7837, 164.429 68.8032, 159.544 68.7709 C 156.818 68.7528, 152.655 68.122, 150.294 67.369 C 148.863 66.9127, 147.431 66.4563, 146 66 C 143.333 64.6667, 140.667 63.3333, 138 62 Z M 145.5 64 C 145.225 64, 145 64.225, 145 64.5 C 145 64.775, 145.225 65, 145.5 65 C 145.775 65, 146 64.775, 146 64.5 C 146 64.225, 145.775 64, 145.5 64 Z " fill="rgb(189,126,229)" />
<path d="M 170 152 C 158.598 164.798, 153.828 168.799, 147.762 172.563 C 144.841 174.375, 141.921 176.188, 139 178 C 141.009 176.583, 143.018 175.167, 145.027 173.75 C 148.342 171.413, 152.167 168.262, 156 164 C 161 158.667, 166 153.333, 171 148 C 171.333 148, 171.667 148, 172 148 C 171.333 149.333, 170.667 150.667, 170 152 Z " fill="rgb(157,92,56)" />
<path d="M 144 111 C 140.512 106.37, 139.837 105.02, 140.25 105.013 C 140.5 105.009, 140.75 105.004, 141 105 C 141 105.333, 141 105.667, 141 106 C 141.333 106.333, 141.667 106.667, 142 107 C 142.333 107.667, 142.667 108.333, 143 109 C 143.333 109.333, 143.667 109.667, 144 110 C 144 110.333, 144 110.667, 144 111 Z " fill="rgb(186,127,129)" />
<path d="M 151 117 C 150.919 120.202, 150.663 120.117, 149.455 118.25 C 148.97 117.5, 148.485 116.75, 148 116 C 149 116.333, 150 116.667, 151 117 Z " fill="rgb(27,13,36)" />
<path d="M 159 82 C 157.662 81.6117, 156.324 81.2235, 154.986 80.8352 C 152.778 80.1946, 150.415 78.9766, 149.736 78.1285 C 148.631 76.7497, 149.055 76.7142, 159 79 C 159.667 79.3333, 160.333 79.6667, 161 80 C 161.004 80.25, 161.009 80.5, 161.013 80.75 C 161.021 81.1625, 160.571 81.6125, 159 82 Z " fill="rgb(186,131,121)" />
<path d="M 166 73 C 166.667 73.3333, 167.333 73.6667, 168 74 C 168.333 74, 168.667 74, 169 74 C 169 74.6667, 169 75.3333, 169 76 C 163.495 73.8531, 159.425 74.9249, 160.457 78.25 C 160.638 78.8333, 160.819 79.4167, 161 80 C 160.333 79.6667, 159.667 79.3333, 159 79 C 159.169 78.1843, 159.337 77.3686, 159.506 76.5529 C 159.82 75.0309, 159.442 73.7078, 157 72 C 159 72, 161 72, 163 72 C 163.333 72.3333, 163.667 72.6667, 164 73 C 164.667 73, 165.333 73, 166 73 Z " fill="rgb(25,13,48)" />
<path d="M 172 69 C 173.214 71.2295, 172.836 71.2561, 170.931 70.3728 C 169.594 69.7528, 168.837 69.1903, 169.25 69.1228 C 169.5 69.0819, 169.75 69.0409, 170 69 C 170.667 69, 171.333 69, 172 69 Z " fill="rgb(180,117,223)" />
<path d="M 189 87 C 188.937 108.586, 186.232 123.818, 180.032 137.5 C 178.537 140.8, 175.668 145.413, 173.657 147.75 C 172.438 149.167, 171.219 150.583, 170 152 C 170.667 150.667, 171.333 149.333, 172 148 C 175.218 143.145, 176.785 140.099, 179.975 132.5 C 180.437 131.4, 181.306 128.363, 181.907 125.75 C 182.272 124.167, 182.636 122.583, 183 121 C 183.305 120.083, 183.609 119.167, 183.914 118.25 C 184.417 116.738, 184.867 114.037, 185 109 C 185.333 108.333, 185.667 107.667, 186 107 C 186 106.333, 186 105.667, 186 105 C 186.193 99.0705, 186.385 93.1411, 186.578 87.2116 C 186.771 81.2821, 186.963 75.3527, 187.156 69.4232 C 184.305 69.011, 181.455 68.5989, 178.604 68.1867 C 166.922 66.4977, 153.734 62.539, 148 59 C 161.84 63.6489, 179.907 68, 185.371 68 C 187.896 68, 187.934 68.117, 188.464 77.5 C 188.643 80.6667, 188.821 83.8333, 189 87 Z " fill="rgb(177,115,73)" />
<path d="M 179 99 C 178.409 97.8333, 177.818 96.6667, 177.227 95.5 C 177.523 95.25, 177.818 95, 178.114 94.75 C 178.409 94.5, 178.705 94.25, 179 94 C 179 95.6667, 179 97.3333, 179 99 Z " fill="rgb(0,0,5)" />
<path d="M 180 91 C 177.636 91.9612, 177.226 91.1402, 177.131 88.5568 C 177.087 87.3712, 177.044 86.1856, 177 85 C 177.829 80.6349, 177.416 78.5715, 176.522 77.25 C 176.015 76.5, 175.507 75.75, 175 75 C 175.333 75, 175.667 75, 176 75 C 177.333 75.3333, 178.667 75.6667, 180 76 C 180 81, 180 86, 180 91 Z " fill="rgb(13,3,26)" />
<path d="M 182 120 C 181.333 120.333, 180.667 120.667, 180 121 C 180 120.667, 180 120.333, 180 120 C 182.139 111.863, 183.04 108.037, 183.38 106.25 C 183.587 105.167, 183.793 104.083, 184 103 C 184 104, 184 105, 184 106 C 183.333 110.667, 182.667 115.333, 182 120 Z " fill="rgb(18,6,45)" />
<path d="M 183 121 C 182.667 120.667, 182.333 120.333, 182 120 C 182.667 115.333, 183.333 110.667, 184 106 C 184.667 105.667, 185.333 105.333, 186 105 C 186 105.667, 186 106.333, 186 107 C 185.667 107.667, 185.333 108.333, 185 109 C 184.867 114.037, 184.417 116.738, 183.914 118.25 C 183.609 119.167, 183.305 120.083, 183 121 Z " fill="rgb(16,8,10)" />
<path d="M 47 49 C 49.3944 53.7486, 52.1273 54.0995, 55.1261 50.0433 C 56.3284 48.4171, 57.9197 46.9546, 58.6622 46.7933 C 59.4048 46.632, 60.0096 46.1625, 60.0062 45.75 C 60.0041 45.5, 60.0021 45.25, 60 45 C 60.4027 45.2694, 60.8054 45.5387, 61.2081 45.8081 C 62.064 46.3806, 61.1895 47.984, 54 56 C 51.7418 62.5978, 51.8397 62.8075, 56.3549 66.8457 C 57.9033 68.2304, 59.4516 69.6152, 61 71 C 63.3333 72.6667, 65.6667 74.3333, 68 76 C 69 74.3333, 70 72.6667, 71 71 C 71.6667 70, 72.3333 69, 73 68 C 78.425 62.5541, 79.9806 60.6416, 79.9568 60.2365 C 79.933 59.8314, 77.008 57.3625, 73.4568 54.75 C 71.3045 53.1667, 69.1523 51.5833, 67 50 C 67.6667 50, 68.3333 50, 69 50 C 76.3625 54.8933, 81.5541 58.5482, 85.2868 61.2789 C 91.5899 65.89, 92.3693 66.1966, 96.2235 65.5803 C 98.5059 65.2153, 101.752 64.3007, 103.437 63.5479 C 105.122 62.795, 110.258 60.7655, 114.852 59.0379 C 119.445 57.3102, 125.041 54.737, 127.286 53.3196 C 130.526 51.2739, 131.691 50.9801, 132.934 51.8947 C 133.795 52.5285, 137.538 54.3864, 141.25 56.0235 C 143.5 57.0157, 145.75 58.0078, 148 59 C 153.734 62.539, 166.922 66.4977, 178.604 68.1867 C 181.455 68.5989, 184.305 69.011, 187.156 69.4232 C 186.963 75.3527, 186.771 81.2821, 186.578 87.2116 C 186.385 93.1411, 186.193 99.0705, 186 105 C 185.333 105.333, 184.667 105.667, 184 106 C 184 105, 184 104, 184 103 C 184.167 92.5208, 184.333 82.0415, 184.5 71.5623 C 182.417 71.1352, 180.333 70.7082, 178.25 70.2811 C 176.167 69.8541, 174.083 69.427, 172 69 C 171.333 69, 170.667 69, 170 69 C 166.333 68, 162.667 67, 159 66 C 156.667 65.3333, 154.333 64.6667, 152 64 C 151.667 64, 151.333 64, 151 64 C 136.663 56.2228, 131.938 54.1978, 131.25 54.4824 C 130.833 54.655, 130.417 54.8275, 130 55 C 117.213 61.0831, 109.9 63.8137, 105.5 64.9925 C 101.1 66.1713, 96.6 67.5225, 95.5 67.9953 C 94.4 68.468, 90.6875 69.1125, 87.25 69.4274 C 85.1667 69.6183, 83.0833 69.8091, 81 70 C 80 70.3333, 79 70.6667, 78 71 C 78 78, 78 85, 78 92 C 77.6667 92, 77.3333 92, 77 92 C 76.0593 88.2034, 72.5718 84.2749, 68.6431 80.8207 C 64.7144 77.3664, 58.8 72.0008, 55.5 68.897 C 50.3971 64.0976, 48.7524 63.1477, 44.5 62.5443 C 37.8633 61.6024, 32.0168 58.9486, 28.1559 55.1252 C 27.1039 54.0835, 26.052 53.0417, 25 52 C 25 51, 25 50, 25 49 C 30.0375 49.6429, 32.4 49.9804, 33.5 50.1648 C 35.1 50.433, 35.25 50.25, 34.25 49.25 C 33.8333 48.8333, 33.4167 48.4167, 33 48 C 31.4176 45.8647, 29.4386 42.1522, 27.5813 38.3724 C 25.7241 34.5926, 23.7085 30.9375, 23.1022 30.25 C 22.7348 29.8333, 22.3674 29.4167, 22 29 C 21 28.3333, 20 27.6667, 19 27 C 18.3824 26.5, 17.7647 26, 17.1471 25.5 C 17.1225 25.75, 17.098 26, 17.0735 26.25 C 17.049 26.5, 17.0245 26.75, 17 27 C 16.0833 26.1492, 15.1667 25.2984, 14.25 24.4476 C 11.1172 21.54, 10.431 18, 13 18 C 13.6667 19, 14.3333 20, 15 21 C 18 23.3333, 21 25.6667, 24 28 C 24.6667 28.6667, 25.3333 29.3333, 26 30 C 26.6667 31, 27.3333 32, 28 33 C 28.6667 35, 29.3333 37, 30 39 C 30.6667 39.6667, 31.3333 40.3333, 32 41 C 32 41.3333, 32 41.6667, 32 42 C 33 42.6667, 34 43.3333, 35 44 C 35.25 43.9693, 35.5 43.9385, 35.75 43.9078 C 36.1625 43.857, 37.85 44.9684, 39.5 46.3774 C 41.15 47.7865, 43.5125 48.953, 47 49 Z M 74.1954 71 C 73.7881 71, 72.607 72.5742, 71.5709 74.4983 C 69.7513 77.877, 69.7488 78.065, 71.4984 79.9983 C 72.4948 81.0992, 73.6107 82, 73.9783 82 C 74.3459 82, 74.7118 79.525, 74.7914 76.5 C 74.8709 73.475, 74.6028 71, 74.1954 71 Z M 80 64 C 79 64.6667, 78 65.3333, 77 66 C 77 67.7123, 78.3482 67.9049, 80.5 67.5604 C 81.6667 67.3736, 82.8333 67.1868, 84 67 C 84.3333 67, 84.6667 67, 85 67 C 85.3333 67, 85.6667 67, 86 67 C 87.9359 66.293, 87.4676 65.3419, 85.9411 64.0264 C 84.0622 62.4073, 83.0969 62.162, 81.75 62.9614 C 81.1667 63.3076, 80.5833 63.6538, 80 64 Z " fill="rgb(26,18,30)" />
<path d="M 170 103 C 168.364 97.2388, 167.338 96.0659, 165.541 95.6245 C 164.694 95.4163, 163.847 95.2082, 163 95 C 161.714 94.0097, 160.428 93.0195, 159.142 92.0292 C 157.02 90.3952, 153.982 88.5639, 152.392 87.9595 C 143.776 84.6857, 134.682 79.267, 134 77 C 134.702 74.9391, 135.403 72.8783, 136.105 70.8174 C 135.754 71.0145, 135.403 71.2116, 135.052 71.4087 C 134.702 71.6058, 134.351 71.8029, 134 72 C 133.667 71, 133.333 70, 133 69 C 132.598 63.7803, 132.008 62.5985, 131.25 62.75 C 130.833 62.8333, 130.417 62.9167, 130 63 C 129.333 63.3333, 128.667 63.6667, 128 64 C 127.667 64.3333, 127.333 64.6667, 127 65 C 126.667 65, 126.333 65, 126 65 C 125.667 65.3333, 125.333 65.6667, 125 66 C 124.667 66, 124.333 66, 124 66 C 124 65.3333, 124 64.6667, 124 64 C 126.333 62.6667, 128.667 61.3333, 131 60 C 131.667 60, 132.333 60, 133 60 C 134.667 60.6667, 136.333 61.3333, 138 62 C 140.667 63.3333, 143.333 64.6667, 146 66 C 154.161 69.4875, 156.636 70.8375, 156.765 71.25 C 156.843 71.5, 156.922 71.75, 157 72 C 159.442 73.7078, 159.82 75.0309, 159.506 76.5529 C 159.337 77.3686, 159.169 78.1843, 159 79 C 149.055 76.7142, 148.631 76.7497, 149.736 78.1285 C 150.415 78.9766, 152.778 80.1946, 154.986 80.8352 C 156.324 81.2235, 157.662 81.6117, 159 82 C 159.993 82.5833, 160.986 83.1667, 161.978 83.75 C 163.616 84.7125, 164.966 86.2717, 164.978 87.2148 C 164.99 88.158, 165.9 89.3955, 169 91 C 170.881 92.4785, 171.054 94.5553, 170.637 97.8939 C 170.425 99.596, 170.212 101.298, 170 103 Z M 153.5 70 C 153.225 70, 153 70.225, 153 70.5 C 153 70.775, 153.225 71, 153.5 71 C 153.775 71, 154 70.775, 154 70.5 C 154 70.225, 153.775 70, 153.5 70 Z " fill="rgb(40,18,69)" />
<path d="M 60 45 C 60.832 42.3998, 60.382 41.0498, 59.5367 40.3225 C 59.0245 39.8816, 58.5122 39.4408, 58 39 C 58 38.6667, 58 38.3333, 58 38 C 57.6667 37.6667, 57.3333 37.3333, 57 37 C 56.6667 36.6667, 56.3333 36.3333, 56 36 C 56 35.3333, 56 34.6667, 56 34 C 55 33, 54 32, 53 31 C 52.287 30.3611, 51.5741 29.7222, 50.8611 29.0833 C 46.7333 25.3844, 39.3948 22.1476, 28 19 C 27.3333 19, 26.6667 19, 26 19 C 24.6667 18.6667, 23.3333 18.3333, 22 18 C 19 18, 16 18, 13 18 C 10.431 18, 11.1172 21.54, 14.25 24.4476 C 15.1667 25.2984, 16.0833 26.1492, 17 27 C 17.3333 27, 17.6667 27, 18 27 C 18.3333 27.3333, 18.6667 27.6667, 19 28 C 19 28.6667, 19 29.3333, 19 30 C 16.5793 27.0915, 19.1848 37.2861, 22.6419 44.25 C 23.428 45.8333, 24.214 47.4167, 25 49 C 25 50, 25 51, 25 52 C 24.6667 52, 24.3333 52, 24 52 C 21.0742 46.1875, 19.2885 41.3497, 18.1443 37.4994 C 15.6832 29.2178, 11.8328 22.9014, 7.86444 20.6355 C 6.90963 20.0904, 5.95481 19.5452, 5 19 C 5.33333 18.3333, 5.66667 17.6667, 6 17 C 9 16.6667, 12 16.3333, 15 16 C 17.6667 16, 20.3333 16, 23 16 C 33.0874 17.7207, 39.1624 19.7457, 43.008 21.6101 C 45.3387 22.7401, 47.6693 23.87, 50 25 C 50.6667 25.6667, 51.3333 26.3333, 52 27 C 55.9254 30.4175, 58.1754 34.0175, 59.5325 37.2048 C 60.355 39.1366, 61.1775 41.0683, 62 43 C 62.3333 43.6667, 62.6667 44.3333, 63 45 C 64 46, 65 47, 66 48 C 66.3333 48.3333, 66.6667 48.6667, 67 49 C 67.6667 49.3333, 68.3333 49.6667, 69 50 C 68.3333 50, 67.6667 50, 67 50 C 66.6667 50, 66.3333 50, 66 50 C 64.6667 49.6667, 63.3333 49.3333, 62 49 C 59.6667 51.3333, 57.3333 53.6667, 55 56 C 54.6667 56, 54.3333 56, 54 56 C 61.1895 47.984, 62.064 46.3806, 61.2081 45.8081 C 60.8054 45.5387, 60.4027 45.2694, 60 45 Z M 64.5 47 C 64.225 47, 64 47.225, 64 47.5 C 64 47.775, 64.225 48, 64.5 48 C 64.775 48, 65 47.775, 65 47.5 C 65 47.225, 64.775 47, 64.5 47 Z " fill="url(#radgrad_191)" />
<path d="M 46 36 C 41.0101 31.2571, 40.871 30.8869, 42.5 31.3901 C 44.4213 31.9837, 44.4311 31.9291, 42.75 30.004 C 42.1667 29.336, 41.5833 28.668, 41 28 C 39.1354 25.5102, 33.444 22.1065, 28.9284 20.7805 C 28.4031 20.6262, 27.9793 20.1625, 27.9867 19.75 C 27.9911 19.5, 27.9956 19.25, 28 19 C 39.3948 22.1476, 46.7333 25.3844, 50.8611 29.0833 C 51.5741 29.7222, 52.287 30.3611, 53 31 C 53 31.3333, 53 31.6667, 53 32 C 51.2781 31.9427, 49.7031 31.2677, 48.3891 30.463 C 47.5927 29.9754, 46.7964 29.4877, 46 29 C 45.6667 29, 45.3333 29, 45 29 C 45.6667 30, 46.3333 31, 47 32 C 47.6667 33.3333, 48.3333 34.6667, 49 36 C 48.3333 36, 47.6667 36, 47 36 C 46.6667 36, 46.3333 36, 46 36 Z " fill="url(#radgrad_192)" />
<path d="M 52 40 C 52 41.7158, 51.3744 41.9739, 50.6097 41.6805 C 48.5544 40.8918, 44.7207 44.7618, 46.043 46.2905 C 46.6185 46.9557, 47.0692 47.8375, 47.0446 48.25 C 47.0298 48.5, 47.0149 48.75, 47 49 C 43.5125 48.953, 41.15 47.7865, 39.5 46.3774 C 37.85 44.9684, 36.1625 43.857, 35.75 43.9078 C 35.5 43.9385, 35.25 43.9693, 35 44 C 34 42, 33 40, 32 38 C 32 37.3333, 32 36.6667, 32 36 C 36.5563 42.8641, 38.3839 44.3777, 37.4047 40.4761 C 36.7993 38.0643, 36.9261 37.8901, 38.6252 38.7994 C 41.0814 40.1139, 46 39.1695, 46 37.3834 C 46 36.9223, 46 36.4611, 46 36 C 46.3333 36, 46.6667 36, 47 36 C 48.6667 37.3333, 50.3333 38.6667, 52 40 Z " fill="url(#radgrad_193)" />
<path d="M 88 114 C 89.6853 122.765, 91.2603 127.49, 92.5873 130.155 C 93.3915 131.77, 94.1958 133.385, 95 135 C 94.6667 136.333, 94.3333 137.667, 94 139 C 92.3333 135.333, 90.6667 131.667, 89 128 C 88.6667 127, 88.3333 126, 88 125 C 87.6667 124.333, 87.3333 123.667, 87 123 C 87 122.333, 87 121.667, 87 121 C 86.6667 120.333, 86.3333 119.667, 86 119 C 86 118.667, 86 118.333, 86 118 C 86 117, 86 116, 86 115 C 85.6667 114, 85.3333 113, 85 112 C 85 111.667, 85 111.333, 85 111 C 85 110, 85 109, 85 108 C 84.6667 106.667, 84.3333 105.333, 84 104 C 84 102.333, 84 100.667, 84 99 C 84 98.3333, 84 97.6667, 84 97 C 83.6667 94.6667, 83.3333 92.3333, 83 90 C 83.3333 85, 83.6667 80, 84 75 C 85 75, 86 75, 87 75 C 87.6667 74.6667, 88.3333 74.3333, 89 74 C 90 74, 91 74, 92 74 C 92.6667 73.6667, 93.3333 73.3333, 94 73 C 95 73, 96 73, 97 73 C 97.6667 72.6667, 98.3333 72.3333, 99 72 C 108.688 69.5364, 111.95 68.471, 112.5 68.0429 C 113.05 67.6149, 115.863 66.5301, 118.75 65.6323 C 120.5 65.0882, 122.25 64.5441, 124 64 C 124 64.6667, 124 65.3333, 124 66 C 119.667 67.6667, 115.333 69.3333, 111 71 C 110.333 71.3333, 109.667 71.6667, 109 72 C 108.667 72, 108.333 72, 108 72 C 107.667 72, 107.333 72, 107 72 C 95.7625 74.9452, 90.8125 76.0906, 88.75 76.4454 C 87.5 76.6605, 86.25 76.8756, 85 77.0906 C 85.0136 79.8255, 85.0273 82.5604, 85.0409 85.2953 C 85.0634 89.8079, 85.5134 96.9875, 86.0409 101.25 C 86.3606 103.833, 86.6803 106.417, 87 109 C 87.3333 110.333, 87.6667 111.667, 88 113 C 88 113.333, 88 113.667, 88 114 Z " fill="rgb(26,19,36)" />
<path d="M 100 110 C 100 107.333, 100 104.667, 100 102 C 100 101.333, 100 100.667, 100 100 C 100 96.3652, 100.787 94.6601, 101.75 93.8659 C 102.713 93.0716, 107.775 90.2377, 113 87.5681 C 118.225 84.8986, 123.901 81.6777, 125.613 80.4106 C 127.326 79.1435, 129.913 77.8577, 131.363 77.5534 C 132.242 77.3689, 133.121 77.1844, 134 77 C 134.682 79.267, 143.776 84.6857, 152.392 87.9595 C 153.982 88.5639, 157.02 90.3952, 159.142 92.0292 C 160.428 93.0195, 161.714 94.0097, 163 95 C 162.333 97, 161.667 99, 161 101 C 160.667 101, 160.333 101, 160 101 C 160 96.9538, 159.084 95.488, 157.5 94.5231 C 156.667 94.0154, 155.833 93.5077, 155 93 C 151.333 91, 147.667 89, 144 87 C 143.667 87, 143.333 87, 143 87 C 142.667 86.6667, 142.333 86.3333, 142 86 C 138.5 84.0372, 135 82.0744, 131.5 80.1116 C 126.75 82.7377, 122 85.3638, 117.25 87.9898 C 109.412 92.3229, 103 96.1227, 103 96.434 C 103 96.6227, 103 96.8113, 103 97 C 103 101, 103 105, 103 109 C 103 109.667, 103 110.333, 103 111 C 102.667 112, 102.333 113, 102 114 C 101.885 118.5, 101.77 123, 101.655 127.5 C 101.379 124.583, 101.103 121.667, 100.828 118.75 C 100.552 115.833, 100.276 112.917, 100 110 Z " fill="url(#radgrad_195)" />
<path d="M 111 103 C 110.963 97.8122, 110.792 97.6703, 109.478 99 C 108.663 99.825, 107.997 101.512, 107.998 102.75 C 107.999 103.5, 107.999 104.25, 108 105 C 107.266 102.463, 106.532 99.9267, 105.798 97.3901 C 107.498 96.9917, 109.199 96.5934, 110.899 96.195 C 112.599 95.7967, 114.3 95.3983, 116 95 C 114.381 96.9375, 113.931 97.8375, 113.955 98.25 C 113.97 98.5, 113.985 98.75, 114 99 C 114 99.3333, 114 99.6667, 114 100 C 113.667 100, 113.333 100, 113 100 C 112.333 101, 111.667 102, 111 103 Z " fill="url(#grad_196)" />
<path d="M 139 178 C 136.392 179.374, 133.783 180.748, 131.175 182.122 C 129.479 181.269, 127.783 180.415, 126.088 179.561 C 124.392 178.707, 122.696 177.854, 121 177 C 106.937 165.919, 94.7707 154.097, 90.8982 147.75 C 89.9321 146.167, 88.9661 144.583, 88 143 C 88.3333 143, 88.6667 143, 89 143 C 94.6274 152.82, 106.114 164.514, 117 171.504 C 121.125 174.153, 125.827 177.228, 127.449 178.337 C 128.432 179.009, 129.414 179.681, 130.397 180.354 C 132.811 179.078, 135.224 177.803, 137.637 176.527 C 141.619 174.423, 147.38 170.743, 150.439 168.35 C 152.292 166.9, 154.146 165.45, 156 164 C 152.167 168.262, 148.342 171.413, 145.027 173.75 C 143.018 175.167, 141.009 176.583, 139 178 Z " fill="url(#radgrad_197)" />
<path d="M 180 121 C 177.789 129.137, 175.876 134.16, 174.323 137.411 C 172.77 140.661, 171.163 144.149, 170.75 145.161 C 170.5 145.774, 170.25 146.387, 170 147 C 168.39 148.163, 165.975 150.583, 163.595 153.128 C 158.716 158.346, 147.573 167.364, 141.822 170.75 C 140.548 171.5, 139.274 172.25, 138 173 C 141.488 169.901, 145.875 166.341, 150 163.089 C 166.551 150.043, 172.116 142.213, 179.379 121.75 C 179.586 121.167, 179.793 120.583, 180 120 C 180 120.333, 180 120.667, 180 121 Z " fill="rgb(34,15,78)" />
<path d="M 161 80 C 166.56 80.767, 167.279 80.4073, 168.055 78.4214 C 168.37 77.6143, 168.685 76.8071, 169 76 C 169 75.3333, 169 74.6667, 169 74 C 169.667 74, 170.333 74, 171 74 C 170.25 79.9792, 170.547 81.2726, 171.491 81.635 C 172.252 81.9268, 172.677 82.8033, 172.437 83.5828 C 172.291 84.0552, 172.146 84.5276, 172 85 C 172 86.2347, 171.325 87.5847, 170.5 88.7966 C 170 89.5311, 169.5 90.2655, 169 91 C 165.9 89.3955, 164.99 88.158, 164.978 87.2148 C 164.966 86.2717, 163.616 84.7125, 161.978 83.75 C 160.986 83.1667, 159.993 82.5833, 159 82 C 160.571 81.6125, 161.021 81.1625, 161.013 80.75 C 161.009 80.5, 161.004 80.25, 161 80 Z M 171 84 C 169.333 84, 167.667 84, 166 84 C 166.463 88.0613, 166.762 88.211, 168.25 87.195 C 168.833 86.7967, 169.417 86.3983, 170 86 C 170.333 85.3333, 170.667 84.6667, 171 84 Z " fill="url(#grad_199)" />
<path d="M 148 130 C 148 130, 148 130, 148 130 C 148 129.541, 148 129.082, 148 128.622 C 148 126.152, 150.634 124.734, 152.936 125.966 C 155.76 127.477, 155.634 130.194, 152.75 129.961 C 151.512 129.861, 149.938 129.828, 149.25 129.889 C 148.562 129.95, 148 130, 148 130 Z " fill="url(#radgrad_7)" />
<path d="M 74.1954 71 C 74.6028 71, 74.8709 73.475, 74.7914 76.5 C 74.7118 79.525, 74.3459 82, 73.9783 82 C 73.6107 82, 72.4948 81.0992, 71.4984 79.9983 C 69.7488 78.065, 69.7513 77.877, 71.5709 74.4983 C 72.607 72.5742, 73.7881 71, 74.1954 71 Z " fill="rgb(46,18,126)" />
<path d="M 74.5 62.15 C 74.6667 62.1, 74.8333 62.05, 75 62 C 75.1667 62.05, 75.3333 62.1, 75.5 62.15 C 75.775 62.2325, 75.55 62.3, 75 62.3 C 74.45 62.3, 74.225 62.2325, 74.5 62.15 Z " fill="rgb(255,255,245)" />
<path d="M 77.5 53 C 77.775 53, 78 53.225, 78 53.5 C 78 53.775, 77.775 54, 77.5 54 C 77.225 54, 77 53.775, 77 53.5 C 77 53.225, 77.225 53, 77.5 53 Z " fill="rgb(253,255,242)" />
<path d="M 78.5 54 C 78.775 54, 79 54.225, 79 54.5 C 79 54.775, 78.775 55, 78.5 55 C 78.225 55, 78 54.775, 78 54.5 C 78 54.225, 78.225 54, 78.5 54 Z " fill="rgb(253,255,242)" />
<path d="M 77 66 C 78 65.3333, 79 64.6667, 80 64 C 81.3333 65, 82.6667 66, 84 67 C 82.8333 67.1868, 81.6667 67.3736, 80.5 67.5604 C 78.3482 67.9049, 77 67.7123, 77 66 Z " fill="rgb(96,47,158)" />
<path d="M 145.5 64 C 145.775 64, 146 64.225, 146 64.5 C 146 64.775, 145.775 65, 145.5 65 C 145.225 65, 145 64.775, 145 64.5 C 145 64.225, 145.225 64, 145.5 64 Z " fill="rgb(230,207,241)" />
<path d="M 84 67 C 82.6667 66, 81.3333 65, 80 64 C 80.5833 63.6538, 81.1667 63.3076, 81.75 62.9614 C 83.0969 62.162, 84.0622 62.4073, 85.9411 64.0264 C 87.4676 65.3419, 87.9359 66.293, 86 67 C 85.5457 66.2854, 85.0914 65.5708, 84.6372 64.8562 C 83.7749 63.4998, 82.807 63.0012, 82.0021 63.4987 C 81.0545 64.0844, 81.2746 64.6314, 85 67 C 84.6667 67, 84.3333 67, 84 67 Z " fill="rgb(173,127,214)" />
<path d="M 85 67 C 81.2746 64.6314, 81.0545 64.0844, 82.0021 63.4987 C 82.807 63.0012, 83.7749 63.4998, 84.6372 64.8562 C 85.0914 65.5708, 85.5457 66.2854, 86 67 C 85.6667 67, 85.3333 67, 85 67 Z " fill="rgb(234,209,244)" />
<path d="M 101.5 152 C 101.775 152, 102 152.225, 102 152.5 C 102 152.775, 101.775 153, 101.5 153 C 101.225 153, 101 152.775, 101 152.5 C 101 152.225, 101.225 152, 101.5 152 Z " fill="rgb(151,103,203)" />
<path d="M 102.5 153 C 102.775 153, 103 153.225, 103 153.5 C 103 153.775, 102.775 154, 102.5 154 C 102.225 154, 102 153.775, 102 153.5 C 102 153.225, 102.225 153, 102.5 153 Z " fill="rgb(151,103,203)" />
<path d="M 105.396 154.729 C 105.797 155.13, 105.688 155.604, 105.154 155.782 C 104.62 155.96, 103.89 155.632, 103.533 155.053 C 102.798 153.865, 104.275 153.608, 105.396 154.729 Z " fill="rgb(151,103,203)" />
<path d="M 106.5 156 C 106.775 156, 107 156.225, 107 156.5 C 107 156.775, 106.775 157, 106.5 157 C 106.225 157, 106 156.775, 106 156.5 C 106 156.225, 106.225 156, 106.5 156 Z " fill="rgb(151,103,203)" />
<path d="M 93.75 82.0153 C 96.2044 82.0368, 97.6203 83.147, 98.4059 85.6658 C 99.2655 88.4223, 97.8749 89.2831, 94.5839 88.0319 C 91.4773 86.8508, 90.8036 81.9895, 93.75 82.0153 Z M 94.4648 83 C 92.2741 83, 92.699 85.7685, 95.0856 87.0458 C 96.2327 87.6598, 97.3942 87.9391, 97.6667 87.6667 C 98.5574 86.776, 95.9666 83, 94.4648 83 Z " fill="rgb(198,146,166)" />
<path d="M 92 92 C 92.6667 92.3333, 93.3333 92.6667, 94 93 C 94 94, 94 95, 94 96 C 94 100.01, 93.5672 100.851, 93 100.5 C 92.45 100.16, 92 98.1085, 92 95.941 C 92 94.6273, 92 93.3137, 92 92 Z " fill="rgb(189,137,150)" />
<path d="M 153.5 70 C 153.775 70, 154 70.225, 154 70.5 C 154 70.775, 153.775 71, 153.5 71 C 153.225 71, 153 70.775, 153 70.5 C 153 70.225, 153.225 70, 153.5 70 Z " fill="rgb(97,52,155)" />
<path d="M 102 137 C 102.55 137, 103 137.45, 103 138 C 103 138.55, 102.55 139, 102 139 C 101.45 139, 101 138.55, 101 138 C 101 137.45, 101.45 137, 102 137 Z " fill="rgb(231,210,189)" />
<path d="M 115.5 102 C 115.775 102, 116 102.225, 116 102.5 C 116 102.775, 115.775 103, 115.5 103 C 115.225 103, 115 102.775, 115 102.5 C 115 102.225, 115.225 102, 115.5 102 Z " fill="rgb(248,234,213)" />
<path d="M 119 111.5 C 119.55 111.16, 120 111.107, 120 111.382 C 120 111.657, 119.55 112.16, 119 112.5 C 118.45 112.84, 118 112.893, 118 112.618 C 118 112.343, 118.45 111.84, 119 111.5 Z " fill="rgb(252,233,229)" />
<path d="M 129.5 114.15 C 129.667 114.1, 129.833 114.05, 130 114 C 130.167 114.05, 130.333 114.1, 130.5 114.15 C 130.775 114.232, 130.55 114.3, 130 114.3 C 129.45 114.3, 129.225 114.232, 129.5 114.15 Z " fill="rgb(113,43,169)" />
<path d="M 132 70 C 132.55 70, 133 70.45, 133 71 C 133 71.55, 132.55 72, 132 72 C 131.45 72, 131 71.55, 131 71 C 131 70.45, 131.45 70, 132 70 Z " fill="rgb(250,244,239)" />
<path d="M 137 115 C 134.992 115.402, 134.598 114.614, 134.75 113.25 C 134.833 112.5, 134.917 111.75, 135 111 C 135 111.667, 135 112.333, 135 113 C 135 114.1, 135.45 115, 137 115 Z " fill="rgb(140,88,113)" />
<path d="M 135 111 C 135 110.667, 135 110.333, 135 110 C 135.667 110.333, 136.333 110.667, 137 111 C 137 112.333, 137 113.667, 137 115 C 135.45 115, 135 114.1, 135 113 C 135 112.333, 135 111.667, 135 111 Z " fill="rgb(66,6,122)" />
<path d="M 143 101 C 146.313 99.9828, 146.899 99.1794, 146.563 98.3032 C 146.157 97.2459, 146.536 97.0354, 148.006 97.502 C 151.123 98.4912, 150.351 100.764, 146.5 101.935 C 145.333 102.29, 144.167 102.645, 143 103 C 143 102.333, 143 101.667, 143 101 Z " fill="rgb(178,119,108)" />
<path d="M 145.75 90.9199 C 146.333 91.2597, 146.917 91.5994, 147.5 91.9392 C 146.917 91.9493, 146.333 91.9595, 145.75 91.9696 C 144.788 91.9863, 144 91.5276, 144 90.9503 C 144 90.229, 144.547 90.2195, 145.75 90.9199 Z " fill="rgb(140,65,184)" />
<path d="M 147.5 92.15 C 147.667 92.1, 147.833 92.05, 148 92 C 148.167 92.05, 148.333 92.1, 148.5 92.15 C 148.775 92.2325, 148.55 92.3, 148 92.3 C 147.45 92.3, 147.225 92.2325, 147.5 92.15 Z " fill="rgb(140,65,184)" />
<path d="M 148 109 C 146.062 107.527, 145.837 107.077, 146.25 107.05 C 146.5 107.033, 146.75 107.017, 147 107 C 147.333 107.667, 147.667 108.333, 148 109 Z " fill="rgb(142,85,78)" />
<path d="M 147 107 C 147 103.001, 149.28 101.68, 151.811 104.211 C 152.759 105.159, 152.586 105.811, 151.011 107.211 C 150.341 107.807, 149.67 108.404, 149 109 C 149.225 108.442, 149.449 107.884, 149.674 107.326 C 150.189 106.046, 149.954 105.811, 147 107 Z " fill="rgb(142,85,78)" />
<path d="M 149 109 C 148.667 109, 148.333 109, 148 109 C 147.667 108.333, 147.333 107.667, 147 107 C 149.954 105.811, 150.189 106.046, 149.674 107.326 C 149.449 107.884, 149.225 108.442, 149 109 Z " fill="rgb(199,134,97)" />
<path d="M 159.742 136.659 C 160.212 136.369, 161.202 136.507, 161.943 136.965 C 163.584 137.979, 162.524 141.341, 160.749 140.75 C 159.247 140.25, 158.545 137.399, 159.742 136.659 Z " fill="rgb(237,200,163)" />
<path d="M 166 84 C 167.667 84, 169.333 84, 171 84 C 170.667 84.6667, 170.333 85.3333, 170 86 C 169.417 86.3983, 168.833 86.7967, 168.25 87.195 C 166.762 88.211, 166.463 88.0613, 166 84 Z M 167.799 84.6241 C 167.399 84.8714, 166.999 85.1188, 166.599 85.3662 C 166.999 85.4996, 167.399 85.633, 167.799 85.7664 C 168.46 85.9866, 169 85.6526, 169 85.0243 C 169 84.3901, 168.466 84.212, 167.799 84.6241 Z " fill="rgb(210,166,135)" />
<path d="M 64.5 47 C 64.775 47, 65 47.225, 65 47.5 C 65 47.775, 64.775 48, 64.5 48 C 64.225 48, 64 47.775, 64 47.5 C 64 47.225, 64.225 47, 64.5 47 Z " fill="rgb(26,18,30)" />
<path d="M 94.4648 83 C 95.9666 83, 98.5574 86.776, 97.6667 87.6667 C 97.3942 87.9391, 96.2327 87.6598, 95.0856 87.0458 C 92.699 85.7685, 92.2741 83, 94.4648 83 Z " fill="rgb(246,234,217)" />
<path d="M 167.799 84.6241 C 168.466 84.212, 169 84.3901, 169 85.0243 C 169 85.6526, 168.46 85.9866, 167.799 85.7664 C 167.399 85.633, 166.999 85.4996, 166.599 85.3662 C 166.999 85.1188, 167.399 84.8714, 167.799 84.6241 Z " fill="rgb(253,239,178)" />
</svg>
